<?xml version="1.0" encoding="utf-8"?>
<!-- Generator: Adobe Illustrator 22.0.1, SVG Export Plug-In . SVG Version: 6.00 Build 0)  -->
<svg version="1.1" id="Capa_1" xmlns="http://www.w3.org/2000/svg" xmlns:xlink="http://www.w3.org/1999/xlink" x="0px" y="0px"
	 width="47" height="47px" viewBox="0 0 566.9 566.9"  xml:space="preserve">
<style type="text/css">
	.st0{fill:transparent;}
	.st1{fill:#d3d4d5;}
	.st2{fill:transparent;}
	.st3{fill:transparent;}
	.st4{fill:#d3d4d5;}
</style>
<g>
	<g>
		<path class="st0" d="M-8-5c195.3,0,390.1,0,586,0c0,118,0,236,0,355c-194.8,0-390.1,0-586,0C-8,232.5-8,114-8-5z M284.7,321.5
			c93-4.1,168.2-38.7,225.8-104.3c26-29.5,26.6-48.3,0.6-77.3C384.3-3.5,175.7,5.2,59,142.5c-23.2,27-22.7,43.7,0,71.2
			C115.4,282.4,192.3,316.9,284.7,321.5z"/>
		<path class="st1" d="M284.7,321.5c-92.4-4.6-169.3-39.2-226.3-108.3c-22.7-27.5-23.2-44.2,0-71.2C175.2,5.2,383.8-3.5,510.5,139.4
			c26,29.5,25.5,47.8-0.6,77.3C452.4,282.9,377.7,316.9,284.7,321.5z M272,300.2c86.3-0.5,165.5-33.6,212.5-82.9
			c28.2-30,28.2-47.8,0-77.3c-104.6-109.3-294.4-109.9-398.4,0c-27.7,29.5-28.8,48.3,0,77.3C140.3,270.7,207.8,297.6,272,300.2z"/>
		<path class="st2" d="M272,300.2c-64.2-2.5-131.7-29-185.4-83.4c-28.8-29-28.2-47.8,0-77.3c103.5-109.3,293.8-109.3,398.4,0
			c28.2,30,28.2,47.8,0,77.3C437.4,266.6,358.9,299.6,272,300.2z M395.9,180.1c1.1-56.5-47-102.7-108.5-103.8
			c-60.9-1-111.8,43.7-112.9,99.7c-1.1,54.9,47,102.2,105.7,103.8C343.9,281.3,394.8,237.6,395.9,180.1z"/>
		<path class="st1" d="M395.9,180.1c-1.1,57.5-52,101.2-115.7,99.7c-58.7-1.5-106.8-48.3-105.7-103.8c1.1-55.9,52-101.2,112.9-99.7
			C348.9,77.4,397.1,123.7,395.9,180.1z M373.8,179.1c1.1-44.2-37.6-80.9-86.3-81.9c-48.7-1-89.6,36.1-90.2,81.9
			c0,44.2,39.8,80.4,88,80.9C333.4,259.5,372.7,223.9,373.8,179.1z"/>
		<path class="st3" d="M373.8,179.1c-1.1,44.8-40.4,80.4-88.5,80.4c-48.7-0.5-88.5-36.6-88-80.9c0-45.8,41.5-82.9,90.2-81.9
			C335.6,98.2,374.4,134.9,373.8,179.1z M319,177.6c-2.8-17.3-12.7-29.5-33.2-29.5s-32.6,11.7-32.6,30.5c0,17.3,12.2,29,31,29.5
			C304.1,208.6,315.7,197.4,319,177.6z"/>
		<path class="st4" d="M319,177.6c-3.3,19.8-14.4,31-34.9,30.5c-18.8-0.5-31-11.7-31-29.5c0-18.8,12.2-30.5,32.6-30.5
			S316.3,160.8,319,177.6z"/>
	</g>
</g>
</svg>
