<?xml version="1.0" encoding="utf-8"?>
<!-- Generator: Adobe Illustrator 22.0.1, SVG Export Plug-In . SVG Version: 6.00 Build 0)  -->
<svg version="1.1" id="Capa_1" xmlns="http://www.w3.org/2000/svg" xmlns:xlink="http://www.w3.org/1999/xlink" x="0px" y="0px"
	 viewBox="0 0 595.3 841.9" style="enable-background:new 0 0 595.3 841.9;" xml:space="preserve">
<style type="text/css">
	.st0{fill: transparent;}
	.st1{fill:#034DA0;}
	.st2{fill:#044DA1;}
	.st3{fill:#034DA1;}
	.st4{fill:#ffffff;}
	.st5{fill:#ffffff;}
	.st6{fill:#ffffff;}
	.st7{fill:#ffffff;}
	.st8{fill:  transparent;}
	.st9{fill:  transparent;}
	.st10{fill: transparent;}
	.st11{fill: transparent;}
	.st12{fill: transparent;}
</style>
<g>
	<path class="st0" d="M628.8,479.9c-248,0-496,0-744.1,0c0-83.7,0-167.5,0-251.2c248,0,496,0,744.1,0
		C628.8,312.5,628.8,396.2,628.8,479.9z M-19.8,308.1c-0.8-0.6-1.6-1.2-2.4-1.9c-2.8-2.4-5.6-4.9-8.4-7.4c-2.6-2.3-5.3-4.7-7.9-7
		c-2.8-2.5-5.6-5-8.4-7.5c-2.5-2.2-5.1-4.5-7.6-6.7c-2.9-2.6-5.8-5.2-8.7-7.8c-2.1-1.9-4.2-3.8-6.3-5.7c-0.2-0.2-0.5-0.5-0.8-0.5
		c-2.7,0-5.3,0-8,0c0,39.1,0,78.2,0,117.2c8,0,15.9,0,23.9,0c0-23.8,0-47.6,0-71.5c0.4,0.3,0.7,0.5,1,0.7c2.8,2.4,5.5,4.9,8.3,7.3
		c2.6,2.3,5.2,4.6,7.8,6.9c2.9,2.5,5.7,5.1,8.6,7.6c3,2.7,5.9,5.3,8.9,8c2.6-2.2,5-4.3,7.4-6.4c2.6-2.3,5.1-4.5,7.7-6.8
		c2.9-2.5,5.7-5.1,8.6-7.6c3.4-3,6.8-6.1,10.2-9.1c0.2-0.2,0.4-0.3,0.7-0.6c0,24,0,47.8,0,71.5c8.1,0,16.1,0,24,0
		c0-39.1,0-78.1,0-117.2c-2.7,0-5.4,0-8,0c-0.3,0-0.6,0.2-0.8,0.4c-1.1,0.9-2.2,1.8-3.2,2.7c-2.9,2.5-5.7,5.1-8.6,7.6
		c-2.5,2.2-5.1,4.5-7.6,6.7c-3,2.7-6,5.4-9.1,8.1c-2.4,2.2-4.9,4.3-7.3,6.4c-2.9,2.6-5.9,5.2-8.8,7.8
		C-16.5,305.1-18.2,306.6-19.8,308.1z M189.7,381c0-39.2,0-78.1,0-117.2c-8,0-16,0-24.1,0c0,21.8,0,43.4,0,65.3
		c-0.5-0.4-0.9-0.7-1.3-1c-3-2.9-6-5.9-8.9-8.8c-2.4-2.3-4.7-4.7-7.1-7c-2.9-2.9-5.8-5.7-8.7-8.6c-2.5-2.5-5.1-5-7.6-7.5
		c-3.6-3.6-7.3-7.2-10.9-10.8c-1.7-1.6-3.4-3.3-5-4.9c-2.9-2.8-5.8-5.7-8.6-8.5c-2.3-2.3-4.5-4.6-6.8-6.9c-0.5-0.5-1.2-1.3-1.9-1.3
		c-2.4-0.2-4.8-0.1-7.3-0.1c0,39.1,0,78.2,0,117.2c8,0,16,0,24.1,0c0-22.7,0-45.3,0-68.1c0.5,0.4,0.9,0.6,1.3,1
		c2.9,2.9,5.8,5.9,8.8,8.8c2.5,2.5,5,5,7.5,7.5c2.9,2.9,5.8,5.9,8.7,8.8c2.5,2.5,5,5,7.5,7.5c3,3,6,6.1,9,9.1
		c2.4,2.4,4.7,4.7,7.1,7.1c3,3,5.9,6,8.9,9c2.9,3,5.8,5.9,8.8,8.8c0.2,0.2,0.5,0.4,0.7,0.4C185.7,381,187.7,381,189.7,381z
		 M297.2,263.5c0,39.2,0,78.2,0,117.2c8,0,16,0,24,0c0-31.3,0-62.4,0-93.6c0.3,0,0.5-0.1,0.6-0.1c7.6,0,15.2,0,22.8,0
		c3.1,0,5.8,1.3,8,3.4c3.4,3.4,4.4,7.6,2.9,12.2c-1.5,4.5-4.9,7-9.6,7.7c-2.1,0.3-4.3,0.2-6.4,0.2c-1.6,0-3.2,0-4.8,0
		c0,0.5,0,0.9,0,1.3c0,6.2,0,12.4,0,18.6c0,2.1,0.2,4,1.3,6.1c2.9,5.4,5.4,11,8.1,16.6c2.9,6,5.7,12,8.6,18c1.4,3,2.8,5.9,4.1,8.9
		c0.3,0.7,0.7,1,1.5,1c7.8,0,15.6,0,23.3,0c0.3,0,0.7,0,1.2,0c-0.2-0.5-0.3-0.8-0.5-1.1c-2.2-4.6-4.4-9.1-6.6-13.7
		c-2.9-6.1-5.8-12.2-8.7-18.3c-1.8-3.8-3.5-7.7-5.3-11.5c-0.9-1.8-1.8-3.6-2.7-5.5c3.6-1.3,6.5-3.5,9.3-5.9c3.6-3,6.5-6.8,8.4-11
		c4.9-10.7,4.9-21.4-1-31.9c-2.2-4-4.9-7.5-8.6-10.3c-2.5-1.9-5-3.6-7.8-4.9c-5-2.3-10.3-3.3-15.8-3.4c-15.1,0-30.2,0-45.3,0
		C298,263.5,297.7,263.5,297.2,263.5z M283.8,357.5c-18.6,0-37.1,0-55.5,0c0-8.5,0-16.8,0-25.2c14.1,0,28.2,0,42.2,0
		c0-7.9,0-15.6,0-23.5c-14.1,0-28.2,0-42.2,0c0-7.2,0-14.4,0-21.6c18.7,0,37.4,0,56.1,0c0-7.8,0-15.6,0-23.4c-26.8,0-53.4,0-80.2,0
		c0,39.1,0,78.1,0,117.1c26.6,0,53.1,0,79.7,0C283.8,373.1,283.8,365.4,283.8,357.5z M391,381.2c0.4,0,0.7,0,1,0
		c13.1,0,26.1,0.1,39.2,0c10.5-0.1,19.4-4.1,26.8-11.6c3.8-3.9,6.3-8.6,7.9-13.7c2.4-7.8,2.3-15.7-1.2-23.2c-1.1-2.5-2.5-5-4-7.3
		c-1.9-3.2-4.8-5.4-7.6-7.8c0.3-0.4,0.6-0.8,0.8-1.3c1.3-2.7,3-5.4,3.9-8.2c2.2-7.1,2.1-14.3-0.7-21.4c-2-4.8-4.5-9.2-8.4-12.8
		c-2.7-2.5-5.6-4.7-8.9-6.3c-4.8-2.3-9.9-3.6-15.2-3.6c-10.8-0.1-21.6,0-32.3,0c-0.4,0-0.8,0-1.2,0C391,303,391,342,391,381.2z
		 M464.6,380.9c0.2,0,0.3,0.1,0.4,0.1c8.7,0,17.4,0,26.1,0c0.3,0,0.8-0.4,1-0.7c2.2-4,4.3-8.1,6.4-12.1c2.7-5.2,5.5-10.5,8.2-15.7
		c2.7-5.1,5.4-10.3,8.1-15.4c2.8-5.3,5.5-10.5,8.2-15.8c1.9-3.7,3.8-7.5,5.8-11.3c0.7,1.2,1.4,2.4,2,3.6c2.8,5.8,5.6,11.6,8.4,17.4
		c2.6,5.5,5.3,10.9,7.9,16.4c2.9,6,5.8,12.1,8.7,18.1c2.3,4.8,4.5,9.5,6.7,14.3c0.4,0.9,0.9,1.3,2,1.3c8.1,0,16.2,0,24.3,0
		c0.3,0,0.7,0,1.3,0c-1.2-2.3-2.3-4.3-3.3-6.4c-2.7-5.4-5.3-10.9-7.9-16.3c-2.8-5.7-5.5-11.4-8.3-17.1c-2.7-5.5-5.3-11-8-16.5
		c-2.8-5.8-5.6-11.5-8.4-17.3c-2.6-5.4-5.2-10.8-7.9-16.2c-2.8-5.8-5.7-11.7-8.5-17.5c-1.5-3.1-2.9-6.1-4.3-9.2
		c-0.3-0.6-0.5-0.8-1.2-0.8c-1.8,0.1-3.7,0-5.5,0c-0.4,0-0.9,0.3-1.1,0.6c-1.3,2.3-2.6,4.7-3.8,7c-2.7,5.1-5.4,10.3-8.1,15.4
		c-2.7,5.2-5.4,10.4-8.2,15.6c-2.7,5.1-5.3,10.2-8,15.3c-2.8,5.3-5.6,10.7-8.4,16c-2.6,5-5.3,10.1-7.9,15.1
		c-2.8,5.4-5.6,10.7-8.4,16.1c-2.2,4.2-4.3,8.4-6.5,12.6C465.9,378.6,465.3,379.7,464.6,380.9z M77.2,380.8c0-39,0-78,0-117
		c-8,0-16,0-24,0c0,39,0,78,0,117C61.2,380.8,69.2,380.8,77.2,380.8z M-3.5,427.9c-0.9-1.7-1.8-3.3-2.5-4.9
		c-2.1-4.4-4.1-8.8-6.1-13.3c-0.1-0.3-0.5-0.7-0.8-0.7c-0.9-0.1-1.8,0-2.6,0c0,9.1,0,18,0,26.9c1,0,2,0,3,0c0-6.7,0-13.3,0-19.9
		c1,1.6,1.7,3.3,2.5,5c1.6,3.4,3.2,6.7,4.9,10.1c0.5,1.1,1.5,0.5,2.2,0.6c0.3,0,0.8-0.3,0.9-0.7c2.2-4.6,4.4-9.3,6.6-13.9
		c0.2-0.4,0.4-0.7,0.5-1.1c0.1,0,0.1,0,0.2,0c0,6.6,0,13.3,0,19.9c1,0,1.9,0,2.7,0c0-9,0-17.9,0-26.9c-0.8,0-1.5,0-2.2,0
		c-0.3,0-0.7,0.3-0.8,0.5c-1,2-2.1,4.1-3,6.2C0.1,419.7-1.7,423.7-3.5,427.9z M260.7,435.9c0-9,0-17.9,0-26.8c-1,0-1.9,0-2.9,0
		c0,7.1,0,14,0,21.1c-1.5-2.1-3-4.1-4.4-6.1c-3.3-4.8-6.6-9.6-9.9-14.5c-0.2-0.2-0.4-0.5-0.7-0.6c-0.8-0.1-1.6,0-2.4,0
		c0,9.1,0,17.9,0,26.8c1,0,1.9,0,2.9,0c0-7.1,0-14.1,0-21.2c1.3,1.8,2.6,3.5,3.8,5.3c3.5,5.1,7,10.3,10.5,15.5
		c0.2,0.3,0.5,0.5,0.8,0.6C259.2,435.9,259.9,435.9,260.7,435.9z M56.5,414.5c1.3,1.8,2.6,3.4,3.7,5.1c3.6,5.2,7.1,10.4,10.7,15.6
		c0.2,0.3,0.5,0.6,0.8,0.6c0.8,0.1,1.6,0,2.3,0c0-9.1,0-18,0-26.9c-1,0-1.9,0-2.8,0c0,7.1,0,14,0,21.1c-1.4-1.9-2.8-3.7-4-5.5
		c-3.5-5-6.9-10.1-10.3-15.1c-0.2-0.3-0.5-0.6-0.8-0.6c-0.8-0.1-1.6,0-2.3,0c0,9.1,0,18,0,26.9c1,0,1.9,0,2.8,0
		C56.5,428.7,56.5,421.7,56.5,414.5z M353.5,423.9c2,0,3.8,0,5.7,0c0.7,0,1.1,0.2,1.5,0.9c1.7,3.5,3.5,6.9,5.3,10.4
		c0.1,0.3,0.5,0.6,0.7,0.6c1,0.1,2.1,0,3.2,0c-2.2-4.1-4.4-8.1-6.6-12.1c0.5-0.2,0.9-0.3,1.3-0.4c1.8-0.6,3.3-1.7,4-3.4
		c2.1-4.8,0-9.7-5.4-10.7c-1.4-0.3-2.8-0.2-4.2-0.2c-2.8,0-5.7,0-8.5,0c0,9,0,17.9,0,26.9c1,0,2,0,3,0
		C353.5,431.9,353.5,428,353.5,423.9z M455.3,423.9c1.2-0.6,2.4-0.9,3.3-1.6c2.6-2,3-4.8,2.4-7.8c-0.5-2.2-1.7-3.9-3.9-4.6
		c-1.3-0.4-2.7-0.8-4.1-0.8c-3.5-0.1-6.9,0-10.4,0c0,9,0,17.9,0,26.9c0.9,0,1.8,0,2.8,0c0-4,0-7.9,0-11.9c1.7,0,3.4,0.1,5,0
		c1.3-0.1,2,0.2,2.4,1.5c0.3,0.8,0.7,1.5,1.1,2.2c1.4,2.6,2.8,5.2,4.2,7.7c0.1,0.2,0.4,0.5,0.6,0.5c1,0.1,2,0,3.2,0
		C459.6,431.7,457.4,427.8,455.3,423.9z M-47.4,422.3c0,0-0.1,0-0.1,0c0,1.6-0.2,3.1,0,4.7c0.2,1.6,0.4,3.5,1.3,4.7
		c2.2,3.1,5.3,4.6,9.2,4.4c3.7-0.2,8.7-3.4,8.8-8c0.1-3.6,0.2-7.2,0-10.8c-0.1-1.5-0.5-3.3-1.4-4.5c-2.2-3-5.4-4.4-9.3-4.1
		c-3.7,0.3-8.5,3.5-8.6,8.1C-47.4,418.7-47.4,420.5-47.4,422.3z M337.9,422.5c0,0,0.1,0,0.1,0c0-1.6,0.1-3.1,0-4.7
		c-0.1-2.1-0.4-4.2-2-5.8c-2.3-2.3-5-3.4-8.4-3.3c-4.1,0.2-8.7,3.5-8.9,8c-0.2,3.6-0.1,7.2-0.1,10.8c0,1,0.1,2.1,0.6,2.9
		c2.1,4,5.4,5.9,10,5.6c3.8-0.2,8.6-3.3,8.7-8C337.9,426.2,337.9,424.4,337.9,422.5z M227.9,422.5c-0.1,0-0.1,0-0.2,0
		c0-1.6,0.1-3.1,0-4.7c-0.1-2.3-0.6-4.4-2.3-6.1c-2.2-2.3-5-3.1-8.1-2.9c-4.6,0.3-8.5,3.2-8.7,8c-0.2,3.6-0.1,7.2-0.1,10.8
		c0,2.1,0.7,4,2.2,5.5c2.3,2.4,5.2,3.2,8.5,3c4.3-0.3,7.6-3.1,8.3-7C227.8,426.9,227.7,424.7,227.9,422.5z M429.8,422.5
		c0,0,0.1,0,0.1,0c0-1.6,0.1-3.1,0-4.7c-0.1-2.3-0.6-4.4-2.3-6.1c-2.3-2.3-5.1-3.2-8.3-2.9c-4.8,0.3-8.4,3.5-8.5,8
		c-0.1,4-0.1,8,0.1,12c0.1,1.6,0.9,3.1,2,4.3c2.3,2.4,5.1,3.2,8.3,2.9c4.5-0.4,8.3-3.2,8.6-8C429.8,426.2,429.8,424.3,429.8,422.5z
		 M150.1,435.8c1.1,0,2,0,3.1,0c-0.1-0.3-0.2-0.5-0.2-0.7c-1.5-3.8-3-7.6-4.4-11.5c-1.7-4.6-3.4-9.2-5-13.8c-0.4-1.2-1.3-0.8-2-0.8
		c-0.7-0.1-1.1,0.1-1.4,0.9c-2.1,5.8-4.2,11.5-6.3,17.3c-1.1,2.9-2.3,5.8-3.5,8.8c1,0,1.8-0.1,2.5,0c0.7,0.1,1-0.2,1.2-0.9
		c0.6-1.8,1.2-3.5,1.8-5.2c3.8,0,7.5,0,11.2,0c0.6,0,0.8,0.2,1,0.7C148.6,432.3,149.4,434,150.1,435.8z M492.7,435.8
		c-0.1-0.3-0.1-0.5-0.2-0.8c-1-2.6-2.1-5.2-3.1-7.9c-2.1-5.7-4.2-11.4-6.3-17.1c-0.3-0.9-0.7-1.2-1.7-1.2c-1.2-0.1-1.8,0.3-2,1.5
		c-0.1,0.6-0.4,1.1-0.6,1.6c-1.8,4.7-3.6,9.4-5.4,14.2c-1.2,3.2-2.4,6.4-3.6,9.7c0.9,0,1.8,0,2.6,0c0.2,0,0.6-0.2,0.7-0.4
		c0.5-1.1,1-2.2,1.4-3.3c0.3-0.8,0.6-1.5,0.8-2.3c3.8,0,7.5,0,11.2,0c0.6,0,0.8,0.2,1,0.7c0.6,1.8,1.3,3.6,1.9,5.3
		C490.6,435.8,491.6,435.8,492.7,435.8z M588.4,435.9c-0.6-1.2-1.1-2.3-1.5-3.4c-2.9-7.6-5.7-15.1-8.5-22.7
		c-0.4-1.1-1.2-0.7-1.8-0.8c-0.6-0.1-1,0.1-1.3,0.8c-1.5,4.1-3.2,8.2-4.7,12.3c-1.5,4-3,8-4.5,12.1c-0.2,0.6-0.4,1.2-0.7,1.8
		c0.8,0,1.5-0.1,2.1,0c0.8,0.1,1.1-0.2,1.4-1c0.6-1.7,1.2-3.4,1.8-5.1c3.8,0,7.5,0,11.2,0c0.8,0,1.1,0.3,1.3,0.9
		c0.6,1.7,1.2,3.4,1.8,5.1C586.1,435.9,587.1,435.9,588.4,435.9z M381.5,435.8c1,0,2,0,3.1,0c0-3.7,0-7.3,0-11c2.6,0,5.2,0,7.7,0
		c4.2,0,7.5-2.9,7.8-6.7c0.4-4.9-1.9-8.4-6.5-8.8c-4-0.4-8.1-0.1-12.1-0.1C381.5,417.9,381.5,426.8,381.5,435.8z M40.6,409
		c-1,0-1.9,0-2.9,0c0,0.5,0,0.9,0,1.3c0,5.3,0,10.6,0,15.8c0,2.8-0.7,5.2-3.4,6.6c-2.7,1.4-6.6,0.9-8.5-1.3
		c-1.4-1.5-1.6-3.4-1.6-5.4c0-5.3,0-10.6,0-15.9c0-0.4,0-0.8,0-1.1c-1,0-1.9,0-2.9,0c0,6.4-0.1,12.6,0.1,18.9c0,1.5,0.7,3.1,1.6,4.4
		c2,3.1,5.3,3.9,8.7,3.7c5.7-0.3,9-4.2,9-9.2c-0.1-4.4,0-8.8,0-13.1C40.6,412.1,40.6,410.6,40.6,409z M181,416.7
		c-0.1-0.5-0.2-0.8-0.3-1.2c-1.4-4.9-5.8-7.7-10.9-6.7c-4.5,0.8-7.9,3.5-8,8.4c-0.1,3.6-0.1,7.2,0.1,10.8c0.1,2.8,1.5,4.9,3.9,6.4
		c3.4,2.1,8.3,2.2,11.5-0.1c2.1-1.5,3.3-3.6,3.6-6.3c-1,0-1.9,0-2.5,0c-1,1.4-1.6,2.9-2.7,3.9c-1.9,1.8-4.3,1.9-6.7,1.2
		c-2.7-0.8-4-3-4.2-5.5c-0.4-3.8-0.7-7.7,0.3-11.5c0.7-2.7,2.7-4.5,5.4-4.8c3.1-0.3,5.7,0.9,6.7,3.7c0.6,1.7,1.5,1.9,3,1.8
		C180.5,416.7,180.7,416.7,181,416.7z M-61.1,428.1c-0.7,1.1-1.3,2.2-2.1,3.1c-1.9,2.2-4.3,2.7-7,1.9c-2.4-0.7-4.1-2.2-4.3-4.7
		c-0.3-3.2-0.3-6.5-0.2-9.7c0-1.5,0.3-3.2,1-4.5c2.3-4,8.3-4,10.9-0.2c0.5,0.8,1,1.7,1.5,2.6c0.8,0,1.7,0,2.8,0
		c-0.1-0.4-0.2-0.8-0.3-1.2c-1.3-5.1-6.2-7.4-10.8-6.7c-5,0.7-7.8,3.6-8.1,8.6c-0.2,3.7,0,7.4,0.1,11.2c0.1,1.7,0.9,3.3,2.1,4.5
		c3.1,3.2,8.4,3.9,12.3,1.7c2.7-1.5,4-3.8,4.6-6.8C-59.5,428.1-60.4,428.1-61.1,428.1z M307.8,416.7c-0.1-0.5-0.2-0.8-0.3-1.2
		c-1.4-5.3-6.1-7.3-10.9-6.7c-4.6,0.6-7.9,3.8-8,8.4c-0.1,3.9-0.1,7.7,0.2,11.6c0.2,3.4,3.1,6.1,6.4,6.9c2.7,0.7,5.2,0.4,7.7-0.7
		c2.4-1.1,4.7-4.3,4.7-6.9c-0.9,0-1.8,0-2.8,0c-0.4,1.8-1.3,3.1-2.7,4.2c-3.3,2.5-9.9,1-10.3-3.9c-0.3-3.9-0.2-7.8-0.1-11.7
		c0.1-2.6,1.8-4.3,4.4-5.1c3.3-1,6.9,0.5,8,3.4c0.6,1.7,1.5,1.9,3,1.8C307.3,416.7,307.5,416.7,307.8,416.7z M122.1,416.7
		c-0.1-0.4-0.2-0.8-0.3-1.2c-1.5-5.8-7.1-7.7-12-6.4c-3.4,0.9-6,2.8-6.5,6.4c-0.7,4.6-0.7,9.2,0,13.8c0.4,2.8,2.3,4.7,4.7,5.8
		c2.8,1.3,5.7,1.3,8.5,0.3c2.9-1,5.4-4.4,5.4-7.3c-0.9,0-1.8,0-2.7,0c-0.6,2.1-1.7,3.8-3.8,4.8c-3.4,1.6-9.1-0.2-9.3-4.7
		c-0.2-3.8-0.2-7.7,0-11.6c0.1-2.4,1.6-3.9,3.8-4.8c3.2-1.4,7.7,0,8.9,3.9c0.1,0.3,0.2,0.7,0.3,1
		C120.2,416.7,121.1,416.7,122.1,416.7z M539.8,409c3,9,6,18,9.1,26.9c0.7,0,1.3,0.1,1.9,0c0.3-0.1,0.7-0.3,0.8-0.6
		c1.3-3.7,2.6-7.4,3.9-11.2c1.2-3.5,2.3-6.9,3.4-10.4c0.5-1.5,1-3.1,1.5-4.7c-0.9,0-1.7,0-2.5,0c-0.3,0-0.6,0.3-0.7,0.5
		c-0.9,2.4-1.8,4.8-2.6,7.2c-0.8,2.3-1.5,4.7-2.2,7c-0.7,2.2-1.4,4.4-2.2,6.8c-2.4-7.3-4.8-14.4-7.3-21.5
		C541.9,409,540.9,409,539.8,409z M497.3,409c0,0.9,0,1.7,0,2.6c2.7,0,5.3,0,8,0c0,8.1,0,16.2,0,24.2c1.1,0,2,0,3.1,0
		c0-8.1,0-16.2,0-24.3c2.7,0,5.3,0,7.9,0c0-0.9,0-1.7,0-2.5C509.9,409,503.7,409,497.3,409z M527.2,409c0,9,0,17.9,0,26.8
		c1,0,1.8,0,2.7,0c0-9,0-17.9,0-26.8C529,409,528.2,409,527.2,409z M193.3,409c0,9,0,17.9,0,26.8c1,0,1.9,0,2.7,0c0-9,0-17.9,0-26.8
		C195.1,409,194.2,409,193.3,409z M90.5,435.8c0-9,0-17.9,0-26.8c-1,0-1.8,0-2.7,0c0,9,0,17.9,0,26.8
		C88.7,435.8,89.6,435.8,90.5,435.8z M223.1,400.5c-1.1,0-2,0-2.9,0c-0.3,0-0.6,0.1-0.7,0.3c-1.1,1.8-2.1,3.7-3.2,5.6
		c0.6,0,1,0,1.4,0c0.5-0.1,1.2,0,1.4-0.3C220.4,404.3,221.6,402.4,223.1,400.5z"/>
	<path class="st1" d="M-19.8,308.1c1.7-1.5,3.3-3.1,5-4.6c2.9-2.6,5.9-5.2,8.8-7.8c2.4-2.2,4.9-4.3,7.3-6.4c3-2.7,6-5.4,9.1-8.1
		c2.5-2.2,5.1-4.5,7.6-6.7c2.9-2.5,5.7-5.1,8.6-7.6c1.1-0.9,2.1-1.8,3.2-2.7c0.2-0.2,0.6-0.4,0.8-0.4c2.6,0,5.3,0,8,0
		c0,39.1,0,78.1,0,117.2c-8,0-15.9,0-24,0c0-23.8,0-47.5,0-71.5c-0.4,0.3-0.5,0.4-0.7,0.6c-3.4,3-6.8,6.1-10.2,9.1
		c-2.9,2.5-5.7,5.1-8.6,7.6c-2.6,2.3-5.1,4.6-7.7,6.8c-2.4,2.1-4.8,4.2-7.4,6.4c-2.9-2.6-5.9-5.3-8.9-8c-2.8-2.5-5.7-5.1-8.6-7.6
		c-2.6-2.3-5.2-4.6-7.8-6.9c-2.8-2.4-5.5-4.9-8.3-7.3c-0.3-0.2-0.6-0.4-1-0.7c0,23.9,0,47.7,0,71.5c-8,0-15.9,0-23.9,0
		c0-39,0-78,0-117.2c2.7,0,5.3,0,8,0c0.3,0,0.6,0.3,0.8,0.5c2.1,1.9,4.2,3.8,6.3,5.7c2.9,2.6,5.8,5.2,8.7,7.8
		c2.5,2.2,5.1,4.5,7.6,6.7c2.8,2.5,5.6,5,8.4,7.5c2.6,2.3,5.3,4.7,7.9,7c2.8,2.5,5.6,4.9,8.4,7.4C-21.5,306.9-20.7,307.5-19.8,308.1
		z"/>
	<path class="st2" d="M189.7,381c-2.1,0-4,0-6,0c-0.2,0-0.5-0.2-0.7-0.4c-2.9-2.9-5.8-5.9-8.8-8.8c-3-3-5.9-6-8.9-9
		c-2.4-2.4-4.7-4.7-7.1-7.1c-3-3-6-6.1-9-9.1c-2.5-2.5-5-5-7.5-7.5c-2.9-2.9-5.8-5.9-8.7-8.8c-2.5-2.5-5-5-7.5-7.5
		c-2.9-2.9-5.8-5.9-8.8-8.8c-0.3-0.3-0.8-0.6-1.3-1c0,22.7,0,45.4,0,68.1c-8.1,0-16,0-24.1,0c0-39,0-78,0-117.2
		c2.4,0,4.9-0.1,7.3,0.1c0.7,0,1.3,0.8,1.9,1.3c2.3,2.3,4.5,4.6,6.8,6.9c2.9,2.9,5.7,5.7,8.6,8.5c1.7,1.6,3.4,3.3,5,4.9
		c3.7,3.6,7.3,7.2,10.9,10.8c2.5,2.5,5.1,5,7.6,7.5c2.9,2.9,5.8,5.7,8.7,8.6c2.4,2.3,4.7,4.7,7.1,7c3,2.9,6,5.9,8.9,8.8
		c0.3,0.3,0.8,0.6,1.3,1c0-21.9,0-43.6,0-65.3c8.1,0,16,0,24.1,0C189.7,302.8,189.7,341.8,189.7,381z"/>
	<path class="st1" d="M297.2,263.5c0.4,0,0.8,0,1.2,0c15.1,0,30.2,0,45.3,0c5.5,0,10.7,1,15.8,3.4c2.8,1.3,5.3,3,7.8,4.9
		c3.7,2.8,6.4,6.3,8.6,10.3c5.9,10.4,5.9,21.2,1,31.9c-1.9,4.2-4.7,8-8.4,11c-2.8,2.3-5.8,4.6-9.3,5.9c0.9,1.9,1.8,3.7,2.7,5.5
		c1.8,3.8,3.5,7.7,5.3,11.5c2.9,6.1,5.8,12.2,8.7,18.3c2.2,4.6,4.4,9.1,6.6,13.7c0.2,0.3,0.3,0.6,0.5,1.1c-0.5,0-0.8,0-1.2,0
		c-7.8,0-15.6,0-23.3,0c-0.8,0-1.2-0.2-1.5-1c-1.3-3-2.7-6-4.1-8.9c-2.9-6-5.7-12-8.6-18c-2.7-5.5-5.2-11.2-8.1-16.6
		c-1.1-2-1.3-3.9-1.3-6.1c0-6.2,0-12.4,0-18.6c0-0.4,0-0.8,0-1.3c1.6,0,3.2,0,4.8,0c2.1,0,4.3,0.1,6.4-0.2c4.6-0.7,8.1-3.2,9.6-7.7
		c1.5-4.6,0.5-8.8-2.9-12.2c-2.1-2.1-4.9-3.4-8-3.4c-7.6,0-15.2,0-22.8,0c-0.2,0-0.3,0-0.6,0.1c0,31.2,0,62.4,0,93.6c-8,0-16,0-24,0
		C297.2,341.7,297.2,302.7,297.2,263.5z"/>
	<path class="st1" d="M283.8,357.5c0,7.9,0,15.6,0,23.4c-26.5,0-53.1,0-79.7,0c0-39,0-78,0-117.1c26.7,0,53.4,0,80.2,0
		c0,7.8,0,15.5,0,23.4c-18.7,0-37.4,0-56.1,0c0,7.2,0,14.4,0,21.6c14,0,28.1,0,42.2,0c0,7.9,0,15.6,0,23.5c-14,0-28.1,0-42.2,0
		c0,8.4,0,16.8,0,25.2C246.7,357.5,265.2,357.5,283.8,357.5z"/>
	<path class="st1" d="M391,381.2c0-39.1,0-78.2,0-117.3c0.4,0,0.8,0,1.2,0c10.8,0,21.6,0,32.3,0c5.3,0,10.4,1.3,15.2,3.6
		c3.3,1.6,6.2,3.8,8.9,6.3c3.9,3.6,6.4,8,8.4,12.8c2.9,7.1,2.9,14.2,0.7,21.4c-0.9,2.9-2.6,5.5-3.9,8.2c-0.2,0.4-0.5,0.8-0.8,1.3
		c2.8,2.4,5.7,4.7,7.6,7.8c1.4,2.4,2.8,4.8,4,7.3c3.4,7.6,3.6,15.4,1.2,23.2c-1.6,5.1-4.1,9.9-7.9,13.7
		c-7.3,7.5-16.2,11.5-26.8,11.6c-13.1,0.1-26.1,0-39.2,0C391.7,381.2,391.4,381.2,391,381.2z M413,361.1c6.2,0,12.3,0.1,18.4,0
		c4.3-0.1,7.8-2,10.6-5.1c5.3-6,3.8-14.9-1.4-19.1c-3.1-2.5-6.4-3.9-10.4-3.9c-5.4,0-10.7,0-16.1,0c-0.4,0-0.8,0-1.2,0
		C413,342.4,413,351.7,413,361.1z M412.5,310.1c4,0,7.9,0.1,11.7,0c3.9-0.2,7.1-2.1,9.5-5c5.9-7,3.5-18.2-7.4-21.2
		c-4.6-0.2-9.2-0.4-13.9-0.6C412.5,292.4,412.5,301.2,412.5,310.1z"/>
	<path class="st3" d="M464.6,380.9c0.7-1.2,1.4-2.3,2-3.4c2.2-4.2,4.3-8.4,6.5-12.6c2.8-5.4,5.6-10.7,8.4-16.1
		c2.6-5,5.3-10.1,7.9-15.1c2.8-5.3,5.6-10.7,8.4-16c2.7-5.1,5.3-10.2,8-15.3c2.7-5.2,5.4-10.4,8.2-15.6c2.7-5.1,5.4-10.3,8.1-15.4
		c1.2-2.3,2.5-4.7,3.8-7c0.2-0.3,0.7-0.6,1.1-0.6c1.8-0.1,3.7,0,5.5,0c0.7,0,0.9,0.3,1.2,0.8c1.4,3.1,2.9,6.1,4.3,9.2
		c2.8,5.8,5.6,11.7,8.5,17.5c2.6,5.4,5.2,10.8,7.9,16.2c2.8,5.8,5.6,11.5,8.4,17.3c2.7,5.5,5.3,11,8,16.5c2.8,5.7,5.5,11.4,8.3,17.1
		c2.6,5.4,5.3,10.9,7.9,16.3c1,2.1,2.1,4.1,3.3,6.4c-0.6,0-0.9,0-1.3,0c-8.1,0-16.2,0-24.3,0c-1,0-1.6-0.4-2-1.3
		c-2.2-4.8-4.5-9.5-6.7-14.3c-2.9-6-5.8-12.1-8.7-18.1c-2.6-5.5-5.3-10.9-7.9-16.4c-2.8-5.8-5.6-11.6-8.4-17.4
		c-0.6-1.2-1.3-2.3-2-3.6c-1.9,3.8-3.8,7.6-5.8,11.3c-2.7,5.3-5.5,10.5-8.2,15.8c-2.7,5.1-5.4,10.3-8.1,15.4
		c-2.7,5.2-5.5,10.5-8.2,15.7c-2.1,4-4.2,8.1-6.4,12.1c-0.2,0.3-0.7,0.7-1,0.7c-8.7,0-17.4,0-26.1,0
		C464.9,381,464.8,380.9,464.6,380.9z"/>
	<path class="st2" d="M77.2,380.8c-8,0-15.9,0-24,0c0-39,0-78,0-117c8,0,15.9,0,24,0C77.2,302.8,77.2,341.7,77.2,380.8z"/>
	<path class="st4" d="M-3.5,427.9c1.8-4.1,3.6-8.2,5.5-12.2c0.9-2.1,2-4.1,3-6.2c0.1-0.2,0.5-0.5,0.8-0.5c0.7-0.1,1.4,0,2.2,0
		c0,9,0,17.9,0,26.9c-0.9,0-1.8,0-2.7,0c0-6.6,0-13.2,0-19.9c-0.1,0-0.1,0-0.2,0c-0.2,0.4-0.4,0.7-0.5,1.1
		c-2.2,4.7-4.4,9.3-6.6,13.9c-0.1,0.3-0.6,0.7-0.9,0.7c-0.7-0.1-1.7,0.5-2.2-0.6c-1.6-3.4-3.2-6.7-4.9-10.1c-0.8-1.7-1.6-3.4-2.5-5
		c0,6.6,0,13.2,0,19.9c-1,0-2,0-3,0c0-8.9,0-17.8,0-26.9c0.9,0,1.8-0.1,2.6,0c0.3,0,0.6,0.4,0.8,0.7c2.1,4.4,4.1,8.9,6.1,13.3
		C-5.3,424.6-4.4,426.1-3.5,427.9z"/>
	<path class="st4" d="M260.7,435.9c-0.8,0-1.6,0.1-2.3,0c-0.3,0-0.6-0.3-0.8-0.6c-3.5-5.1-7-10.3-10.5-15.5
		c-1.2-1.7-2.5-3.4-3.8-5.3c0,7.2,0,14.2,0,21.2c-1,0-1.9,0-2.9,0c0-8.9,0-17.8,0-26.8c0.8,0,1.6,0,2.4,0c0.2,0,0.5,0.3,0.7,0.6
		c3.3,4.8,6.6,9.7,9.9,14.5c1.4,2,2.9,4,4.4,6.1c0-7.1,0-14.1,0-21.1c1,0,1.9,0,2.9,0C260.7,418,260.7,426.9,260.7,435.9z"/>
	<path class="st4" d="M56.5,414.5c0,7.2,0,14.2,0,21.3c-1,0-1.8,0-2.8,0c0-8.9,0-17.8,0-26.9c0.7,0,1.5-0.1,2.3,0
		c0.3,0,0.6,0.3,0.8,0.6c3.4,5,6.9,10.1,10.3,15.1c1.3,1.8,2.6,3.6,4,5.5c0-7.1,0-14.1,0-21.1c1,0,1.9,0,2.8,0c0,8.9,0,17.8,0,26.9
		c-0.7,0-1.5,0.1-2.3,0c-0.3,0-0.6-0.3-0.8-0.6c-3.6-5.2-7.1-10.4-10.7-15.6C59.1,417.9,57.8,416.3,56.5,414.5z"/>
	<path class="st4" d="M353.5,423.9c0,4,0,7.9,0,11.9c-1,0-2,0-3,0c0-8.9,0-17.8,0-26.9c2.9,0,5.7,0,8.5,0c1.4,0,2.8-0.1,4.2,0.2
		c5.4,1.1,7.5,5.9,5.4,10.7c-0.7,1.7-2.3,2.8-4,3.4c-0.4,0.1-0.7,0.3-1.3,0.4c2.2,4,4.3,8,6.6,12.1c-1.2,0-2.2,0-3.2,0
		c-0.3,0-0.6-0.4-0.7-0.6c-1.8-3.5-3.6-6.9-5.3-10.4c-0.3-0.7-0.7-0.9-1.5-0.9C357.3,424,355.5,423.9,353.5,423.9z M353.6,421.3
		c2.7,0,5.4,0.1,8,0c2.8-0.1,4.6-1.9,4.7-4.7c0.1-2.8-1.5-4.8-4.3-5c-2.8-0.2-5.5,0-8.4,0C353.6,414.9,353.6,418.1,353.6,421.3z"/>
	<path class="st4" d="M455.3,423.9c2.1,3.9,4.3,7.9,6.6,12c-1.2,0-2.2,0-3.2,0c-0.2,0-0.5-0.3-0.6-0.5c-1.4-2.6-2.8-5.2-4.2-7.7
		c-0.4-0.7-0.9-1.4-1.1-2.2c-0.4-1.2-1.2-1.6-2.4-1.5c-1.6,0.1-3.2,0-5,0c0,4,0,7.9,0,11.9c-1,0-1.9,0-2.8,0c0-8.9,0-17.9,0-26.9
		c3.5,0,7-0.1,10.4,0c1.4,0,2.8,0.4,4.1,0.8c2.2,0.7,3.5,2.4,3.9,4.6c0.6,3,0.2,5.8-2.4,7.8C457.7,422.9,456.5,423.3,455.3,423.9z
		 M445.4,421.3c2.9,0,5.8,0.1,8.6-0.1c2-0.1,3.6-1.3,4.1-3.3c0.9-3.2-0.9-6-4.2-6.3c-2.8-0.3-5.6-0.1-8.5-0.1
		C445.4,414.9,445.4,418.1,445.4,421.3z"/>
	<path class="st5" d="M-47.4,422.3c0-1.8,0-3.7,0-5.5c0.1-4.6,4.9-7.8,8.6-8.1c3.8-0.3,7,1.1,9.3,4.1c0.9,1.2,1.3,2.9,1.4,4.5
		c0.2,3.6,0,7.2,0,10.8c-0.1,4.6-5.1,7.8-8.8,8c-3.9,0.2-7.1-1.3-9.2-4.4c-0.9-1.3-1.1-3.1-1.3-4.7c-0.2-1.5,0-3.1,0-4.7
		C-47.5,422.3-47.4,422.3-47.4,422.3z M-31,422.5c-0.1,0-0.2,0-0.3,0c0-1.7,0-3.4,0-5.1c0-0.4-0.1-0.8-0.2-1.2
		c-0.6-2.9-3.1-4.9-6.3-4.9c-3.2,0-5.8,2-6.3,4.9c-0.6,4.1-0.6,8.3,0,12.4c0.4,2.9,3.1,4.9,6.3,4.9c3.2,0,5.8-2,6.3-4.9
		C-31.2,426.6-31.2,424.5-31,422.5z"/>
	<path class="st5" d="M337.9,422.5c0,1.9,0,3.8,0,5.6c-0.1,4.7-4.9,7.7-8.7,8c-4.5,0.3-7.9-1.6-10-5.6c-0.5-0.9-0.6-2-0.6-2.9
		c0-3.6-0.1-7.2,0.1-10.8c0.2-4.5,4.8-7.9,8.9-8c3.3-0.1,6.1,1,8.4,3.3c1.6,1.6,1.9,3.7,2,5.8c0.1,1.6,0,3.1,0,4.7
		C338,422.5,337.9,422.5,337.9,422.5z M335.1,422.5c-0.2-2.1-0.2-4.2-0.5-6.3c-0.4-2.9-3.1-4.9-6.2-4.9c-3.3,0-5.9,1.9-6.4,4.9
		c-0.6,4.1-0.6,8.3,0,12.4c0.5,3,3.1,4.9,6.4,4.9c3.1,0,5.7-2,6.1-4.9C334.9,426.6,334.9,424.5,335.1,422.5z"/>
	<path class="st5" d="M227.9,422.5c-0.1,2.2-0.1,4.4-0.4,6.6c-0.6,3.9-4,6.7-8.3,7c-3.2,0.2-6.1-0.5-8.5-3c-1.5-1.6-2.1-3.5-2.2-5.5
		c-0.1-3.6-0.1-7.2,0.1-10.8c0.2-4.8,4.1-7.7,8.7-8c3.1-0.2,5.8,0.6,8.1,2.9c1.7,1.7,2.2,3.9,2.3,6.1c0.1,1.6,0,3.1,0,4.7
		C227.8,422.5,227.8,422.5,227.9,422.5z M225,422.5c-0.1,0-0.2,0-0.2,0c0-1.7,0.1-3.3,0-5c-0.1-2.7-1.4-4.5-4-5.6
		c-3.4-1.5-8.9,0.5-9.1,4.9c-0.2,3.8-0.1,7.6,0,11.3c0.1,2.4,1.7,3.9,3.8,4.9c3.3,1.5,8.7-0.4,9.1-4.8
		C224.8,426.3,224.8,424.4,225,422.5z"/>
	<path class="st5" d="M429.8,422.5c0,1.8,0.1,3.7,0,5.5c-0.3,4.8-4,7.6-8.6,8c-3.2,0.3-6-0.5-8.3-2.9c-1.2-1.2-2-2.7-2-4.3
		c-0.1-4-0.2-8-0.1-12c0.1-4.5,3.8-7.7,8.5-8c3.2-0.2,6,0.6,8.3,2.9c1.7,1.7,2.2,3.9,2.3,6.1c0.1,1.6,0,3.1,0,4.7
		C429.8,422.5,429.8,422.5,429.8,422.5z M427.1,422.5c-0.1,0-0.2,0-0.2,0c0-1.7,0.1-3.3,0-5c-0.1-2-0.9-3.6-2.6-4.9
		c-3.6-2.7-10.1-0.9-10.4,4.2c-0.2,3.7-0.2,7.5,0,11.2c0.1,2.7,1.9,4.3,4.4,5.2c3.3,1.2,8.3-1,8.6-5.1
		C426.9,426.2,427,424.4,427.1,422.5z"/>
	<path class="st5" d="M150.1,435.8c-0.7-1.8-1.5-3.5-2.1-5.3c-0.2-0.5-0.4-0.7-1-0.7c-3.7,0-7.4,0-11.2,0c-0.6,1.7-1.3,3.5-1.8,5.2
		c-0.2,0.7-0.5,0.9-1.2,0.9c-0.8-0.1-1.6,0-2.5,0c1.2-3,2.4-5.9,3.5-8.8c2.2-5.7,4.3-11.5,6.3-17.3c0.3-0.8,0.7-1,1.4-0.9
		c0.7,0.1,1.6-0.4,2,0.8c1.6,4.6,3.3,9.2,5,13.8c1.4,3.8,2.9,7.6,4.4,11.5c0.1,0.2,0.1,0.4,0.2,0.7
		C152.1,435.8,151.1,435.8,150.1,435.8z M141.9,413.1c-1.8,4.9-3.5,9.5-5.2,14.1c3.5,0,6.8,0,10.2,0
		C145.2,422.5,143.6,418,141.9,413.1z"/>
	<path class="st5" d="M492.7,435.8c-1.1,0-2.1,0-3.3,0c-0.6-1.7-1.3-3.5-1.9-5.3c-0.2-0.5-0.4-0.7-1-0.7c-3.7,0-7.4,0-11.2,0
		c-0.3,0.8-0.5,1.5-0.8,2.3c-0.5,1.1-0.9,2.2-1.4,3.3c-0.1,0.2-0.4,0.4-0.7,0.4c-0.8,0.1-1.6,0-2.6,0c1.2-3.3,2.4-6.5,3.6-9.7
		c1.8-4.7,3.6-9.5,5.4-14.2c0.2-0.5,0.5-1.1,0.6-1.6c0.3-1.1,0.9-1.5,2-1.5c0.9,0,1.4,0.3,1.7,1.2c2,5.7,4.1,11.4,6.3,17.1
		c1,2.6,2.1,5.3,3.1,7.9C492.6,435.3,492.6,435.5,492.7,435.8z M476.3,427.2c3.4,0,6.7,0,10.2,0c-1.7-4.7-3.3-9.3-5-13.9
		c-0.1,0-0.2,0.1-0.3,0.1C479.5,418,477.9,422.6,476.3,427.2z"/>
	<path class="st5" d="M588.4,435.9c-1.3,0-2.3,0-3.4,0c-0.6-1.7-1.2-3.4-1.8-5.1c-0.2-0.7-0.5-1-1.3-0.9c-3.7,0.1-7.4,0-11.2,0
		c-0.6,1.7-1.3,3.4-1.8,5.1c-0.2,0.7-0.6,1-1.4,1c-0.6-0.1-1.3,0-2.1,0c0.2-0.7,0.4-1.2,0.7-1.8c1.5-4,2.9-8.1,4.5-12.1
		c1.5-4.1,3.2-8.2,4.7-12.3c0.3-0.7,0.6-0.9,1.3-0.8c0.7,0.1,1.4-0.4,1.8,0.8c2.8,7.6,5.7,15.2,8.5,22.7
		C587.3,433.5,587.8,434.6,588.4,435.9z M576.8,413.3c-1.7,4.7-3.3,9.3-5,14c3.5,0,6.8,0,10.2,0C580.3,422.6,578.5,418,576.8,413.3z
		"/>
	<path class="st4" d="M381.5,435.8c0-9,0-17.9,0-26.7c4.1,0,8.1-0.3,12.1,0.1c4.6,0.5,6.9,4,6.5,8.8c-0.3,3.9-3.6,6.7-7.8,6.7
		c-2.5,0-5.1,0-7.7,0c0,3.7,0,7.3,0,11C383.5,435.8,382.5,435.8,381.5,435.8z M384.6,422c2.9,0,5.8,0.1,8.7,0
		c1.7-0.1,2.9-1.2,3.6-2.8c1.6-3.9-0.7-7.5-5-7.6c-2.2,0-4.5,0-6.7,0c-0.2,0-0.4,0.1-0.6,0.1C384.6,415.2,384.6,418.6,384.6,422z"/>
	<path class="st4" d="M40.6,409c0,1.6,0,3.1,0,4.7c0,4.4,0,8.8,0,13.1c0.1,5.1-3.2,8.9-9,9.2c-3.5,0.2-6.7-0.6-8.7-3.7
		c-0.8-1.3-1.5-2.9-1.6-4.4c-0.2-6.3-0.1-12.6-0.1-18.9c0.9,0,1.8,0,2.9,0c0,0.4,0,0.7,0,1.1c0,5.3,0,10.6,0,15.9
		c0,1.9,0.3,3.8,1.6,5.4c1.9,2.1,5.8,2.6,8.5,1.3c2.8-1.4,3.4-3.8,3.4-6.6c0-5.3,0-10.6,0-15.8c0-0.4,0-0.8,0-1.3
		C38.7,409,39.6,409,40.6,409z"/>
	<path class="st6" d="M181,416.7c-0.3,0-0.5,0-0.7,0c-1.5,0.2-2.4-0.1-3-1.8c-1-2.7-3.6-4-6.7-3.7c-2.7,0.3-4.7,2.1-5.4,4.8
		c-1,3.8-0.7,7.7-0.3,11.5c0.2,2.5,1.5,4.7,4.2,5.5c2.4,0.8,4.8,0.6,6.7-1.2c1.1-1,1.7-2.4,2.7-3.9c0.5,0,1.4,0,2.5,0
		c-0.4,2.6-1.5,4.7-3.6,6.3c-3.2,2.3-8.1,2.3-11.5,0.1c-2.4-1.5-3.8-3.6-3.9-6.4c-0.1-3.6-0.2-7.2-0.1-10.8c0.1-4.9,3.5-7.6,8-8.4
		c5.1-0.9,9.4,1.8,10.9,6.7C180.8,415.9,180.9,416.3,181,416.7z"/>
	<path class="st6" d="M-61.1,428.1c0.7,0,1.6,0,2.6,0c-0.6,3-1.9,5.3-4.6,6.8c-3.9,2.1-9.2,1.5-12.3-1.7c-1.2-1.3-2-2.8-2.1-4.5
		c-0.1-3.7-0.3-7.5-0.1-11.2c0.3-5.1,3-7.9,8.1-8.6c4.6-0.7,9.5,1.6,10.8,6.7c0.1,0.4,0.2,0.8,0.3,1.2c-1,0-2,0-2.8,0
		c-0.5-0.9-1-1.8-1.5-2.6c-2.5-3.8-8.6-3.8-10.9,0.2c-0.7,1.3-1,3-1,4.5c-0.1,3.2,0,6.5,0.2,9.7c0.2,2.5,1.9,4.1,4.3,4.7
		c2.7,0.7,5.1,0.3,7-1.9C-62.4,430.3-61.9,429.2-61.1,428.1z"/>
	<path class="st6" d="M307.8,416.7c-0.3,0-0.5,0-0.7,0c-1.4,0.2-2.4-0.1-3-1.8c-1.1-2.8-4.7-4.4-8-3.4c-2.5,0.8-4.2,2.4-4.4,5.1
		c-0.2,3.9-0.2,7.8,0.1,11.7c0.4,5,7,6.5,10.3,3.9c1.4-1.1,2.4-2.4,2.7-4.2c1,0,1.9,0,2.8,0c0,2.7-2.3,5.9-4.7,6.9
		c-2.5,1.1-5,1.3-7.7,0.7c-3.3-0.8-6.2-3.5-6.4-6.9c-0.3-3.8-0.2-7.7-0.2-11.6c0.1-4.6,3.4-7.8,8-8.4c4.8-0.6,9.5,1.5,10.9,6.7
		C307.6,415.9,307.7,416.3,307.8,416.7z"/>
	<path class="st6" d="M122.1,416.7c-1,0-2,0-2.9,0c-0.1-0.3-0.2-0.7-0.3-1c-1.2-3.9-5.7-5.2-8.9-3.9c-2.2,0.9-3.7,2.4-3.8,4.8
		c-0.1,3.9-0.2,7.7,0,11.6c0.2,4.5,5.9,6.3,9.3,4.7c2.1-1,3.2-2.7,3.8-4.8c0.9,0,1.8,0,2.7,0c0,2.9-2.5,6.3-5.4,7.3
		c-2.9,1-5.8,1-8.5-0.3c-2.5-1.1-4.3-3-4.7-5.8c-0.7-4.6-0.7-9.2,0-13.8c0.6-3.6,3.1-5.6,6.5-6.4c5-1.3,10.5,0.6,12,6.4
		C122,415.9,122,416.3,122.1,416.7z"/>
	<path class="st5" d="M539.8,409c1.2,0,2.1,0,3.1,0c2.4,7.1,4.8,14.3,7.3,21.5c0.8-2.3,1.5-4.6,2.2-6.8c0.8-2.3,1.5-4.7,2.2-7
		c0.8-2.4,1.7-4.8,2.6-7.2c0.1-0.2,0.5-0.5,0.7-0.5c0.8-0.1,1.6,0,2.5,0c-0.5,1.6-1,3.2-1.5,4.7c-1.1,3.5-2.3,6.9-3.4,10.4
		c-1.3,3.7-2.6,7.5-3.9,11.2c-0.1,0.3-0.5,0.6-0.8,0.6c-0.6,0.1-1.2,0-1.9,0C545.8,427,542.8,418,539.8,409z"/>
	<path class="st7" d="M497.3,409c6.4,0,12.7,0,19,0c0,0.8,0,1.7,0,2.5c-2.6,0-5.2,0-7.9,0c0,8.1,0,16.2,0,24.3c-1.1,0-2,0-3.1,0
		c0-8,0-16.1,0-24.2c-2.7,0-5.3,0-8,0C497.3,410.7,497.3,409.9,497.3,409z"/>
	<path class="st7" d="M527.2,409c0.9,0,1.8,0,2.7,0c0,8.9,0,17.9,0,26.8c-0.9,0-1.8,0-2.7,0C527.2,426.9,527.2,418,527.2,409z"/>
	<path class="st7" d="M193.3,409c0.9,0,1.8,0,2.7,0c0,8.9,0,17.8,0,26.8c-0.8,0-1.7,0-2.7,0C193.3,426.9,193.3,418,193.3,409z"/>
	<path class="st7" d="M90.5,435.8c-0.9,0-1.8,0-2.7,0c0-8.9,0-17.9,0-26.8c0.9,0,1.8,0,2.7,0C90.5,417.9,90.5,426.8,90.5,435.8z"/>
	<path class="st5" d="M223.1,400.5c-1.4,2-2.7,3.8-4.1,5.6c-0.2,0.3-0.9,0.2-1.4,0.3c-0.4,0-0.8,0-1.4,0c1.1-1.9,2.1-3.8,3.2-5.6
		c0.1-0.2,0.5-0.2,0.7-0.3C221.1,400.5,222,400.5,223.1,400.5z"/>
	<path class="st8" d="M413,361.1c0-9.4,0-18.8,0-28.2c0.4,0,0.8,0,1.2,0c5.4,0,10.7,0,16.1,0c4,0,7.3,1.4,10.4,3.9
		c5.1,4.2,6.6,13.2,1.4,19.1c-2.8,3.1-6.3,5.1-10.6,5.1C425.3,361.2,419.2,361.1,413,361.1z"/>
	<path class="st9" d="M412.5,310.1c0-8.9,0-17.8,0-26.9c4.7,0.2,9.3,0.4,13.9,0.6c10.9,3,13.3,14.2,7.4,21.2c-2.4,2.9-5.6,4.8-9.5,5
		C420.3,310.3,416.5,310.1,412.5,310.1z"/>
	<path class="st10" d="M353.6,421.3c0-3.3,0-6.5,0-9.7c2.8,0,5.6-0.1,8.4,0c2.8,0.2,4.4,2.2,4.3,5c-0.1,2.7-1.8,4.6-4.7,4.7
		C358.9,421.4,356.3,421.3,353.6,421.3z"/>
	<path class="st10" d="M445.4,421.3c0-3.2,0-6.4,0-9.7c2.9,0,5.7-0.2,8.5,0.1c3.3,0.3,5.1,3.1,4.2,6.3c-0.6,2-2.1,3.1-4.1,3.3
		C451.2,421.4,448.3,421.3,445.4,421.3z"/>
	<path class="st11" d="M-31,422.5c-0.2,2-0.2,4.1-0.5,6.1c-0.5,2.9-3.1,4.9-6.3,4.9c-3.2,0-5.8-1.9-6.3-4.9c-0.6-4.1-0.6-8.3,0-12.4
		c0.4-2.9,3.1-4.9,6.3-4.9c3.2,0,5.7,2,6.3,4.9c0.1,0.4,0.2,0.8,0.2,1.2c0,1.7,0,3.4,0,5.1C-31.2,422.5-31.1,422.5-31,422.5z"/>
	<path class="st11" d="M335.1,422.5c-0.2,2-0.2,4.1-0.5,6.1c-0.4,2.9-3.1,4.9-6.1,4.9c-3.3,0-5.9-1.9-6.4-4.9
		c-0.6-4.1-0.6-8.3,0-12.4c0.4-3,3.1-4.9,6.4-4.9c3.1,0,5.7,2,6.2,4.9C334.9,418.3,334.9,420.4,335.1,422.5z"/>
	<path class="st11" d="M225,422.5c-0.1,1.9-0.2,3.8-0.4,5.7c-0.4,4.4-5.8,6.3-9.1,4.8c-2.2-1-3.8-2.5-3.8-4.9
		c-0.1-3.8-0.2-7.6,0-11.3c0.2-4.3,5.7-6.3,9.1-4.9c2.5,1.1,3.8,3,4,5.6c0.1,1.7,0,3.3,0,5C224.8,422.5,224.9,422.5,225,422.5z"/>
	<path class="st11" d="M427.1,422.5c-0.1,1.9-0.2,3.7-0.3,5.6c-0.3,4.1-5.3,6.2-8.6,5.1c-2.5-0.9-4.3-2.5-4.4-5.2
		c-0.2-3.7-0.2-7.5,0-11.2c0.3-5,6.8-6.8,10.4-4.2c1.8,1.3,2.5,2.9,2.6,4.9c0.1,1.7,0,3.3,0,5C426.9,422.5,427,422.5,427.1,422.5z"
		/>
	<path class="st12" d="M141.9,413.1c1.7,4.9,3.3,9.5,5,14.1c-3.4,0-6.7,0-10.2,0C138.4,422.5,140.1,417.9,141.9,413.1z"/>
	<path class="st12" d="M476.3,427.2c1.7-4.7,3.3-9.2,4.9-13.8c0.1,0,0.2-0.1,0.3-0.1c1.6,4.6,3.3,9.2,5,13.9
		C483,427.2,479.7,427.2,476.3,427.2z"/>
	<path class="st12" d="M576.8,413.3c1.8,4.8,3.5,9.3,5.2,14c-3.5,0-6.7,0-10.2,0C573.4,422.6,575.1,418,576.8,413.3z"/>
	<path class="st12" d="M384.6,422c0-3.4,0-6.8,0-10.3c0.2,0,0.4-0.1,0.6-0.1c2.2,0,4.5,0,6.7,0c4.2,0.1,6.6,3.7,5,7.6
		c-0.7,1.6-1.9,2.7-3.6,2.8C390.4,422.1,387.5,422,384.6,422z"/>
</g>
</svg>
