<?xml version="1.0" encoding="utf-8"?>
<!-- Generator: Adobe Illustrator 22.0.1, SVG Export Plug-In . SVG Version: 6.00 Build 0)  -->
<svg version="1.1" id="Capa_1" xmlns="http://www.w3.org/2000/svg" xmlns:xlink="http://www.w3.org/1999/xlink" x="0px" y="0px"
	 width="47" height="47px" viewBox="0 0 566.9 566.9"  xml:space="preserve">
<style type="text/css">
	.st0{fill:transparent;}
	.st1{fill:#d3d4d5;}
	.st2{fill:#d3d4d5;}
	.st3{fill:transparent;}
	.st4{fill:transparent;}
	.st5{fill:transparent;}
	.st6{fill:#d3d4d5;}
</style>
<g>
	<g>
		<path class="st0" d="M-53.9-13.1c209.1,0,417.7,0,626.8,0c0,184.9,0,369.2,0,554.1c-209.1,0-417.7,0-626.8,0
			C-53.9,356.1-53.9,171.8-53.9-13.1z M290.8,477.9c16.3-25.2,33.8-42.8,38.6-63.1c15.1-57.1,59.7-92.7,101.3-131.7
			c4.2-3.8,8.4-7.7,12.7-11.5c60.9-62,92.2-136.1,104.3-217.3c4.8-31.8-2.4-36.8-38-34c-6,0.5-12.1,1.6-17.5,2.7
			C372.2,40.7,280,99.9,200.4,179.5c-10.2,9.9-25.3,16.5-39.2,22.5c-36.2,15.9-72.3,31.3-109.1,46.6c1.2,2.7,1.8,5.5,3,8.2
			c15.7,4.4,31.3,9.3,47.6,13.7c23.5,6.6,38,16.5,36.8,43.9c-1.2,36.2,40.4,77.9,80.2,76.8c41.6-1.1,50,20.8,59.1,47.7
			C282.4,448.8,285.4,459.3,290.8,477.9z M245.6,420.9c-82-12.6-126-50.5-136.2-125.6c-31.3,71.9-60.3,137.2-91,207.9
			C95.6,474.6,166.7,449.4,245.6,420.9z"/>
		<path class="st1" d="M290.8,477.9c-5.4-18.7-8.4-29.1-12.1-39.5c-9-26.9-17.5-48.8-59.1-47.7c-39.8,1.1-80.8-41.1-80.2-76.8
			c0.6-27.4-13.3-37.3-36.8-43.9c-15.7-4.4-31.9-9.3-47.6-13.7c-1.2-2.7-1.8-5.5-3-8.2c36.2-15.4,72.9-30.2,109.1-46.6
			c13.9-6,28.9-12.6,39.2-22.5C280,99.4,372.2,40.1,492.1,22.6c6-1.1,12.1-2.2,17.5-2.7c35.6-2.7,42.8,2.2,38,34
			c-12.7,81.2-43.4,155.3-104.3,217.3c-4.2,3.8-8.4,7.7-12.7,11.5c-41.6,39-86.8,74.6-101.3,131.7
			C324,435.1,307.1,452.7,290.8,477.9z M351.1,322.7c97-72.4,160.3-162.4,173-280.9c-131.4,13.2-230.2,71.3-308.6,158.5
			C261.3,240.9,305.9,281.5,351.1,322.7z M301.1,422c10.2-23.6,19.9-44.4,27.1-65.8c2.4-6.6-1.8-18.1-7.2-23
			c-38-36.2-77.1-71.3-116.9-106.4c-5.4-4.4-16.3-7.7-22.9-6c-24.1,6.6-47.6,15.4-75.3,25.2c15.1,7.1,27.1,9.3,33.8,16.5
			c9.6,9.3,21.7,21.9,22.3,33.5c1.8,47.7,31.3,74.1,84.4,75.7c11.5,0.5,24.7,8.8,33.1,16.5C288.4,396.2,292.6,408.2,301.1,422z"/>
		<path class="st2" d="M245.6,420.9c-79,28.5-150.1,54.3-227.2,82.3c31.3-70.8,59.7-136.1,91-207.9
			C119.7,369.8,163.7,407.7,245.6,420.9z M101.6,373.1c-10.8,25.2-23.5,54.9-38,90c39.2-14.3,71.1-26.3,97.6-35.7
			C141.4,409.3,121.5,391.2,101.6,373.1z"/>
		<path class="st3" d="M351.1,322.7c-45.2-41.1-89.8-81.7-135-122.9c78.4-87.2,177.2-145.4,308.6-158.5
			C511.4,160.8,448.2,250.8,351.1,322.7z M414.4,174c20.5-1.6,36.2-10.4,38-31.3c1.8-20.8-12.1-32.9-33.1-34.6
			c-22.3-1.6-36.2,10.4-38,30.2C378.8,158.6,392.7,169.6,414.4,174z"/>
		<path class="st4" d="M301.1,422c-8.4-14.3-12.7-26.3-21.1-34c-8.4-7.7-21.7-16.5-33.1-16.5c-53.6-1.1-82.6-28-84.4-75.7
			c-0.6-11.5-12.7-24.1-22.3-33.5c-7.2-7.1-18.7-9.3-33.8-16.5c27.7-9.3,51.2-18.7,75.3-25.2c6.6-1.6,17.5,1.6,22.9,6
			c39.8,34.6,78.4,70.2,116.9,106.4c5.4,5.5,9,16.5,7.2,23C321.6,377.5,311.3,398.4,301.1,422z"/>
		<path class="st5" d="M101.6,373.1c19.9,18.7,39.8,36.2,59.1,54.3c-25.9,9.9-57.9,21.4-97.6,35.7C78.1,428,90.7,398.4,101.6,373.1z
			"/>
		<path class="st6" d="M414.4,174c-21.7-4.4-35.6-15.4-33.8-35.7c1.8-19.8,15.7-31.8,38-30.2c21.1,1.6,35,13.7,33.1,34.6
			C450.6,163.6,434.9,171.8,414.4,174z"/>
	</g>
</g>
</svg>
