<?xml version="1.0" encoding="utf-8"?>
<!-- Generator: Adobe Illustrator 22.0.1, SVG Export Plug-In . SVG Version: 6.00 Build 0)  -->
<svg version="1.1" id="Capa_1" xmlns="http://www.w3.org/2000/svg" xmlns:xlink="http://www.w3.org/1999/xlink" x="0px" y="0px"
	 viewBox="0 0 960 540" style="enable-background:new 0 0 960 540;" xml:space="preserve">
<style type="text/css">	

    @import url('https://fonts.googleapis.com/css?family=Lato:300,400,700%7COpen+Sans:400,300,700');
		
	.st0{fill:#3E73B9;}
	.st1{enable-background:new    ;}
	.st2{fill:#1D1D1B;}
	.st3{fill:#FFFFFF;}
	.st4{fill:#ADA9A8;}
	.st5{fill:#E7E5E6;}
	.st6{fill:#D7D8D7;}
	.st7{font-family:'Lato-Regular';}
	.st8{font-size:27px;}
	.st9{font-family:'Lato-Bold';}
	.st10{font-size:18px;}
</style>
<g>
	<path class="st0" d="M431.1,207.3c0,0.4,0,0.7,0,1.1c0,8.7,2.4,16.9,6.5,23.9l-0.1-0.1l-10.7,16.9l9.4,10.2l18.1-10.3l-0.1-0.1
		c6.7,3.9,14.6,6.2,22.9,6.2c0.2,0,0.4,0,0.5,0l0,0l10,18.6l13.1-3.4l-0.6-21.5c1.2-0.7,2.5-1.5,3.6-2.4l-0.3,0.3h11.1v-11.2
		l-0.1,0.1c0.8-1.1,1.6-2.3,2.3-3.6v0.1h20.8L541,219l-17.9-9.9v0.1c0-0.3,0-0.6,0-0.9c0-9.1-2.6-17.7-7.1-24.9l0.2,0.2l10.4-16.8
		l-9.1-9.8l-16.9,11.1c-6.9-4.1-14.9-6.5-23.5-6.5c-0.4,0-0.8,0-1.2,0h0.1l-9.5-19l-13.2,3.6l0.8,21.6l0.2-0.1
		c-1,0.6-1.9,1.1-2.8,1.8h-11.7V181c-1,1.3-1.8,2.7-2.7,4.2l0.2-0.6l-21.2-1l-3.3,13.2L431.1,207.3L431.1,207.3z"/>
	<path class="st0" d="M446.4,337.5l19.7,4.6l5.2-13.9L455,315.9c0,0,0,0,0-0.1c1.3-9.2-0.1-18.3-3.6-26.3l12.9-15.7l-7.8-11.3
		l-18.6,8.9c-6.3-5.3-14.1-8.8-22.7-10c-0.4-0.1-0.8-0.1-1.2-0.2h0.1l-6.9-20.7l-13.9,1.7l-2.1,22.2h0.1
		c-7.8,3.2-14.6,8.5-19.7,15.3l0.2-0.6l-21.2-4.1l-5.2,13l16.8,13.2l0.1-0.4c0,0.5-0.2,1-0.2,1.5c-1.2,8.5,0,16.8,2.8,24.3
		l-12.8,16.6l8,11.7l18.6-8.7c6.4,5.5,14.3,9.2,23.2,10.4c0.2,0,0.3,0.1,0.5,0l7.5,20.3l13.5-1.6l2.4-21.8
		C434.1,350.4,441.2,344.8,446.4,337.5z"/>
	<path class="st0" d="M605.4,415.7c4.3-8.8,6.9-18.5,7.5-28.9c0.1-1.1,0.1-2.1,0.1-3.2l0.1,1.1l18-5.6l-1.1-14.3l-19-1.2l0.1,1.1
		c-2.5-11.2-7.5-21.5-14.4-30.2l0.5,0.4l10.2-16.1l-10.1-10.4l-15.1,11.9l0.6,0.5c-8.5-6.4-18.5-11-29.3-13.1l-1.5-19.6l-14.3-0.9
		l-4.7,19.3h0.1c-10.5,1-20.4,4-29.2,9.1l0.1-0.1l-13.8-13.8l-12.1,9.4l8.8,17.5l0.4-0.3c-7.4,7.6-13.3,16.7-17.1,26.9v-0.3
		l-19.4-1.2l-3.5,13.6l18.2,8.2l0.1-0.4c0,0.8-0.2,1.6-0.3,2.5c-0.6,9.9,0.6,19.4,3.5,28.2L453,418.3l6.3,13.1l18.9-5.9l-0.1-0.1
		c5.6,8.4,12.8,15.5,21.1,20.9l-4.4,20.1l13.5,5.8l10.6-16.9c4.9,1.4,10.1,2.3,15.4,2.7c5,0.3,9.8,0.1,14.6-0.6l8.3,17.8l13.9-3.9
		l-1.8-19.9h-0.1c9.3-4.3,17.6-10.6,24.4-18.3l0,0l17.5,7.7l8-12.6l-13.5-13.1L605.4,415.7z"/>
</g>
<title>Gráfico engranajes</title>
<g class="st1">
	<path class="st2" d="M115.1,31.3h1.4c0.3,0,0.5,0,0.6,0.1s0.2,0.2,0.4,0.4"/>
	<path class="st2" d="M129,31.3h2.4"/>
	<path class="st2" d="M186,56.3l-2.7-0.1l0,0"/>
	<path class="st2" d="M291.9,30.7h2.5"/>
	<path class="st2" d="M383.5,30.8h2.5"/>
	<path class="st2" d="M391.8,33.1c0-0.1,0.1-0.3,0.2-0.3c0.1-0.1,0.2-0.1,0.4-0.1h1.3"/>
	<path class="st2" d="M423.9,30.7h2.5"/>
	<path class="st2" d="M475.2,56.2h-2.5"/>
</g>
<g class="st1">
	<path class="st2" d="M534.8,52.5c-0.4,0.1-0.9,0.1-1.3,0.1"/>
	<path class="st2" d="M541.1,52.4H539"/>
	<path class="st2" d="M548.2,57.2h-3.4v-0.1h0 M551.8,52.7c-0.8,0-1.5-0.1-2.1-0.4"/>
	<path class="st2" d="M568.4,52.5c-0.5,0.1-1.1,0.1-1.6,0.1"/>
	<path class="st2" d="M579,52.3l-3.4,0.1l0,0"/>
	<path class="st2" d="M594.8,52.5c-0.5,0.1-1.1,0.1-1.6,0.1"/>
	<path class="st2" d="M605.4,52.4H602"/>
	<path class="st2" d="M614.4,52.3H611"/>
	<path class="st2" d="M623.5,31.6h3.5"/>
	<path class="st2" d="M627,52.4h-3.5"/>
	<path class="st2" d="M641.8,52.4c0,0,0.3,0,0.3,0h-1.6c-0.3,0-0.6,0-0.8-0.1"/>
</g>
<g class="st1">
	<path class="st2" d="M672.2,52.5c-0.5,0.1-1.1,0.1-1.6,0.1"/>
	<path class="st2" d="M680.1,52.3H677"/>
	<path class="st2" d="M691.5,52.3h-3.3"/>
	<path class="st2" d="M697.1,57.2h-3.5v-0.1h0 M700.7,52.7c-0.8,0-1.5-0.1-2.1-0.4"/>
	<path class="st2" d="M717.3,52.5c-0.5,0.1-1.1,0.1-1.6,0.1"/>
	<path class="st2" d="M731.5,52.3c-0.5,0.1-1,0.1-1.5,0.1"/>
</g>
<g class="st1">
	<path class="st3" d="M459.6,200v2.1h-6v16.5h-2.5v-16.5h-6V200H459.6z"/>
	<path class="st3" d="M461.9,218.6v-19.1h2.3v7.7c0.6-0.6,1.2-1.1,1.9-1.4c0.7-0.4,1.5-0.5,2.4-0.5c0.7,0,1.4,0.1,1.9,0.4
		s1,0.6,1.4,1s0.6,1,0.8,1.6c0.2,0.6,0.3,1.3,0.3,2v8.4h-2.3v-8.4c0-1-0.2-1.8-0.7-2.3c-0.5-0.6-1.2-0.8-2.1-0.8
		c-0.7,0-1.3,0.2-1.9,0.5s-1.1,0.8-1.6,1.3v9.7L461.9,218.6L461.9,218.6z"/>
	<path class="st3" d="M479.4,201.3c0,0.2,0,0.4-0.1,0.6c-0.1,0.2-0.2,0.4-0.4,0.5c-0.2,0.2-0.3,0.3-0.5,0.4s-0.4,0.1-0.6,0.1
		s-0.4,0-0.6-0.1s-0.4-0.2-0.5-0.4c-0.2-0.2-0.3-0.3-0.4-0.5s-0.1-0.4-0.1-0.6s0-0.4,0.1-0.6c0.1-0.2,0.2-0.4,0.4-0.5
		c0.2-0.2,0.3-0.3,0.5-0.4c0.2-0.1,0.4-0.1,0.6-0.1s0.4,0,0.6,0.1s0.4,0.2,0.5,0.4c0.2,0.2,0.3,0.3,0.4,0.5
		C479.4,200.8,479.4,201.1,479.4,201.3z M478.9,205.4v13.2h-2.3v-13.2H478.9z"/>
	<path class="st3" d="M483,218.6v-13.2h1.4c0.3,0,0.5,0.2,0.6,0.5l0.2,1.4c0.6-0.6,1.2-1.1,1.9-1.5c0.7-0.4,1.5-0.6,2.5-0.6
		c0.7,0,1.4,0.1,1.9,0.4c0.6,0.2,1,0.6,1.4,1s0.6,1,0.8,1.6s0.3,1.3,0.3,2v8.4h-2.3v-8.4c0-1-0.2-1.8-0.7-2.3
		c-0.5-0.6-1.2-0.8-2.1-0.8c-0.7,0-1.3,0.2-1.9,0.5s-1.1,0.8-1.6,1.3v9.7L483,218.6L483,218.6z"/>
	<path class="st3" d="M499.9,199.4v11.3h0.6c0.2,0,0.3,0,0.4-0.1s0.2-0.1,0.4-0.3l4.2-4.5c0.1-0.1,0.3-0.3,0.4-0.3
		c0.1-0.1,0.3-0.1,0.5-0.1h2.1l-4.8,5.2c-0.1,0.1-0.2,0.3-0.4,0.4c-0.1,0.1-0.2,0.2-0.4,0.3c0.2,0.1,0.3,0.2,0.4,0.4
		c0.1,0.1,0.2,0.3,0.4,0.5l5.1,6.5h-2.1c-0.2,0-0.4,0-0.5-0.1s-0.3-0.2-0.4-0.3l-4.3-5.4c-0.1-0.2-0.3-0.3-0.4-0.4
		c-0.1-0.1-0.3-0.1-0.6-0.1h-0.6v6.3h-2.3v-19.1h2.3L499.9,199.4L499.9,199.4z"/>
</g>
<g class="st1">
	<path class="st3" d="M386.8,311v7.8H384V298h6.1c1.3,0,2.5,0.2,3.4,0.5c1,0.3,1.8,0.7,2.4,1.3c0.6,0.6,1.1,1.2,1.4,2
		s0.5,1.7,0.5,2.7s-0.2,1.9-0.5,2.7c-0.3,0.8-0.8,1.5-1.5,2.1s-1.5,1-2.4,1.4c-1,0.3-2.1,0.5-3.3,0.5h-3.3L386.8,311L386.8,311z
		 M386.8,308.8h3.3c0.8,0,1.5-0.1,2.1-0.3c0.6-0.2,1.1-0.5,1.5-0.9s0.7-0.8,0.9-1.4c0.2-0.5,0.3-1.1,0.3-1.8c0-1.3-0.4-2.4-1.2-3.1
		c-0.8-0.7-2.1-1.1-3.7-1.1h-3.3v8.6L386.8,308.8L386.8,308.8z"/>
	<path class="st3" d="M403.9,297.5v21.4h-2.6v-21.4H403.9z"/>
	<path class="st3" d="M419.2,318.8h-1.1c-0.3,0-0.5,0-0.6-0.1c-0.2-0.1-0.3-0.2-0.3-0.5l-0.3-1.4c-0.4,0.3-0.8,0.7-1.1,0.9
		c-0.4,0.3-0.8,0.5-1.2,0.7c-0.4,0.2-0.8,0.3-1.3,0.4s-1,0.1-1.5,0.1c-0.6,0-1.1-0.1-1.6-0.2c-0.5-0.2-0.9-0.4-1.3-0.7
		c-0.4-0.3-0.7-0.7-0.9-1.2c-0.2-0.5-0.3-1.1-0.3-1.7s0.2-1.1,0.5-1.7s0.8-1,1.5-1.4s1.6-0.8,2.8-1s2.6-0.4,4.2-0.4v-1.2
		c0-1.1-0.2-2-0.7-2.6s-1.2-0.9-2.2-0.9c-0.6,0-1.2,0.1-1.6,0.2c-0.4,0.2-0.8,0.3-1.1,0.5s-0.6,0.4-0.8,0.5
		c-0.2,0.2-0.5,0.2-0.7,0.2s-0.3,0-0.5-0.1s-0.2-0.2-0.3-0.3l-0.5-0.8c0.8-0.8,1.7-1.4,2.6-1.8s2-0.6,3.1-0.6c0.8,0,1.6,0.1,2.2,0.4
		s1.2,0.6,1.6,1.1s0.8,1.1,1,1.8c0.2,0.7,0.3,1.4,0.3,2.3L419.2,318.8L419.2,318.8z M412.5,317.2c0.5,0,0.9,0,1.2-0.1
		s0.7-0.2,1.1-0.4s0.7-0.4,1-0.6s0.6-0.5,0.9-0.8v-3c-1.2,0-2.2,0.1-3,0.2c-0.8,0.2-1.5,0.3-2,0.6c-0.5,0.2-0.9,0.5-1.1,0.9
		c-0.2,0.3-0.4,0.7-0.4,1.1s0.1,0.7,0.2,1s0.3,0.5,0.5,0.7s0.5,0.3,0.8,0.4C411.8,317.2,412.2,317.2,412.5,317.2z"/>
	<path class="st3" d="M423.1,318.8v-14.7h1.5c0.4,0,0.6,0.2,0.7,0.5l0.2,1.6c0.6-0.7,1.4-1.3,2.1-1.7c0.8-0.4,1.7-0.7,2.7-0.7
		c0.8,0,1.5,0.1,2.1,0.4s1.1,0.6,1.5,1.1s0.7,1.1,0.9,1.8c0.2,0.7,0.3,1.4,0.3,2.3v9.4h-2.6v-9.4c0-1.1-0.3-2-0.8-2.6
		s-1.3-0.9-2.3-0.9c-0.8,0-1.5,0.2-2.1,0.6s-1.3,0.9-1.8,1.5v10.8L423.1,318.8L423.1,318.8z"/>
</g>
<g class="st1">
	<path class="st3" d="M534.8,392.3h-2.6c-0.3,0-0.5-0.1-0.7-0.2s-0.3-0.3-0.4-0.6l-2.3-6.1h-11.3l-2.3,6.1c-0.1,0.2-0.2,0.4-0.4,0.6
		s-0.4,0.2-0.7,0.2h-2.6l10-25.1h3.4L534.8,392.3z M518.4,383h9.4l-3.9-10.2c-0.3-0.6-0.5-1.4-0.8-2.4c-0.1,0.5-0.3,0.9-0.4,1.3
		s-0.2,0.8-0.4,1.1L518.4,383z"/>
	<path class="st3" d="M549.6,377.7c-0.1,0.1-0.2,0.2-0.3,0.3c-0.1,0.1-0.2,0.1-0.4,0.1s-0.4-0.1-0.6-0.2c-0.2-0.1-0.5-0.3-0.8-0.5
		s-0.7-0.3-1.1-0.5c-0.4-0.1-1-0.2-1.7-0.2c-0.9,0-1.6,0.2-2.3,0.5s-1.2,0.8-1.7,1.3s-0.8,1.3-1,2.1c-0.2,0.8-0.3,1.8-0.3,2.8
		c0,1.1,0.1,2,0.4,2.9c0.2,0.8,0.6,1.5,1,2.1s1,1,1.6,1.3s1.4,0.4,2.1,0.4c0.8,0,1.4-0.1,1.9-0.3c0.5-0.2,0.9-0.4,1.2-0.6
		s0.6-0.4,0.8-0.6s0.4-0.3,0.6-0.3c0.3,0,0.5,0.1,0.6,0.3l0.9,1.1c-0.8,0.9-1.7,1.6-2.9,2.1c-1.2,0.4-2.4,0.7-3.7,0.7
		c-1.1,0-2.1-0.2-3.1-0.6s-1.8-1-2.5-1.8s-1.3-1.7-1.7-2.9s-0.6-2.4-0.6-3.9c0-1.3,0.2-2.5,0.6-3.7c0.4-1.1,0.9-2.1,1.6-2.9
		c0.7-0.8,1.6-1.4,2.6-1.9s2.2-0.7,3.6-0.7c1.2,0,2.3,0.2,3.3,0.6s1.8,1,2.5,1.7L549.6,377.7z"/>
	<path class="st3" d="M559.2,392.6c-1.4,0-2.5-0.4-3.2-1.2c-0.8-0.8-1.1-1.9-1.1-3.4v-10.9h-2.1c-0.2,0-0.3-0.1-0.5-0.2
		c-0.1-0.1-0.2-0.3-0.2-0.5v-1.2l2.9-0.4l0.7-5.5c0-0.2,0.1-0.3,0.2-0.4c0.1-0.1,0.3-0.2,0.5-0.2h1.6v6.1h5.1v2.3H558v10.6
		c0,0.7,0.2,1.3,0.5,1.7c0.4,0.4,0.8,0.5,1.4,0.5c0.3,0,0.6,0,0.8-0.1s0.4-0.2,0.6-0.3c0.2-0.1,0.3-0.2,0.4-0.3
		c0.1-0.1,0.2-0.1,0.3-0.1c0.2,0,0.3,0.1,0.4,0.3l0.9,1.5c-0.5,0.5-1.2,0.9-1.9,1.2C560.8,392.4,560,392.6,559.2,392.6z"/>
</g>
<path class="st4" d="M307.5,329.7c8.7,25.6,26.1,47.4,49,61.7c1.9,1.1,3.8,2.3,5.8,3.4l6,3l3.6,1.6l-3.9,8.9
	c7.5-2.4,14.6-5.5,21.5-9.4c-3.6-6.3-6.6-13-8.7-20l-3.8,8.9l-3.2-1.4l-5.3-2.7c-1.7-1-3.4-2-5.2-3c-20.5-12.7-35.9-32.2-43.7-55
	L307.5,329.7z"/>
<path class="st5" d="M421,132.6c-8.2,4-15.8,9.3-22.4,15.6c-6.7,6.3-12.3,13.7-16.6,21.7c-4.4,8.1-7.3,17-8.5,26.1
	c-0.6,4.6-0.8,9.2-0.6,13.8l0.2,3l-7.2,0.6c4.2,4.1,8.9,7.7,14,10.8c2.8-4.7,6.2-9,10-12.9l-7.2,0.6l-0.2-2.6c-0.2-4,0-8.1,0.5-12.1
	c1.1-8,3.6-15.8,7.5-22.9c7.9-14.4,20-26.1,34.8-33.3L421,132.6z"/>
<path class="st6" d="M542.2,277.9c5.6,0,11.2,0.4,16.8,1.1s11.1,1.8,16.5,3.3c5.4,1.4,10.7,3.3,15.8,5.5s10.1,4.8,14.8,7.8
	s9.1,6.3,13.3,10c4.1,3.7,7.9,7.8,11.3,12.1c1.7,2.1,3.3,4.5,4.8,6.7l2.2,3.5c0.7,1.2,1.3,2.4,2,3.6c2.6,4.9,4.7,10,6.5,15.3
	c1.7,5.3,3,10.7,3.8,16.2c0.2,1.4,0.4,2.8,0.5,4.1l0.3,2.1c0.1,0.7,0.1,1.4,0.2,2.1l0.3,4.2l0.1,4.2c0.1,11.1-1.6,22.2-5,32.8
	c-3.4,10.6-8.3,20.7-14.7,29.9l-2,2.8l-7.7-5.8c1.6,7.1,2.4,14.4,2.3,21.7c7.9,0.1,15.7-0.7,23.4-2.4l-7.7-5.9l2.3-3.2l0.3-0.4
	c0.1-0.2,0.2-0.3,0.3-0.5l0.6-1l1.3-2c0.9-1.3,1.7-2.6,2.5-4c1.6-2.7,3-5.4,4.5-8.2c2.7-5.6,5.1-11.4,7-17.3
	c3.8-11.9,5.7-24.3,5.5-36.7l-0.1-4.6l-0.3-4.6c-0.1-0.8-0.1-1.5-0.2-2.3l-0.3-2.3c-0.2-1.5-0.3-3.1-0.6-4.6
	c-1-6.2-2.4-12.2-4.3-18.2c-1.9-6-4.4-11.7-7.3-17.3c-0.8-1.4-1.5-2.8-2.3-4.1l-2.5-4c-1.8-2.6-3.5-5.2-5.5-7.7
	c-3.9-4.9-8.1-9.6-12.8-13.8c-4.7-4.2-9.7-7.9-15-11.3s-10.8-6.3-16.5-8.7c-5.7-2.5-11.6-4.5-17.6-6.1s-12.1-2.8-18.2-3.6
	c-6.1-0.7-12.3-1.1-18.5-1.2L542.2,277.9z"/>
<text transform="matrix(1 0 0 1 136.8333 52.9333)"><tspan x="0" y="0" class="st7 st8">Nos apasiona dar resultados que </tspan><tspan x="386" y="0" class="st9 st8">superen las expectativas</tspan></text>
<text transform="matrix(1 0 0 1 361.857 86.1753)" class="st7 st8">de nuestros clientes.</text>
<text transform="matrix(1 0 0 1 117.5713 175.3185)" class="st7 st10">Experiencia y entrenamiento.</text>
<text transform="matrix(1 0 0 1 85.7144 272.4611)" class="st7 st10">Compromiso y dedicación.</text>
<text transform="matrix(1 0 0 1 175.1431 397.6036)" class="st7 st10">Vocación por la</text>
<text transform="matrix(1 0 0 1 211.084 417.0323)" class="st7 st10">excelencia.</text>
<text transform="matrix(1 0 0 1 632.1426 195.3185)"><tspan x="0" y="0" class="st7 st10">Conocimiento del mundo de la</tspan><tspan x="0" y="21.6" class="st7 st10">comunicación desde todos los</tspan><tspan x="0" y="43.2" class="st7 st10">ángulos.</tspan></text>
<text transform="matrix(1 0 0 1 680.8574 334.6036)"><tspan x="0" y="0" class="st7 st10">Conocimiento único del</tspan><tspan x="0" y="21.6" class="st7 st10">espectro internacional.</tspan></text>
</svg>
