<?xml version="1.0" encoding="utf-8"?>
<!-- Generator: Adobe Illustrator 23.0.2, SVG Export Plug-In . SVG Version: 6.00 Build 0)  -->
<svg version="1.1" id="Capa_1" xmlns="http://www.w3.org/2000/svg" xmlns:xlink="http://www.w3.org/1999/xlink" x="0px" y="0px"
	 viewBox="0 0 120 45" style="enable-background:new 0 0 120 45;" xml:space="preserve">
<style type="text/css">
	.st0, .st1{fill:#fff;}
</style>
<g>
	<g>
		<path class="st1" d="M54.701569,14.965085c-0.000412,0-0.00103,0-0.001442,0c-1.823914-0.004729-3.30381-1.500873-3.29908-3.335273
			c0.002468-0.886766,0.348331-1.720482,0.974464-2.347748c0.624901-0.626238,1.453373-0.970868,2.333252-0.970868
			c0.00288,0,0.00576,0,0.008636,0c1.80294,0.004626,3.26577,1.501181,3.261044,3.335992v1.177113
			c0,0.322732-0.261765,0.58429-0.584393,0.58429c-0.322632,0-0.584393-0.261558-0.584393-0.58429v-1.178655
			c0.003082-1.191918-0.93684-2.162889-2.095135-2.165871c-0.002056,0-0.00391,0-0.00576,0
			c-0.567326,0-1.101955,0.222796-1.506218,0.627779c-0.406525,0.407451-0.631275,0.949175-0.632713,1.525343
			c-0.003086,1.189964,0.953903,2.160524,2.133175,2.163609c0.322834,0.000822,0.583775,0.2631,0.582954,0.585832
			C55.285137,14.704453,55.023579,14.965085,54.701569,14.965085z"/>
	</g>
	<g>
		<path class="st1" d="M59.916065,13.40859c-0.322628,0-0.584393-0.261558-0.584393-0.58429V3.877566
			c0.003292-1.270673-0.999142-2.3058-2.23455-2.308987c-0.610916,0.002365-1.180092,0.23606-1.61232,0.669419
			c-0.433464,0.434284-0.673019,1.011788-0.674458,1.626202c-0.00185,0.614105,0.234825,1.192637,0.666027,1.629081
			c0.429966,0.435313,1.001198,0.675897,1.608414,0.677542c0.322834,0.000822,0.583775,0.2631,0.582954,0.585832
			c-0.000824,0.322115-0.262383,0.582747-0.584393,0.582747c-0.000412,0-0.00103,0-0.001442,0
			c-0.921001-0.002365-1.786488-0.366325-2.437092-1.024846c-0.649368-0.65739-1.005722-1.528735-1.003254-2.45344
			c0.002468-0.924911,0.363342-1.794508,1.016209-2.448608C55.311665,0.757174,56.185577,0.392083,57.100002,0.4
			c1.880051,0.004832,3.405392,1.565542,3.400455,3.479109v8.945192C60.500458,13.147033,60.238697,13.40859,59.916065,13.40859z"/>
	</g>
	<g>
		<path class="st1" d="M62.436646,13.40859c-0.322632,0-0.584393-0.261558-0.584393-0.58429V8.086754
			c-0.004936-1.912024,1.520611-3.472734,3.400661-3.477566c0.002876,0,0.005959,0,0.009048,0
			c0.917503,0,1.781349,0.359334,2.433182,1.012508c0.652664,0.6541,1.013542,1.5238,1.016006,2.448608
			c0.002464,0.924706-0.353882,1.79605-1.003258,2.45344c-0.650604,0.658522-1.516083,1.022482-2.437088,1.024846
			c-0.000412,0-0.00103,0-0.001442,0c-0.322014,0-0.583572-0.26053-0.584389-0.582747
			c-0.000824-0.322732,0.260117-0.585009,0.582947-0.585832c0.607216-0.001645,1.178452-0.242229,1.608421-0.677542
			c0.431198-0.436443,0.667877-1.014976,0.666023-1.629081c-0.001442-0.614414-0.240997-1.191918-0.674454-1.626202
			c-0.431-0.431817-1.001205-0.669419-1.605949-0.669419c-0.00206,0-0.004112,0-0.006172,0
			c-1.235611,0.003187-2.238045,1.038314-2.234753,2.307445v4.739089C63.021038,13.147033,62.759274,13.40859,62.436646,13.40859z"
			/>
	</g>
	<g>
		<path class="st1" d="M68.324776,30.171829c-0.411461,0-0.809761-0.219711-1.019501-0.606909l-6.234818-11.515532
			c-0.281708-0.488056-0.703655-0.768017-1.159122-0.768736c-0.451557,0.000719-0.873299,0.28068-1.155006,0.768633
			L52.521507,29.56492c-0.304531,0.562494-1.007366,0.771822-1.569756,0.46698
			c-0.562595-0.304533-0.771721-1.007265-0.467186-1.569757l6.241608-11.528177
			c0.004112-0.007505,0.008224-0.015011,0.012543-0.022413c0.694195-1.217108,1.880459-1.945028,3.172825-1.947084
			c1.29607,0.002056,2.482334,0.729977,3.176529,1.947084c0.004318,0.007402,0.00843,0.014908,0.012543,0.022413l6.241611,11.528177
			c0.304527,0.562492,0.095406,1.265224-0.467186,1.569757C68.699844,30.126797,68.511078,30.171829,68.324776,30.171829z"/>
	</g>
</g>
<g>
	<g>
		<path class="st0" d="M35.018936,39.751072c0,0.785294-0.549026,1.424587-1.667843,1.424587h-1.202301v1.938858h-0.959045
			v-4.718731h2.182117C34.490681,38.395786,35.018936,38.958794,35.018936,39.751072z M34.066883,39.771843
			c0-0.417011-0.271019-0.639297-0.854794-0.639297h-1.063297v1.306351h1.070084
			C33.795864,40.438896,34.066883,40.167881,34.066883,39.771843z"/>
	</g>
	<g>
		<path class="st0" d="M37.566452,39.514603v0.806263c-0.055519-0.006992-0.139004-0.013981-0.222282-0.013981
			c-0.57,0-0.854794,0.271015-0.854794,0.848007v1.959625h-0.917301v-3.592922h0.826824v0.604748
			c0.180748-0.417011,0.521267-0.6395,0.931286-0.6395C37.406677,39.486843,37.490162,39.493835,37.566452,39.514603z"/>
	</g>
	<g>
		<path class="st0" d="M37.89278,41.321655c0-1.153774,0.778503-1.883339,1.82782-1.883339
			c1.042324,0,1.820827,0.729565,1.820827,1.883339c0,1.146576-0.778503,1.876347-1.820827,1.876347
			C38.671284,43.198002,37.89278,42.475224,37.89278,41.321655z M40.610146,41.321655
			c0-0.702011-0.361496-1.139793-0.896538-1.139793s-0.896534,0.444771-0.896534,1.139793
			c0,0.694813,0.361492,1.132797,0.896534,1.132797S40.610146,42.016468,40.610146,41.321655z"/>
	</g>
	<g>
		<path class="st0" d="M45.636082,38.110992v5.003525h-0.82703v-0.604546c-0.229275,0.451763-0.632305,0.68803-1.181328,0.68803
			c-0.854794,0-1.619316-0.68803-1.619316-1.876347c0-1.209293,0.729771-1.883339,1.584564-1.883339
			c0.50029,0,0.882553,0.187531,1.125809,0.535042v-1.862366H45.636082z M44.718781,41.321655
			c0-0.68803-0.375271-1.146786-0.889542-1.146786c-0.542034,0-0.896538,0.451763-0.896538,1.146786
			c0,0.694813,0.375271,1.139584,0.896538,1.139584C44.350502,42.461239,44.718781,42.02346,44.718781,41.321655z"/>
	</g>
	<g>
		<path class="st0" d="M46.390942,38.465286c0-0.298775,0.222488-0.542034,0.556015-0.542034
			c0.319546,0,0.542034,0.243259,0.542034,0.542034c0,0.291992-0.222488,0.542034-0.542034,0.542034
			C46.61343,39.00732,46.390942,38.757278,46.390942,38.465286z M46.481209,39.521595h0.917511v3.592922h-0.917511V39.521595z"/>
	</g>
	<g>
		<path class="st0" d="M51.588989,43.350784c0,0.583775-0.521267,1.15377-1.959831,1.15377
			c-1.223072,0-1.702595-0.368481-1.702595-0.82703c0-0.32674,0.215294-0.604752,0.986805-0.750538
			c-0.57-0.090477-0.799274-0.312759-0.799274-0.660271c0-0.291786,0.201515-0.528255,0.71579-0.660267
			c-0.451763-0.215294-0.674046-0.590565-0.674046-1.000584c0-0.61174,0.521263-1.167549,1.584564-1.167549
			c0.222282,0,0.423798,0.02776,0.590561,0.076286l0.111244-0.090271c0.264023-0.208504,0.479523-0.298775,0.889542-0.298775
			h0.229275v0.632301h-0.229275c-0.187531,0-0.278008,0.006992-0.40303,0.062717
			c0.278011,0.236267,0.396038,0.542034,0.396038,0.78529c0,0.618526-0.56979,1.181328-1.584354,1.181328h-0.027966
			c-0.674046,0-0.764317,0.125023-0.764317,0.264027c0,0.104252,0.062511,0.180744,0.375267,0.208504l1.056309,0.097263
			C51.20673,42.433479,51.588989,42.725471,51.588989,43.350784z M50.678471,43.517548
			c0-0.201515-0.145992-0.33353-0.56979-0.368279l-0.556019-0.048531c-0.597549,0.097263-0.743546,0.257034-0.743546,0.451557
			c0,0.243259,0.278008,0.396244,0.889542,0.396244C50.400463,43.94854,50.678471,43.767796,50.678471,43.517548z
			 M49.059158,40.605865c0,0.354298,0.236469,0.632305,0.681244,0.632305c0.437778,0,0.68782-0.278008,0.68782-0.632305
			c0-0.340519-0.250042-0.61174-0.68782-0.61174C49.295628,39.994125,49.059158,40.265347,49.059158,40.605865z"/>
	</g>
	<g>
		<path class="st0" d="M52.023273,38.465286c0-0.298775,0.222488-0.542034,0.556015-0.542034
			c0.319546,0,0.542034,0.243259,0.542034,0.542034c0,0.291992-0.222488,0.542034-0.542034,0.542034
			C52.245762,39.00732,52.023273,38.757278,52.023273,38.465286z M52.113544,39.521595h0.917507v3.592922h-0.917507V39.521595z"/>
	</g>
	<g>
		<path class="st0" d="M53.667263,41.321655c0-1.153774,0.778503-1.883339,1.82782-1.883339
			c1.042324,0,1.820827,0.729565,1.820827,1.883339c0,1.146576-0.778503,1.876347-1.820827,1.876347
			C54.445766,43.198002,53.667263,42.475224,53.667263,41.321655z M56.384624,41.321655
			c0-0.702011-0.361492-1.139793-0.896534-1.139793s-0.896534,0.444771-0.896534,1.139793
			c0,0.694813,0.361492,1.132797,0.896534,1.132797S56.384624,42.016468,56.384624,41.321655z"/>
	</g>
	<g>
		<path class="st0" d="M57.738476,42.065201h0.896534c0.076286,0.319752,0.326534,0.486515,0.764317,0.486515
			c0.458752,0,0.667259-0.166763,0.667259-0.410023c0-0.208504-0.125229-0.3545-0.451763-0.410019l-0.771515-0.145996
			c-0.729565-0.139004-1.035332-0.479523-1.035332-1.028545c0-0.597759,0.514275-1.118816,1.494087-1.118816
			c0.966038,0,1.50108,0.465538,1.619316,1.188316h-0.903526c-0.055519-0.361286-0.305767-0.54203-0.722782-0.54203
			c-0.417011,0-0.625309,0.187531-0.625309,0.417011c0,0.194523,0.104046,0.326534,0.479523,0.389046l0.757324,0.132011
			c0.78529,0.132221,1.07029,0.500496,1.07029,1.056515c0,0.597549-0.472534,1.118816-1.570583,1.118816
			C58.336025,43.198002,57.870487,42.739246,57.738476,42.065201z"/>
	</g>
	<g>
		<path class="st0" d="M61.423107,41.321655c0-1.153774,0.778503-1.883339,1.82782-1.883339
			c1.042324,0,1.820827,0.729565,1.820827,1.883339c0,1.146576-0.778503,1.876347-1.820827,1.876347
			C62.201611,43.198002,61.423107,42.475224,61.423107,41.321655z M64.140472,41.321655
			c0-0.702011-0.361496-1.139793-0.896538-1.139793s-0.896534,0.444771-0.896534,1.139793
			c0,0.694813,0.361492,1.132797,0.896534,1.132797S64.140472,42.016468,64.140472,41.321655z"/>
	</g>
	<g>
		<path class="st0" d="M71.67321,38.395786l-1.890327,4.718731h-0.896538l-1.841599-4.718731h0.972824l1.341309,3.669415
			l1.334312-3.669415H71.67321z"/>
	</g>
	<g>
		<path class="st0" d="M71.562584,41.321655c0-1.153774,0.778503-1.883339,1.82782-1.883339
			c1.04232,0,1.820824,0.729565,1.820824,1.883339c0,1.146576-0.778503,1.876347-1.820824,1.876347
			C72.341087,43.198002,71.562584,42.475224,71.562584,41.321655z M74.279945,41.321655
			c0-0.702011-0.361496-1.139793-0.896538-1.139793s-0.89653,0.444771-0.89653,1.139793
			c0,0.694813,0.361488,1.132797,0.89653,1.132797S74.279945,42.016468,74.279945,41.321655z"/>
	</g>
	<g>
		<path class="st0" d="M76.795174,43.114517H75.87767v-5.003525h0.917503V43.114517z"/>
	</g>
	<g>
		<path class="st0" d="M77.454826,41.314663c0-1.167553,0.75753-1.876347,1.793068-1.876347
			c1.021561,0,1.563591,0.562801,1.681831,1.348091h-0.93129c-0.083481-0.40303-0.326538-0.604546-0.75753-0.604546
			c-0.521263,0-0.85479,0.417011-0.85479,1.125809s0.319748,1.146782,0.861778,1.146782
			c0.437782,0,0.660271-0.208504,0.750542-0.604748h0.924294c-0.118233,0.799271-0.695015,1.348297-1.674835,1.348297
			C78.212357,43.198002,77.454826,42.489204,77.454826,41.314663z"/>
	</g>
	<g>
		<path class="st0" d="M84.676453,40.758648v2.355869h-0.827034v-0.458549c-0.277802,0.368279-0.660057,0.542034-1.146576,0.542034
			c-0.764519,0-1.292572-0.451763-1.292572-1.077282c0-0.597553,0.375275-1.021553,1.271805-1.111824l1.084068-0.111244v-0.194523
			c0-0.40303-0.250252-0.597759-0.646286-0.597759c-0.417015,0-0.646286,0.166763-0.71579,0.521263h-0.917511
			c0.097473-0.778297,0.674255-1.188316,1.619316-1.188316C84.078903,39.438316,84.676453,39.848335,84.676453,40.758648z
			 M83.759155,41.710701v-0.264027l-0.861786,0.111244c-0.382263,0.048531-0.555809,0.250042-0.555809,0.521267
			c0,0.277802,0.222282,0.50029,0.604538,0.50029C83.474152,42.579475,83.759155,42.224976,83.759155,41.710701z
			 M83.550644,38.937817h-0.89653l0.729767-1.084064h1.056305L83.550644,38.937817z"/>
	</g>
	<g>
		<path class="st0" d="M88.775429,40.848919v2.265598h-0.917305v-2.057095c0-0.590561-0.278008-0.854794-0.702011-0.854794
			c-0.430786,0-0.743546,0.291992-0.743546,0.854794v2.057095h-0.917305v-3.592922h0.826828v0.507282
			c0.236473-0.396038,0.618523-0.590561,1.132797-0.590561C88.205429,39.438316,88.775429,39.883087,88.775429,40.848919z"/>
	</g>
</g>
</svg>
