<?xml version="1.0" encoding="UTF-8" standalone="no"?>
<!-- Generator: Adobe Illustrator 22.0.1, SVG Export Plug-In . SVG Version: 6.00 Build 0)  -->

<svg
   xmlns:dc="http://purl.org/dc/elements/1.1/"
   xmlns:cc="http://creativecommons.org/ns#"
   xmlns:rdf="http://www.w3.org/1999/02/22-rdf-syntax-ns#"
   xmlns:svg="http://www.w3.org/2000/svg"
   xmlns="http://www.w3.org/2000/svg"
   xmlns:sodipodi="http://sodipodi.sourceforge.net/DTD/sodipodi-0.dtd"
   xmlns:inkscape="http://www.inkscape.org/namespaces/inkscape"
   version="1.1"
   id="Capa_1"
   x="0px"
   y="0px"
   viewBox="0 0 392.50001 103.625"
   xml:space="preserve"
   sodipodi:docname="logo-minerba.svg"
   width="392.5"
   height="103.625"
   inkscape:version="0.92.3 (2405546, 2018-03-11)"><metadata
   id="metadata103"><rdf:RDF><cc:Work
       rdf:about=""><dc:format>image/svg+xml</dc:format><dc:type
         rdf:resource="http://purl.org/dc/dcmitype/StillImage" /><dc:title></dc:title></cc:Work></rdf:RDF></metadata><defs
   id="defs101" /><sodipodi:namedview
   pagecolor="#ffffff"
   bordercolor="#666666"
   borderopacity="1"
   objecttolerance="10"
   gridtolerance="10"
   guidetolerance="10"
   inkscape:pageopacity="0"
   inkscape:pageshadow="2"
   inkscape:window-width="1853"
   inkscape:window-height="1025"
   id="namedview99"
   showgrid="false"
   inkscape:zoom="2.2425466"
   inkscape:cx="107.21012"
   inkscape:cy="15.123274"
   inkscape:window-x="67"
   inkscape:window-y="27"
   inkscape:window-maximized="1"
   inkscape:current-layer="Capa_1" />
<style
   type="text/css"
   id="style2">
	.st0{fill:transparent;}
	.st1{fill:#8E8E8E;}
	.st2{fill:#1C67AE;}
	.st3{fill:#1D67AF;}
	.st4{fill:#fefefe;}
	.st5{fill:#fefefe;}
	.st6{fill:#fefefe;}
	.st7{fill:#fefefe;}
	.st8{fill:#fefefe;}
	.st9{fill:#fefefe;}
	.st10{fill:#fefefe;}
	.st11{fill:transparent;}
	.st12{fill:transparent;}
	.st13{fill:transparent;}
	.st14{fill:transparent;}
</style>
<g
   id="g96"
   transform="translate(-94.981306,-156.3473)">
	<path
   class="st0"
   d="m 96.5,248.1 c 0,-30.4 0,-60.9 0,-91.3 130.2,0 260.3,0 390.5,0 0,33.9 0,67.7 0,101.6 -130.2,0 -260.3,0 -390.5,0 0,-1.8 0,-3.6 0,-5.4 0,0 0.1,0 0.1,0 0.3,3.3 2.4,5.3 5.7,5.3 3,0 5.2,-1.7 5.5,-4.3 -0.5,0 -1,0 -1.6,0 -0.2,1.2 -0.9,2 -2,2.5 -2.6,1.1 -5.2,-0.2 -5.7,-2.9 -0.3,-1.6 -0.2,-3.3 -0.2,-4.9 0,-0.8 0.3,-1.5 0.6,-2.2 0.7,-1.5 2.1,-2.3 3.8,-2.2 1.8,0.1 2.9,1 3.4,2.7 0,0.1 0.2,0.3 0.3,0.3 0.4,0 0.9,0 1.3,0 0,-1.3 -0.6,-2.4 -1.6,-3.3 -1.9,-1.5 -4,-1.7 -6.2,-0.8 -2.2,0.9 -3.1,2.8 -3.3,5 0,-0.1 0,-0.1 -0.1,-0.1 z m 17,-20 c 0,-12.1 0,-24.1 0,-36.2 6.1,5.6 12.2,11.1 18.3,16.6 6.1,-5.5 12.1,-11 18.3,-16.7 0,12.2 0,24.2 0,36.3 5.5,0 10.8,0 16.2,0 0,-23.7 0,-47.4 0,-71.2 -11.6,9.9 -23.1,19.7 -34.5,29.6 -11.5,-9.8 -23.1,-19.7 -34.6,-29.5 0,23.8 0,47.5 0,71.2 5.4,-0.1 10.8,-0.1 16.3,-0.1 z m 244.9,-30 c 0.1,-0.1 0.2,-0.1 0.3,-0.2 8.6,-4.9 12.7,-14.1 10.8,-23.8 -2,-9.9 -11.1,-17.3 -21.1,-17.3 -9.2,0 -18.3,0 -27.5,0 -0.2,0 -0.5,0 -0.8,0 0,23.8 0,47.5 0,71.2 5.4,0 10.9,0 16.3,0 0,-9 0,-18 0,-27 1.7,0 3.4,0 5.1,0 0.6,0 0.9,0.2 1.1,0.7 4,8.6 8,17.1 11.9,25.7 0.2,0.5 0.5,0.6 1,0.6 5.4,0 10.7,0 16.1,0 0.2,0 0.4,0 0.7,0 -4.7,-10 -9.3,-19.9 -13.9,-29.9 z M 198.1,156.8 c 0,23.9 0,47.5 0,71.2 5.4,0 10.8,0 16.3,0 0,-12.2 0,-24.4 0,-36.8 14.1,12.3 28,24.5 42.1,36.8 0,-23.8 0,-47.5 0,-71.2 -5.5,0 -10.9,0 -16.4,0 0,11.8 0,23.6 0,35.5 -14,-11.8 -27.9,-23.5 -42,-35.5 z m 179.6,71.3 c 0.3,0 0.6,0 0.8,0 7.5,0 15.1,0 22.6,0 7,0 12.8,-2.7 17.3,-7.9 6.9,-8 7,-20.1 0.2,-28.2 -0.8,-1 -1.7,-1.8 -2.6,-2.8 0,-0.1 0.1,-0.2 0.1,-0.3 3.7,-6.7 4,-13.6 0.4,-20.5 -3.8,-7.3 -10.1,-11.3 -18.4,-11.5 -6.7,-0.2 -13.4,-0.1 -20.1,-0.1 -0.1,0 -0.2,0 -0.4,0 0.1,23.8 0.1,47.5 0.1,71.3 z m -65.5,0 c 0,-4.7 0,-9.3 0,-14.1 -10.5,0 -21,0 -31.5,0 0,-4.3 0,-8.6 0,-12.9 8,0 16,0 24,0 0,-5.2 0,-10.3 0,-15.5 -8,0 -16,0 -24,0 0,-4.7 0,-9.3 0,-14 10.6,0 21.2,0 31.8,0 0,-5 0,-9.9 0,-14.8 -16.1,0 -32.1,0 -48.1,0 0,23.8 0,47.5 0,71.2 15.9,0.1 31.8,0.1 47.8,0.1 z m 141.4,-34.8 c 0.1,0.3 0.2,0.5 0.3,0.7 4.8,11.2 9.6,22.3 14.4,33.5 0.2,0.4 0.4,0.6 0.9,0.6 5.6,0 11.1,0 16.7,0 0.2,0 0.4,0 0.7,0 -11,-23.8 -22,-47.5 -33.1,-71.3 -10.9,23.8 -21.7,47.5 -32.6,71.3 0.2,0 0.3,0 0.5,0 5.8,0 11.6,0 17.4,0 0.4,0 0.6,-0.2 0.7,-0.6 3.5,-8.6 7,-17.2 10.5,-25.8 1.3,-2.7 2.5,-5.5 3.6,-8.4 z m -263.2,34.8 c 0,-23.8 0,-47.5 0,-71.2 -5.4,0 -10.8,0 -16.2,0 0,23.8 0,47.5 0,71.2 5.4,0 10.7,0 16.2,0 z M 147,242.9 c -0.3,0 -0.5,0 -0.8,0 -0.6,-0.1 -0.9,0.2 -1.1,0.7 -0.9,2.2 -1.8,4.3 -2.7,6.5 -0.7,1.6 -1.4,3.2 -2.1,5 -0.1,-0.3 -0.2,-0.5 -0.3,-0.7 -1.5,-3.6 -3.1,-7.3 -4.7,-10.9 -0.1,-0.2 -0.3,-0.5 -0.4,-0.5 -0.4,-0.1 -0.9,0 -1.3,0 0,5.1 0,10 0,15 0.5,0 1,0 1.5,0 0,-3.8 0,-7.5 0,-11.2 0.2,0.2 0.3,0.4 0.4,0.6 1.3,3 2.6,5.9 3.8,8.9 0.2,0.6 0.6,0.5 1.1,0.6 0.5,0 0.7,-0.1 0.9,-0.6 1.3,-3 2.6,-6 3.9,-9 0.1,-0.2 0.2,-0.4 0.3,-0.6 0,0 0.1,0 0.1,0 0,3.7 0,7.5 0,11.2 0.5,0 0.9,0 1.4,0 0,-5 0,-10 0,-15 z m 147.1,15 c 0,-5 0,-10 0,-15 -0.5,0 -1.1,0 -1.6,0 0,4 0,8 0,12 -0.3,-0.2 -0.4,-0.4 -0.6,-0.6 -2.3,-3.6 -4.7,-7.3 -7,-10.9 -0.1,-0.2 -0.3,-0.4 -0.5,-0.4 -0.4,-0.1 -0.9,0 -1.3,0 0,5 0,10 0,15 0.5,0 1,0 1.6,0 0,-4 0,-8 0,-11.9 0.3,0.2 0.4,0.4 0.5,0.6 2.3,3.6 4.7,7.3 7,10.9 0.1,0.2 0.3,0.4 0.5,0.5 0.5,-0.1 0.9,-0.2 1.4,-0.2 z m -118.9,-12 c 0,0 0.1,0 0.1,-0.1 0.1,0.2 0.2,0.3 0.3,0.5 2.4,3.7 4.7,7.4 7.1,11.1 0.1,0.2 0.4,0.5 0.6,0.5 0.4,0.1 0.9,0 1.3,0 0,-5 0,-10 0,-15 -0.5,0 -1,0 -1.6,0 0,4 0,8 0,12 -0.2,-0.1 -0.3,-0.3 -0.4,-0.5 -2.4,-3.7 -4.7,-7.4 -7.1,-11.1 -0.1,-0.2 -0.3,-0.4 -0.5,-0.5 -0.4,-0.1 -0.9,0 -1.4,0 0,5.1 0,10 0,15 0.5,0 1,0 1.6,0 0,-4 0,-7.9 0,-11.9 z m 234.5,12 c -1.1,-2.2 -2.1,-4.3 -3.1,-6.4 0.1,-0.1 0.1,-0.1 0.2,-0.1 2,-1 2.9,-2.7 2.5,-5 -0.3,-1.9 -1.7,-3.2 -3.9,-3.4 -1.7,-0.1 -3.4,-0.1 -5.1,-0.1 -0.3,0 -0.6,0 -0.9,0 0,5.1 0,10 0,15 0.6,0 1.1,0 1.7,0 0,-2 0,-4 0,-6.1 1.1,0 2.2,0 3.2,0 0.5,0 0.7,0.2 0.9,0.6 0.8,1.7 1.6,3.4 2.4,5.1 0.1,0.2 0.3,0.4 0.5,0.5 0.5,0 1,-0.1 1.6,-0.1 z m -55.6,-6.4 c 0.1,-0.1 0.2,-0.1 0.2,-0.1 1.9,-0.9 2.9,-2.6 2.5,-4.9 -0.3,-1.9 -1.7,-3.3 -3.8,-3.5 -1.9,-0.1 -3.8,-0.1 -5.6,-0.1 -0.2,0 -0.3,0 -0.5,0 0,5 0,10 0,15 0.5,0 1,0 1.6,0 0,-2 0,-4 0,-6.1 1.2,0 2.3,0 3.3,0 0.4,0 0.6,0.1 0.8,0.5 0.8,1.7 1.6,3.4 2.4,5.1 0.1,0.2 0.3,0.4 0.4,0.5 0.5,0.1 1.1,0 1.7,0 -0.6,-1.1 -1.1,-2.2 -1.6,-3.2 -0.3,-1.1 -0.9,-2.1 -1.4,-3.2 z m 26.1,-1.1 c 0,0 0.1,0 0.1,0 0,0.8 0,1.6 0,2.4 0,0.4 0.1,0.8 0.2,1.2 0.7,2.6 2.6,4.2 5.4,4.3 2.9,0.1 5,-1.3 5.7,-4 0.7,-2.3 0.6,-4.7 0.1,-7 -0.6,-3 -2.6,-4.6 -5.6,-4.6 -3,0 -5.1,1.6 -5.7,4.6 -0.1,0.9 -0.1,2 -0.2,3.1 z m -104.5,0.4 c -0.1,-1.3 -0.1,-2.2 -0.2,-3.1 -0.3,-2.9 -2.4,-5 -5.1,-5.1 -3.4,-0.2 -5.6,1.3 -6.3,4.5 -0.5,2.2 -0.5,4.5 0,6.7 0.6,2.9 2.6,4.5 5.5,4.5 2.9,0 5,-1.5 5.7,-4.3 0.4,-1.2 0.4,-2.4 0.4,-3.2 z m 52.1,-0.7 c 0.1,1.2 0.1,2.1 0.2,3.1 0.4,3 2.5,4.9 5.4,5 3.2,0.1 5.3,-1.5 6,-4.6 0.4,-2.1 0.4,-4.2 0.1,-6.3 -0.5,-2.9 -2.6,-4.7 -5.4,-4.8 -3.2,-0.1 -5.3,1.5 -5.9,4.5 -0.3,1.2 -0.3,2.3 -0.4,3.1 z M 114.3,250 c 0.1,1.4 0.1,2.5 0.2,3.5 0.3,1.7 1.1,3 2.6,4 1.2,0.7 2.5,0.8 3.8,0.7 1.2,-0.1 2.3,-0.6 3.2,-1.4 1.4,-1.3 1.9,-2.9 1.9,-4.7 0,-1.5 0,-2.9 -0.1,-4.4 -0.1,-1.2 -0.6,-2.3 -1.4,-3.3 -1.2,-1.4 -2.8,-1.8 -4.5,-1.8 -2.8,0 -4.6,1.5 -5.3,4 -0.3,1.2 -0.3,2.5 -0.4,3.4 z m 50,-7.1 c 0,3.1 0,6.2 0,9.2 0,0.4 0,0.9 -0.1,1.3 -0.2,2 -1.6,3.1 -3.7,3.2 -2,0.1 -3.6,-1 -4,-2.9 -0.1,-0.5 -0.1,-1 -0.1,-1.5 0,-2.9 0,-5.8 0,-8.7 0,-0.2 0,-0.4 0,-0.7 -0.6,0 -1.1,0 -1.6,0 0,0.1 0,0.2 0,0.3 0,3.3 0,6.5 0,9.8 0,2.4 1.4,4.2 3.5,4.9 0.9,0.3 2,0.4 2.9,0.3 2,-0.2 3.6,-1.2 4.3,-3.2 0.3,-0.8 0.4,-1.6 0.4,-2.5 0.1,-3 0,-6 0,-9 0,-0.2 0,-0.4 0,-0.6 -0.5,0.1 -1,0.1 -1.6,0.1 z m 201.6,9.2 c 0.4,0 0.7,0 1,0 1.2,0 2.5,0 3.7,-0.1 2.3,-0.3 3.7,-2.1 3.7,-4.6 0,-2.3 -1.5,-4.2 -3.7,-4.4 -2,-0.2 -4.1,-0.1 -6.1,-0.1 0,0 -0.1,0 -0.1,0.1 0,5 0,10 0,14.9 0.5,0 1,0 1.6,0 -0.1,-1.9 -0.1,-3.8 -0.1,-5.8 z m 121,5.8 c -0.1,-0.2 -0.1,-0.4 -0.2,-0.5 -1.7,-4.6 -3.3,-9.2 -5,-13.9 -0.2,-0.6 -0.5,-0.6 -1,-0.6 -0.5,0 -0.8,0 -1,0.6 -1.4,3.9 -2.8,7.8 -4.2,11.7 -0.3,0.9 -0.6,1.8 -1,2.7 0.4,0 0.7,0 1,0 0.5,0.1 0.8,-0.1 0.9,-0.6 0.4,-1.2 0.8,-2.4 1.2,-3.6 0.1,-0.2 0.4,-0.4 0.5,-0.4 1.6,0 3.3,0 4.9,0 0.2,0 0.4,0.2 0.5,0.4 0.4,0.9 0.7,1.9 1,2.9 0.7,1.4 0.7,1.4 2.4,1.3 z m -59.4,0 c -0.1,-0.2 -0.1,-0.4 -0.2,-0.5 -1.7,-4.7 -3.4,-9.3 -5,-14 -0.3,-0.7 -0.8,-0.4 -1.2,-0.5 -0.4,-0.1 -0.6,0.1 -0.8,0.5 -1.7,4.7 -3.3,9.3 -5,14 -0.1,0.2 -0.1,0.3 -0.2,0.6 0.4,0 0.7,0 1,0 0.5,0.1 0.8,-0.1 0.9,-0.7 0.4,-1.3 0.9,-2.7 1.4,-4 1.8,0 3.6,0 5.4,0 0.2,0 0.4,0.3 0.5,0.4 0.5,1.2 0.9,2.5 1.3,3.8 0.1,0.2 0.2,0.4 0.4,0.4 0.5,0.1 1,0 1.5,0 z m -196.7,0 c -0.1,-0.2 -0.1,-0.4 -0.2,-0.6 -1.7,-4.6 -3.3,-9.2 -5,-13.9 -0.2,-0.5 -0.5,-0.6 -1,-0.5 -0.4,0 -0.8,-0.1 -1.1,0.5 -1.2,3.4 -2.4,6.9 -3.7,10.3 -0.5,1.4 -1,2.8 -1.5,4.2 0.6,0 1.2,0 1.7,0 0.5,-1.4 1,-2.8 1.4,-4.2 0.1,-0.4 0.3,-0.5 0.7,-0.5 1.6,0 3.1,0 4.7,0 0.5,0 0.6,0.2 0.7,0.6 0.3,1 0.6,1.9 1,2.9 0.5,1.3 0.5,1.3 1.9,1.3 0.2,-0.1 0.2,-0.1 0.4,-0.1 z m -18.1,-10.8 c 0,-0.9 -0.3,-1.7 -0.8,-2.4 -1.4,-2 -3.5,-2.4 -5.7,-2.1 -2.4,0.4 -3.8,2 -4.3,4.3 -0.5,2.2 -0.4,4.4 -0.1,6.6 0.3,2.1 1.4,3.7 3.6,4.4 1.4,0.4 2.7,0.4 4.1,0 1.9,-0.6 3.2,-2.1 3.3,-4 -0.5,0 -1,0 -1.6,0 -0.2,1.1 -0.8,2 -1.9,2.4 -2.5,1.1 -5.1,-0.1 -5.8,-2.7 -0.5,-1.8 -0.3,-3.6 -0.2,-5.4 0,-0.7 0.3,-1.4 0.6,-2 0.7,-1.5 2,-2.2 3.6,-2.2 1.6,0 2.9,0.7 3.4,2.2 0.3,0.8 0.7,1 1.4,0.9 0.1,0 0.2,0 0.4,0 z m 107,6.8 c -0.3,1.2 -0.9,2.1 -2.1,2.5 -2.8,1 -5.4,-0.5 -5.7,-3.5 -0.2,-1.4 -0.2,-2.8 -0.1,-4.2 0,-0.8 0.2,-1.5 0.5,-2.3 0.6,-1.6 2.1,-2.5 3.8,-2.4 1.8,0.1 2.9,1 3.5,2.7 0,0.1 0.2,0.3 0.4,0.3 0.4,0 0.9,0 1.5,0 -0.3,-0.8 -0.4,-1.5 -0.8,-2.1 -1.3,-2.1 -3.3,-2.7 -5.7,-2.5 -2.2,0.2 -3.9,1.7 -4.5,4 -0.6,2.5 -0.6,5 -0.1,7.5 0.4,2 1.7,3.5 3.8,3.9 0.8,0.2 1.7,0.2 2.6,0.2 2.5,-0.2 4.3,-2 4.6,-4.3 -0.6,0.2 -1.1,0.2 -1.7,0.2 z m -72,-6.8 c -0.1,-1.3 -0.6,-2.3 -1.5,-3.1 -2.3,-2.2 -8.1,-2.2 -9.3,2.7 -0.6,2.3 -0.5,4.7 -0.1,7.1 0.3,1.6 1.1,3.1 2.7,3.8 1.8,0.8 3.6,0.9 5.3,0.1 1.7,-0.7 2.7,-1.9 2.9,-3.8 -0.6,0 -1.1,0 -1.6,0 -0.7,2.4 -2.2,2.7 -3.8,2.9 -1.7,0.1 -3.3,-1.1 -3.8,-2.8 -0.2,-0.6 -0.2,-1.3 -0.3,-2 -0.2,-1.9 -0.2,-3.8 0.5,-5.6 0.5,-1.3 1.5,-2.1 2.9,-2.3 1.5,-0.2 2.9,0.1 3.8,1.5 0.3,0.5 0.5,1 0.7,1.5 0.6,0 1.1,0 1.6,0 z m 209.6,-4.2 c 0.1,0.3 0.2,0.6 0.3,0.8 1.7,4.5 3.3,9.1 5,13.6 0.2,0.5 0.4,0.7 0.9,0.6 0.5,-0.1 0.9,0.1 1.2,-0.6 1.6,-4.6 3.3,-9.1 5,-13.7 0.1,-0.2 0.1,-0.5 0.2,-0.8 -0.4,0 -0.7,0 -1,0 -0.6,-0.1 -0.9,0.1 -1.1,0.7 -1.3,3.9 -2.6,7.8 -3.9,11.7 -0.1,0.2 -0.1,0.3 -0.3,0.6 -0.4,-1.3 -0.8,-2.4 -1.2,-3.6 -1,-3 -2,-5.9 -3,-8.9 -0.1,-0.2 -0.3,-0.5 -0.4,-0.5 -0.6,0 -1.1,0.1 -1.7,0.1 z m -20.4,1.5 c 0,4.5 0,9 0,13.5 0.6,0 1.1,0 1.7,0 0,-4.5 0,-9 0,-13.5 1.6,0 3.1,0 4.6,0 0,-0.5 0,-1 0,-1.4 -3.6,0 -7.3,0 -10.9,0 0,0.5 0,1 0,1.5 1.5,-0.1 3,-0.1 4.6,-0.1 z M 255,242.9 c 0,5 0,10 0,15 0.5,0 1.1,0 1.6,0 0,-5 0,-10 0,-15 -0.6,0 -1.1,0 -1.6,0 z m 196,15 c 0,-5 0,-10 0,-15 -0.5,0 -1.1,0 -1.6,0 0,5 0,10 0,15 0.6,0 1.1,0 1.6,0 z m -256.8,0 c 0,-5 0,-10 0,-15 -0.5,0 -1.1,0 -1.6,0 0,5 0,10 0,15 0.6,0 1.1,0 1.6,0 z m 75,-16.7 c 0,0.1 0.1,0.1 0.1,0.2 0.4,-0.1 1,0 1.2,-0.2 1,-1 1.9,-2.2 3,-3.4 -0.5,0 -0.8,0 -1.2,0 -0.2,0 -0.5,0 -0.6,0.2 -0.9,1 -1.7,2.1 -2.5,3.2 z"
   id="path4"
   inkscape:connector-curvature="0"
    />
	<path
   class="st1"
   d="m 96.5,248.1 c 0,0 0.1,0 0.1,0 0,1.6 0,3.2 0,4.8 0,0 -0.1,0 -0.1,0 0,-1.6 0,-3.2 0,-4.8 z"
   id="path6"
   inkscape:connector-curvature="0"
   />
	<path
   class="st2"
   d="m 113.5,228.1 c -5.5,0 -10.9,0 -16.4,0 0,-23.7 0,-47.4 0,-71.2 11.6,9.9 23.1,19.7 34.6,29.5 11.5,-9.8 23,-19.7 34.5,-29.6 0,23.8 0,47.5 0,71.2 -5.4,0 -10.8,0 -16.2,0 0,-12 0,-24 0,-36.3 -6.2,5.6 -12.2,11.1 -18.3,16.7 -6.1,-5.5 -12.1,-11 -18.3,-16.6 0.1,12.2 0.1,24.2 0.1,36.3 z"
   id="path8"
   inkscape:connector-curvature="0"
   />
	<path
   class="st2"
   d="m 358.4,198.1 c 4.6,10 9.3,20 13.9,30 -0.3,0 -0.5,0 -0.7,0 -5.4,0 -10.7,0 -16.1,0 -0.5,0 -0.8,-0.2 -1,-0.6 -4,-8.6 -8,-17.1 -11.9,-25.7 -0.2,-0.5 -0.5,-0.7 -1.1,-0.7 -1.7,0 -3.3,0 -5.1,0 0,9 0,18 0,27 -5.5,0 -10.9,0 -16.3,0 0,-23.7 0,-47.5 0,-71.2 0.3,0 0.5,0 0.8,0 9.2,0 18.3,0 27.5,0 10.1,0 19.1,7.4 21.1,17.3 2,9.7 -2.2,18.8 -10.8,23.8 -0.1,-0.1 -0.2,0 -0.3,0.1 z m -22.1,-12.6 c 0.3,0 0.5,0 0.7,0 2.8,0 5.7,0 8.5,0 0.7,0 1.4,0 2.1,-0.1 3.5,-0.5 6.1,-3.6 6,-7.2 -0.1,-3.5 -3,-6.6 -6.6,-6.8 -3.6,-0.1 -7.1,0 -10.7,-0.1 -0.1,0 -0.1,0 -0.2,0.1 0.2,4.7 0.2,9.3 0.2,14.1 z"
   id="path10"
   inkscape:connector-curvature="0"
    />
	<path
   class="st2"
   d="m 198.1,156.8 c 14.1,11.9 28,23.7 42,35.6 0,-11.9 0,-23.7 0,-35.5 5.5,0 10.9,0 16.4,0 0,23.7 0,47.4 0,71.2 -14,-12.3 -28,-24.5 -42.1,-36.8 0,12.3 0,24.5 0,36.8 -5.5,0 -10.9,0 -16.3,0 0,-23.7 0,-47.4 0,-71.3 z"
   id="path12"
   inkscape:connector-curvature="0"
    />
	<path
   class="st2"
   d="m 377.7,228.1 c 0,-23.8 0,-47.5 0,-71.2 0.1,0 0.3,0 0.4,0 6.7,0 13.4,-0.2 20.1,0.1 8.3,0.3 14.6,4.2 18.4,11.5 3.6,6.8 3.3,13.7 -0.4,20.5 -0.1,0.1 -0.1,0.2 -0.1,0.3 0.9,0.9 1.8,1.8 2.6,2.8 6.8,8.1 6.7,20.3 -0.2,28.2 -4.5,5.3 -10.3,7.9 -17.3,7.9 -7.5,0 -15.1,0 -22.6,0 -0.3,-0.1 -0.6,-0.1 -0.9,-0.1 z m 14.8,-28 c 0,4.7 0,9.2 0,13.8 0.1,0 0.2,0 0.3,0 3,0 5.9,0 8.9,0 1.1,0 2.1,-0.3 3.1,-0.8 2.5,-1.4 3.8,-4.3 3.3,-7.3 -0.5,-2.8 -2.8,-5.2 -5.6,-5.5 -1.7,-0.2 -3.5,-0.1 -5.3,-0.2 -1.5,0 -3.1,0 -4.7,0 z m 0.2,-14.6 c 1.7,0 3.4,0 5,0 0.4,0 0.8,-0.1 1.3,-0.1 3.4,-0.6 5.9,-3.8 5.8,-7.3 -0.1,-3.3 -2.9,-6.2 -6.3,-6.5 -1.8,-0.1 -3.7,-0.1 -5.6,-0.1 -0.1,0 -0.1,0 -0.2,0.1 0,4.6 0,9.2 0,13.9 z"
   id="path14"
   inkscape:connector-curvature="0"
   />
	<path
   class="st3"
   d="m 312.2,228.1 c -16,0 -31.9,0 -47.9,0 0,-23.7 0,-47.4 0,-71.2 16,0 32.1,0 48.1,0 0,4.9 0,9.8 0,14.8 -10.6,0 -21.2,0 -31.8,0 0,4.7 0,9.3 0,14 8,0 16,0 24,0 0,5.2 0,10.3 0,15.5 -8,0 -16,0 -24,0 0,4.3 0,8.5 0,12.9 10.5,0 21,0 31.5,0 0.1,4.6 0.1,9.3 0.1,14 z"
   id="path16"
   inkscape:connector-curvature="0"
   />
	<path
   class="st3"
   d="m 453.6,193.3 c -1.2,2.9 -2.3,5.7 -3.5,8.5 -3.5,8.6 -7,17.2 -10.5,25.8 -0.1,0.3 -0.3,0.6 -0.7,0.6 -5.8,0 -11.6,0 -17.4,0 -0.1,0 -0.2,0 -0.5,0 10.9,-23.7 21.7,-47.4 32.6,-71.3 11,23.8 22,47.5 33.1,71.3 -0.3,0 -0.5,0 -0.7,0 -5.6,0 -11.1,0 -16.7,0 -0.5,0 -0.7,-0.2 -0.9,-0.6 -4.8,-11.2 -9.6,-22.3 -14.4,-33.5 -0.1,-0.3 -0.2,-0.5 -0.4,-0.8 z"
   id="path18"
   inkscape:connector-curvature="0"
   />
	<path
   class="st3"
   d="m 190.4,228.1 c -5.4,0 -10.8,0 -16.2,0 0,-23.7 0,-47.5 0,-71.2 5.4,0 10.8,0 16.2,0 0,23.7 0,47.4 0,71.2 z"
   id="path20"
   inkscape:connector-curvature="0"
    />
	<path
   class="st4"
   d="m 147,242.9 c 0,5 0,10 0,15 -0.5,0 -0.9,0 -1.4,0 0,-3.7 0,-7.5 0,-11.2 0,0 -0.1,0 -0.1,0 -0.1,0.2 -0.2,0.4 -0.3,0.6 -1.3,3 -2.6,6 -3.9,9 -0.2,0.5 -0.5,0.6 -0.9,0.6 -0.5,0 -0.8,0 -1.1,-0.6 -1.2,-3 -2.6,-6 -3.8,-8.9 -0.1,-0.2 -0.2,-0.4 -0.4,-0.6 0,3.7 0,7.5 0,11.2 -0.5,0 -1,0 -1.5,0 0,-5 0,-9.9 0,-15 0.4,0 0.9,0 1.3,0 0.2,0 0.3,0.3 0.4,0.5 1.6,3.6 3.1,7.3 4.7,10.9 0.1,0.2 0.2,0.4 0.3,0.7 0.7,-1.7 1.4,-3.3 2.1,-5 0.9,-2.2 1.9,-4.3 2.7,-6.5 0.2,-0.6 0.5,-0.8 1.1,-0.7 0.3,0 0.5,0 0.8,0 z"
   id="path22"
   inkscape:connector-curvature="0"
    />
	<path
   class="st5"
   d="m 294.1,257.9 c -0.5,0 -1,0 -1.4,0 -0.2,0 -0.4,-0.3 -0.5,-0.5 -2.3,-3.6 -4.7,-7.3 -7,-10.9 -0.1,-0.2 -0.3,-0.4 -0.5,-0.6 0,4 0,7.9 0,11.9 -0.6,0 -1.1,0 -1.6,0 0,-5 0,-10 0,-15 0.5,0 0.9,0 1.3,0 0.2,0 0.4,0.2 0.5,0.4 2.3,3.6 4.7,7.3 7,10.9 0.1,0.2 0.3,0.4 0.6,0.6 0,-4 0,-7.9 0,-12 0.6,0 1.1,0 1.6,0 0,5.2 0,10.2 0,15.2 z"
   id="path24"
   inkscape:connector-curvature="0"
   />
	<path
   class="st6"
   d="m 175.2,245.9 c 0,4 0,8 0,12 -0.5,0 -1,0 -1.6,0 0,-5 0,-9.9 0,-15 0.5,0 0.9,0 1.4,0 0.2,0 0.4,0.3 0.5,0.5 2.4,3.7 4.7,7.4 7.1,11.1 0.1,0.2 0.2,0.3 0.4,0.5 0,-4 0,-8 0,-12 0.6,0 1.1,0 1.6,0 0,5 0,10 0,15 -0.5,0 -0.9,0.1 -1.3,0 -0.2,0 -0.4,-0.3 -0.6,-0.5 -2.4,-3.7 -4.7,-7.4 -7.1,-11.1 -0.1,-0.2 -0.2,-0.3 -0.3,-0.5 0,-0.1 0,0 -0.1,0 z"
   id="path26"
   inkscape:connector-curvature="0"
    />
	<path
   class="st7"
   d="m 409.7,257.9 c -0.6,0 -1.1,0 -1.6,0 -0.2,0 -0.4,-0.3 -0.5,-0.5 -0.8,-1.7 -1.6,-3.4 -2.4,-5.1 -0.2,-0.4 -0.4,-0.6 -0.9,-0.6 -1.1,0 -2.1,0 -3.2,0 0,2 0,4 0,6.1 -0.6,0 -1.1,0 -1.7,0 0,-5 0,-9.9 0,-15 0.3,0 0.6,0 0.9,0 1.7,0 3.4,0 5.1,0.1 2.1,0.2 3.5,1.5 3.9,3.4 0.4,2.3 -0.5,4 -2.5,5 -0.1,0 -0.1,0.1 -0.2,0.1 1,2.2 2,4.3 3.1,6.5 z m -8.6,-7.7 c 1.4,0 2.8,0.1 4.1,0 1.5,-0.1 2.5,-1.1 2.5,-2.6 0.1,-1.7 -0.7,-2.9 -2.3,-3.1 -1.4,-0.2 -2.8,0 -4.3,0 0,1.9 0,3.8 0,5.7 z"
   id="path28"
   inkscape:connector-curvature="0"
    />
	<path
   class="st6"
   d="m 354.1,251.5 c 0.5,1.1 1,2.1 1.5,3.2 0.5,1 1,2.1 1.6,3.2 -0.6,0 -1.2,0 -1.7,0 -0.2,0 -0.3,-0.3 -0.4,-0.5 -0.8,-1.7 -1.6,-3.4 -2.4,-5.1 -0.2,-0.4 -0.4,-0.5 -0.8,-0.5 -1.1,0 -2.2,0 -3.3,0 0,2.1 0,4 0,6.1 -0.6,0 -1.1,0 -1.6,0 0,-5 0,-10 0,-15 0.2,0 0.3,0 0.5,0 1.9,0 3.8,0 5.6,0.1 2.1,0.2 3.5,1.6 3.8,3.5 0.3,2.2 -0.6,4 -2.5,4.9 -0.1,0 -0.2,0 -0.3,0.1 z m -5.5,-1.1 c 1.5,-0.1 3,0 4.5,-0.2 1.4,-0.2 2.2,-1.3 2.2,-2.8 0,-1.5 -0.8,-2.7 -2.2,-2.8 -1.5,-0.2 -3,0 -4.5,0 0,1.8 0,3.7 0,5.8 z"
   id="path30"
   inkscape:connector-curvature="0"
   />
	<path
   class="st8"
   d="m 380.2,250.4 c 0.1,-1.1 0.1,-2.2 0.3,-3.2 0.6,-3 2.7,-4.6 5.7,-4.6 3,0 5,1.6 5.6,4.6 0.4,2.3 0.5,4.7 -0.1,7 -0.8,2.7 -2.8,4.1 -5.7,4 -2.8,-0.1 -4.7,-1.6 -5.4,-4.3 -0.1,-0.4 -0.2,-0.8 -0.2,-1.2 0,-0.8 0,-1.6 0,-2.4 -0.1,0.1 -0.1,0.1 -0.2,0.1 z m 10.4,0.2 c -0.1,-1.1 -0.1,-2 -0.2,-2.9 -0.4,-2.2 -1.9,-3.6 -4,-3.6 -2.1,-0.1 -3.8,1.2 -4.1,3.4 -0.2,1.9 -0.2,3.9 0,5.8 0.2,2.1 1.9,3.3 3.9,3.4 2,0.1 3.6,-1.1 4.1,-3.2 0.2,-1 0.2,-2 0.3,-2.9 z"
   id="path32"
   inkscape:connector-curvature="0"
   />
	<path
   class="st8"
   d="m 275.7,250.8 c -0.1,0.8 -0.1,2 -0.4,3.1 -0.7,2.8 -2.8,4.3 -5.7,4.3 -2.9,0 -4.9,-1.6 -5.5,-4.5 -0.5,-2.2 -0.5,-4.5 0,-6.7 0.7,-3.1 2.9,-4.7 6.3,-4.5 2.7,0.2 4.8,2.2 5.1,5.1 0.2,1 0.2,1.9 0.2,3.2 z m -10.3,-0.5 c 0,0 0.1,0 0.1,0 0,0.7 0,1.4 0,2.1 0.1,1.3 0.5,2.5 1.5,3.4 2.3,2 5.9,0.8 6.7,-2.2 0.5,-2.1 0.5,-4.2 0,-6.3 -0.5,-2.1 -2,-3.2 -4,-3.3 -2,0 -3.5,1.1 -4,3.2 -0.2,1.1 -0.2,2.1 -0.3,3.1 z"
   id="path34"
   inkscape:connector-curvature="0"
    />
	<path
   class="st8"
   d="m 327.8,250.1 c 0.1,-0.9 0.1,-2 0.3,-3 0.7,-3.1 2.7,-4.6 5.9,-4.5 2.8,0.1 4.9,1.8 5.4,4.8 0.3,2.1 0.4,4.2 -0.1,6.3 -0.6,3.1 -2.8,4.7 -6,4.6 -2.9,-0.1 -5,-2 -5.4,-5 0,-1 0,-2 -0.1,-3.2 z m 10.3,0.3 c -0.1,-0.9 -0.1,-1.8 -0.2,-2.8 -0.4,-2.2 -1.9,-3.5 -4,-3.6 -2,-0.1 -3.6,1.1 -4.1,3.3 -0.4,2 -0.4,4.1 0,6.1 0.5,2.2 2.1,3.3 4.1,3.3 2.1,-0.1 3.6,-1.4 4,-3.6 0.1,-0.9 0.1,-1.8 0.2,-2.7 z"
   id="path36"
   inkscape:connector-curvature="0"
   />
	<path
   class="st9"
   d="m 114.3,250 c 0.1,-0.9 0.1,-2.2 0.4,-3.4 0.7,-2.5 2.5,-4 5.3,-4 1.8,0 3.3,0.4 4.5,1.8 0.8,0.9 1.3,2 1.4,3.3 0.1,1.5 0.2,2.9 0.1,4.4 -0.1,1.8 -0.5,3.5 -1.9,4.7 -0.9,0.8 -2,1.3 -3.2,1.4 -1.3,0.1 -2.6,0 -3.8,-0.7 -1.5,-0.9 -2.4,-2.3 -2.6,-4 -0.1,-1 -0.1,-2.1 -0.2,-3.5 z m 1.7,0.4 c 0.1,0.9 0,1.9 0.2,2.8 0.5,2.4 1.6,3.4 3.8,3.6 1.8,0.2 3.7,-0.7 4.3,-3.1 0.5,-1.9 0.4,-3.8 0.2,-5.7 -0.3,-2.3 -1.8,-4 -4.6,-3.8 -1.4,0.1 -2.4,0.8 -3.1,1.9 -0.8,1.3 -0.8,2.8 -0.8,4.3 z"
   id="path38"
   inkscape:connector-curvature="0"
   />
	<path
   class="st4"
   d="m 164.3,242.9 c 0.6,0 1.1,0 1.6,0 0,0.2 0,0.4 0,0.6 0,3 0,6 0,9 0,0.8 -0.1,1.7 -0.4,2.5 -0.7,2 -2.3,3 -4.3,3.2 -1,0.1 -2,0 -2.9,-0.3 -2.1,-0.6 -3.4,-2.5 -3.5,-4.9 -0.1,-3.3 0,-6.5 0,-9.8 0,-0.1 0,-0.2 0,-0.3 0.5,0 1,0 1.6,0 0,0.2 0,0.5 0,0.7 0,2.9 0,5.8 0,8.7 0,0.5 0,1 0.1,1.5 0.4,1.9 2,3 4,2.9 2.1,-0.1 3.5,-1.3 3.7,-3.2 0.1,-0.4 0.1,-0.9 0.1,-1.3 0,-3.1 0,-6.2 0,-9.3 z"
   id="path40"
   inkscape:connector-curvature="0"
    />
	<path
   class="st10"
   d="m 365.9,252.1 c 0,2 0,3.9 0,5.8 -0.5,0 -1,0 -1.6,0 0,-5 0,-9.9 0,-14.9 0,0 0,-0.1 0.1,-0.1 2,0 4.1,-0.1 6.1,0.1 2.2,0.2 3.7,2 3.7,4.4 0,2.5 -1.4,4.3 -3.7,4.6 -1.2,0.1 -2.4,0.1 -3.7,0.1 -0.2,0 -0.5,0 -0.9,0 z m 0,-1.5 c 1.3,0 2.5,0 3.7,0 2,-0.1 3.2,-1.5 2.9,-3.5 -0.2,-1.6 -1,-2.5 -2.5,-2.6 -1.4,-0.1 -2.7,0 -4.1,0 0,2 0,4 0,6.1 z"
   id="path42"
   inkscape:connector-curvature="0"
    />
	<path
   class="st8"
   d="m 486.9,257.9 c -1.7,0.1 -1.7,0.1 -2.2,-1.4 -0.3,-1 -0.6,-1.9 -1,-2.9 -0.1,-0.2 -0.3,-0.4 -0.5,-0.4 -1.6,0 -3.3,0 -4.9,0 -0.2,0 -0.5,0.2 -0.5,0.4 -0.4,1.2 -0.9,2.4 -1.2,3.6 -0.2,0.5 -0.4,0.7 -0.9,0.6 -0.3,0 -0.6,0 -1,0 0.3,-1 0.7,-1.9 1,-2.7 1.4,-3.9 2.8,-7.8 4.2,-11.7 0.2,-0.6 0.6,-0.6 1,-0.6 0.5,0 0.8,0 1,0.6 1.6,4.6 3.3,9.2 5,13.9 -0.1,0.2 -0.1,0.4 0,0.6 z m -6.2,-13 c -0.8,2.4 -1.6,4.7 -2.4,7 1.6,0 3.2,0 4.8,0 -0.8,-2.4 -1.5,-4.6 -2.4,-7 z"
   id="path44"
   inkscape:connector-curvature="0"
   />
	<path
   class="st8"
   d="m 427.5,257.9 c -0.5,0 -1,0 -1.4,0 -0.2,0 -0.3,-0.3 -0.4,-0.4 -0.4,-1.2 -0.9,-2.5 -1.3,-3.8 -0.1,-0.2 -0.3,-0.4 -0.5,-0.4 -1.8,0 -3.6,0 -5.4,0 -0.5,1.4 -1,2.7 -1.4,4 -0.2,0.5 -0.4,0.7 -0.9,0.7 -0.3,0 -0.6,0 -1,0 0.1,-0.2 0.1,-0.4 0.2,-0.6 1.7,-4.7 3.4,-9.3 5,-14 0.2,-0.4 0.4,-0.6 0.8,-0.5 0.4,0.1 0.9,-0.3 1.2,0.5 1.7,4.7 3.3,9.4 5,14 0,0.1 0.1,0.3 0.1,0.5 z m -3.8,-6.1 c -0.8,-2.3 -1.6,-4.6 -2.4,-7 -0.8,2.4 -1.6,4.7 -2.4,7 1.7,0 3.2,0 4.8,0 z"
   id="path46"
   inkscape:connector-curvature="0"
   />
	<path
   class="st8"
   d="m 230.8,257.9 c -0.1,0 -0.2,0 -0.3,0 -1.4,0.1 -1.4,0.1 -1.9,-1.3 -0.3,-1 -0.7,-1.9 -1,-2.9 -0.1,-0.4 -0.3,-0.6 -0.7,-0.6 -1.6,0 -3.1,0 -4.7,0 -0.4,0 -0.5,0.1 -0.7,0.5 -0.5,1.4 -0.9,2.8 -1.4,4.2 -0.6,0 -1.1,0 -1.7,0 0.5,-1.4 1,-2.8 1.5,-4.2 1.2,-3.4 2.5,-6.8 3.7,-10.3 0.2,-0.7 0.6,-0.5 1.1,-0.5 0.4,0 0.8,0 1,0.5 1.6,4.6 3.3,9.2 5,13.9 -0.1,0.2 0,0.4 0.1,0.7 z m -3.8,-6.1 c -0.8,-2.3 -1.6,-4.6 -2.4,-7 -0.8,2.4 -1.6,4.7 -2.4,7 1.6,0 3.2,0 4.8,0 z"
   id="path48"
   inkscape:connector-curvature="0"
   />
	<path
   class="st8"
   d="m 212.7,247.1 c -0.2,0 -0.4,0 -0.5,0 -0.7,0.1 -1.1,-0.1 -1.4,-0.9 -0.5,-1.5 -1.8,-2.1 -3.4,-2.2 -1.6,0 -2.9,0.6 -3.6,2.2 -0.3,0.6 -0.5,1.3 -0.6,2 -0.1,1.8 -0.3,3.6 0.2,5.4 0.7,2.6 3.3,3.8 5.8,2.7 1.1,-0.5 1.7,-1.3 1.9,-2.4 0.5,0 1.1,0 1.6,0 -0.1,1.9 -1.4,3.4 -3.3,4 -1.4,0.4 -2.8,0.4 -4.1,0 -2.1,-0.7 -3.2,-2.3 -3.6,-4.4 -0.4,-2.2 -0.4,-4.4 0.1,-6.6 0.5,-2.3 1.9,-3.9 4.3,-4.3 2.3,-0.4 4.3,0.1 5.7,2.1 0.6,0.7 0.9,1.5 0.9,2.4 z"
   id="path50"
   inkscape:connector-curvature="0"
   />
	<path
   class="st8"
   d="m 319.7,253.9 c 0.6,0 1.1,0 1.6,0 -0.2,2.3 -2.1,4.1 -4.6,4.3 -0.9,0.1 -1.7,0 -2.6,-0.2 -2.1,-0.5 -3.3,-1.9 -3.8,-3.9 -0.5,-2.5 -0.6,-5 0.1,-7.5 0.6,-2.2 2.3,-3.7 4.5,-4 2.3,-0.2 4.4,0.3 5.7,2.5 0.3,0.6 0.5,1.3 0.8,2.1 -0.6,0 -1.1,0 -1.5,0 -0.1,0 -0.3,-0.2 -0.4,-0.3 -0.6,-1.8 -1.7,-2.6 -3.5,-2.7 -1.7,-0.1 -3.2,0.8 -3.8,2.4 -0.3,0.7 -0.5,1.5 -0.5,2.3 -0.1,1.4 -0.1,2.8 0.1,4.2 0.3,2.9 2.9,4.5 5.7,3.5 1.2,-0.6 1.9,-1.5 2.2,-2.7 z"
   id="path52"
   inkscape:connector-curvature="0"
   />
	<path
   class="st8"
   d="m 96.7,252.9 c 0,-1.6 0,-3.2 0,-4.8 0.2,-2.2 1.1,-4.1 3.3,-5 2.2,-0.9 4.3,-0.7 6.2,0.8 1,0.8 1.5,2 1.6,3.3 -0.4,0 -0.9,0 -1.3,0 -0.1,0 -0.3,-0.2 -0.3,-0.3 -0.5,-1.7 -1.6,-2.6 -3.4,-2.7 -1.7,-0.1 -3.2,0.7 -3.8,2.2 -0.3,0.7 -0.5,1.5 -0.6,2.2 0,1.6 -0.1,3.3 0.2,4.9 0.5,2.7 3.1,4 5.7,2.9 1.1,-0.5 1.8,-1.3 2,-2.5 0.6,0 1.1,0 1.6,0 -0.3,2.6 -2.5,4.3 -5.5,4.3 -3.3,0 -5.5,-2 -5.7,-5.3 z"
   id="path54"
   inkscape:connector-curvature="0"
   />
	<path
   class="st10"
   d="m 247.7,247.1 c -0.5,0 -1,0 -1.5,0 -0.2,-0.5 -0.4,-1 -0.7,-1.5 -0.9,-1.4 -2.3,-1.7 -3.8,-1.5 -1.4,0.2 -2.4,1 -2.9,2.3 -0.7,1.8 -0.7,3.7 -0.5,5.6 0.1,0.7 0.1,1.3 0.3,2 0.5,1.7 2.2,3 3.8,2.8 1.6,-0.1 3.2,-0.5 3.8,-2.9 0.5,0 1,0 1.6,0 -0.2,1.9 -1.3,3.1 -2.9,3.8 -1.8,0.7 -3.6,0.7 -5.3,-0.1 -1.6,-0.8 -2.5,-2.2 -2.7,-3.8 -0.4,-2.3 -0.5,-4.7 0.1,-7.1 1.2,-4.9 7,-5 9.3,-2.7 0.7,0.8 1.3,1.8 1.4,3.1 z"
   id="path56"
   inkscape:connector-curvature="0"
   />
	<path
   class="st8"
   d="m 457.3,242.9 c 0.6,0 1.1,0 1.6,0 0.2,0 0.4,0.3 0.4,0.5 1,3 2,5.9 3,8.9 0.4,1.2 0.8,2.3 1.2,3.6 0.1,-0.3 0.2,-0.4 0.3,-0.6 1.3,-3.9 2.7,-7.8 3.9,-11.7 0.2,-0.6 0.5,-0.8 1.1,-0.7 0.3,0 0.6,0 1,0 -0.1,0.3 -0.2,0.5 -0.2,0.8 -1.7,4.6 -3.4,9.1 -5,13.7 -0.3,0.7 -0.7,0.5 -1.2,0.6 -0.5,0.1 -0.7,-0.1 -0.9,-0.6 -1.6,-4.6 -3.3,-9.1 -5,-13.6 0,-0.4 -0.1,-0.6 -0.2,-0.9 z"
   id="path58"
   inkscape:connector-curvature="0"
   />
	<path
   class="st4"
   d="m 436.9,244.4 c -1.6,0 -3.1,0 -4.6,0 0,-0.5 0,-0.9 0,-1.5 3.6,0 7.2,0 10.9,0 0,0.5 0,0.9 0,1.4 -1.5,0 -3,0 -4.6,0 0,4.5 0,9 0,13.5 -0.6,0 -1.1,0 -1.7,0 0,-4.4 0,-8.9 0,-13.4 z"
   id="path60"
   inkscape:connector-curvature="0"
   />
	<path
   class="st8"
   d="m 255,242.9 c 0.5,0 1,0 1.6,0 0,5 0,9.9 0,15 -0.5,0 -1,0 -1.6,0 0,-5 0,-10 0,-15 z"
   id="path62"
   inkscape:connector-curvature="0"
   />
	<path
   class="st8"
   d="m 451,257.9 c -0.5,0 -1,0 -1.6,0 0,-5 0,-9.9 0,-15 0.5,0 1,0 1.6,0 0,5 0,10 0,15 z"
   id="path64"
   inkscape:connector-curvature="0"
   />
	<path
   class="st8"
   d="m 194.2,257.9 c -0.5,0 -1,0 -1.6,0 0,-5 0,-9.9 0,-15 0.5,0 1,0 1.6,0 0,5 0,10 0,15 z"
   id="path66"
   inkscape:connector-curvature="0"
   />
	<path
   class="st4"
   d="m 269.2,241.2 c 0.8,-1.1 1.6,-2.2 2.5,-3.3 0.1,-0.1 0.4,-0.1 0.6,-0.2 0.3,0 0.7,0 1.2,0 -1,1.2 -1.9,2.3 -3,3.4 -0.2,0.2 -0.8,0.2 -1.2,0.2 -0.1,0 -0.1,0 -0.1,-0.1 z"
   id="path68"
   inkscape:connector-curvature="0"
    />
	<path
   class="st11"
   d="m 336.3,185.5 c 0,-4.7 0,-9.4 0,-14 0.1,0 0.1,-0.1 0.2,-0.1 3.6,0 7.1,-0.1 10.7,0.1 3.5,0.1 6.4,3.3 6.6,6.8 0.1,3.5 -2.5,6.7 -6,7.2 -0.7,0.1 -1.4,0.1 -2.1,0.1 -2.8,0 -5.7,0 -8.5,0 -0.4,-0.1 -0.6,-0.1 -0.9,-0.1 z"
   id="path70"
   inkscape:connector-curvature="0"
    />
	<path
   class="st0"
   d="m 392.5,200.1 c 1.6,0 3.1,0 4.6,0 1.8,0 3.6,-0.1 5.3,0.2 2.8,0.4 5.1,2.8 5.6,5.5 0.5,3 -0.8,5.9 -3.3,7.3 -1,0.5 -2,0.8 -3.1,0.8 -3,0 -5.9,0 -8.9,0 -0.1,0 -0.2,0 -0.3,0 0.1,-4.5 0.1,-9.1 0.1,-13.8 z"
   id="path72"
   inkscape:connector-curvature="0"
   />
	<path
   class="st12"
   d="m 392.7,185.5 c 0,-4.7 0,-9.3 0,-13.9 0.1,0 0.1,-0.1 0.2,-0.1 1.9,0 3.7,-0.1 5.6,0.1 3.4,0.3 6.2,3.2 6.3,6.5 0.1,3.5 -2.4,6.7 -5.8,7.3 -0.4,0.1 -0.8,0.1 -1.3,0.1 -1.6,0 -3.3,0 -5,0 z"
   id="path74"
   inkscape:connector-curvature="0"
   />
	<path
   class="st13"
   d="m 401.1,250.2 c 0,-1.9 0,-3.9 0,-5.7 1.5,0 2.9,-0.1 4.3,0 1.6,0.2 2.4,1.4 2.3,3.1 -0.1,1.5 -1,2.5 -2.5,2.6 -1.3,0.1 -2.7,0 -4.1,0 z"
   id="path76"
   inkscape:connector-curvature="0"
   />
	<path
   class="st14"
   d="m 348.6,250.4 c 0,-2.1 0,-4 0,-5.9 1.5,0 3,-0.1 4.5,0 1.4,0.1 2.2,1.4 2.2,2.8 0,1.5 -0.8,2.6 -2.2,2.8 -1.5,0.2 -3,0.2 -4.5,0.3 z"
   id="path78"
   inkscape:connector-curvature="0"
   />
	<path
   class="st13"
   d="m 390.6,250.6 c -0.1,0.8 -0.1,1.9 -0.3,2.9 -0.5,2.1 -2.1,3.3 -4.1,3.2 -2.1,-0.1 -3.7,-1.3 -3.9,-3.4 -0.2,-1.9 -0.2,-3.9 0,-5.8 0.3,-2.2 2,-3.5 4.1,-3.4 2.1,0.1 3.7,1.4 4,3.6 0.1,0.9 0.1,1.8 0.2,2.9 z"
   id="path80"
   inkscape:connector-curvature="0"
   />
	<path
   class="st13"
   d="m 265.4,250.3 c 0.1,-1 0.1,-2.1 0.4,-3.1 0.5,-2.1 2,-3.2 4,-3.2 2,0 3.6,1.2 4,3.3 0.5,2.1 0.5,4.2 0,6.3 -0.8,3 -4.3,4.2 -6.7,2.2 -1,-0.9 -1.4,-2.1 -1.5,-3.4 -0.1,-0.7 0,-1.4 0,-2.1 -0.1,0 -0.1,0 -0.2,0 z"
   id="path82"
   inkscape:connector-curvature="0"
   />
	<path
   class="st13"
   d="m 338.1,250.4 c -0.1,0.9 -0.1,1.8 -0.2,2.7 -0.4,2.2 -1.9,3.5 -4,3.6 -2,0.1 -3.7,-1.1 -4.1,-3.3 -0.4,-2 -0.4,-4.1 0,-6.1 0.5,-2.2 2.1,-3.4 4.1,-3.3 2.1,0.1 3.6,1.4 4,3.6 0.1,1 0.1,1.9 0.2,2.8 z"
   id="path84"
   inkscape:connector-curvature="0"
    />
	<path
   class="st13"
   d="m 116,250.4 c 0,-1.5 0,-3 0.8,-4.3 0.7,-1.2 1.7,-1.9 3.1,-1.9 2.7,-0.2 4.3,1.5 4.6,3.8 0.2,1.9 0.3,3.8 -0.2,5.7 -0.6,2.4 -2.5,3.3 -4.3,3.1 -2.2,-0.2 -3.3,-1.2 -3.8,-3.6 -0.2,-1 -0.2,-1.9 -0.2,-2.8 z"
   id="path86"
   inkscape:connector-curvature="0"
    />
	<path
   class="st13"
   d="m 365.9,250.6 c 0,-2.1 0,-4.1 0,-6.2 1.4,0 2.8,-0.1 4.1,0 1.5,0.1 2.3,1 2.5,2.6 0.3,2 -0.9,3.5 -2.9,3.5 -1.2,0.1 -2.4,0.1 -3.7,0.1 z"
   id="path88"
   inkscape:connector-curvature="0"
    />
	<path
   class="st14"
   d="m 480.7,244.9 c 0.8,2.4 1.6,4.7 2.4,7 -1.6,0 -3.1,0 -4.8,0 0.8,-2.4 1.6,-4.6 2.4,-7 z"
   id="path90"
   inkscape:connector-curvature="0"
    />
	<path
   class="st14"
   d="m 423.7,251.8 c -1.6,0 -3.2,0 -4.8,0 0.8,-2.3 1.6,-4.5 2.4,-7 0.9,2.5 1.6,4.7 2.4,7 z"
   id="path92"
   inkscape:connector-curvature="0"
    />
	<path
   class="st14"
   d="m 227,251.8 c -1.6,0 -3.2,0 -4.8,0 0.8,-2.3 1.6,-4.5 2.4,-7 0.8,2.5 1.6,4.7 2.4,7 z"
   id="path94"
   inkscape:connector-curvature="0"
    />
</g>
</svg>