<?xml version="1.0" encoding="utf-8"?>
<!-- Generator: Adobe Illustrator 22.0.1, SVG Export Plug-In . SVG Version: 6.00 Build 0)  -->
<svg version="1.1" id="Capa_1" xmlns="http://www.w3.org/2000/svg" xmlns:xlink="http://www.w3.org/1999/xlink" x="0px" y="0px"
	 viewBox="0 0 595.3 841.9" style="enable-background:new 0 0 595.3 841.9;" xml:space="preserve" >
<style type="text/css">
	.st0{fill:#FEFEFE;}
	.st1{fill:#8E8E8E;}
	.st2{fill:#1C67AE;}
	.st3{fill:#1D67AF;}
	.st4{fill:#5E5E5E;}
	.st5{fill:#636363;}
	.st6{fill:#5F5F5F;}
	.st7{fill:#606060;}
	.st8{fill:#5D5D5D;}
	.st9{fill:#5B5B5B;}
	.st10{fill:#5C5C5C;}
	.st11{fill:#FDFEFE;}
	.st12{fill:#FDFDFE;}
	.st13{fill:#FDFDFD;}
	.st14{fill:#FCFCFC;}
</style>
<g>
	<path class="st0" d="M96.5,248.1c0-30.4,0-60.9,0-91.3c130.2,0,260.3,0,390.5,0c0,33.9,0,67.7,0,101.6c-130.2,0-260.3,0-390.5,0
		c0-1.8,0-3.6,0-5.4c0,0,0.1,0,0.1,0c0.3,3.3,2.4,5.3,5.7,5.3c3,0,5.2-1.7,5.5-4.3c-0.5,0-1,0-1.6,0c-0.2,1.2-0.9,2-2,2.5
		c-2.6,1.1-5.2-0.2-5.7-2.9c-0.3-1.6-0.2-3.3-0.2-4.9c0-0.8,0.3-1.5,0.6-2.2c0.7-1.5,2.1-2.3,3.8-2.2c1.8,0.1,2.9,1,3.4,2.7
		c0,0.1,0.2,0.3,0.3,0.3c0.4,0,0.9,0,1.3,0c0-1.3-0.6-2.4-1.6-3.3c-1.9-1.5-4-1.7-6.2-0.8c-2.2,0.9-3.1,2.8-3.3,5
		C96.6,248.1,96.6,248.1,96.5,248.1z M113.5,228.1c0-12.1,0-24.1,0-36.2c6.1,5.6,12.2,11.1,18.3,16.6c6.1-5.5,12.1-11,18.3-16.7
		c0,12.2,0,24.2,0,36.3c5.5,0,10.8,0,16.2,0c0-23.7,0-47.4,0-71.2c-11.6,9.9-23.1,19.7-34.5,29.6c-11.5-9.8-23.1-19.7-34.6-29.5
		c0,23.8,0,47.5,0,71.2C102.6,228.1,108,228.1,113.5,228.1z M358.4,198.1c0.1-0.1,0.2-0.1,0.3-0.2c8.6-4.9,12.7-14.1,10.8-23.8
		c-2-9.9-11.1-17.3-21.1-17.3c-9.2,0-18.3,0-27.5,0c-0.2,0-0.5,0-0.8,0c0,23.8,0,47.5,0,71.2c5.4,0,10.9,0,16.3,0c0-9,0-18,0-27
		c1.7,0,3.4,0,5.1,0c0.6,0,0.9,0.2,1.1,0.7c4,8.6,8,17.1,11.9,25.7c0.2,0.5,0.5,0.6,1,0.6c5.4,0,10.7,0,16.1,0c0.2,0,0.4,0,0.7,0
		C367.6,218,363,208.1,358.4,198.1z M198.1,156.8c0,23.9,0,47.5,0,71.2c5.4,0,10.8,0,16.3,0c0-12.2,0-24.4,0-36.8
		c14.1,12.3,28,24.5,42.1,36.8c0-23.8,0-47.5,0-71.2c-5.5,0-10.9,0-16.4,0c0,11.8,0,23.6,0,35.5
		C226.1,180.5,212.2,168.8,198.1,156.8z M377.7,228.1c0.3,0,0.6,0,0.8,0c7.5,0,15.1,0,22.6,0c7,0,12.8-2.7,17.3-7.9
		c6.9-8,7-20.1,0.2-28.2c-0.8-1-1.7-1.8-2.6-2.8c0-0.1,0.1-0.2,0.1-0.3c3.7-6.7,4-13.6,0.4-20.5c-3.8-7.3-10.1-11.3-18.4-11.5
		c-6.7-0.2-13.4-0.1-20.1-0.1c-0.1,0-0.2,0-0.4,0C377.7,180.6,377.7,204.3,377.7,228.1z M312.2,228.1c0-4.7,0-9.3,0-14.1
		c-10.5,0-21,0-31.5,0c0-4.3,0-8.6,0-12.9c8,0,16,0,24,0c0-5.2,0-10.3,0-15.5c-8,0-16,0-24,0c0-4.7,0-9.3,0-14c10.6,0,21.2,0,31.8,0
		c0-5,0-9.9,0-14.8c-16.1,0-32.1,0-48.1,0c0,23.8,0,47.5,0,71.2C280.3,228.1,296.2,228.1,312.2,228.1z M453.6,193.3
		c0.1,0.3,0.2,0.5,0.3,0.7c4.8,11.2,9.6,22.3,14.4,33.5c0.2,0.4,0.4,0.6,0.9,0.6c5.6,0,11.1,0,16.7,0c0.2,0,0.4,0,0.7,0
		c-11-23.8-22-47.5-33.1-71.3c-10.9,23.8-21.7,47.5-32.6,71.3c0.2,0,0.3,0,0.5,0c5.8,0,11.6,0,17.4,0c0.4,0,0.6-0.2,0.7-0.6
		c3.5-8.6,7-17.2,10.5-25.8C451.3,199,452.5,196.2,453.6,193.3z M190.4,228.1c0-23.8,0-47.5,0-71.2c-5.4,0-10.8,0-16.2,0
		c0,23.8,0,47.5,0,71.2C179.6,228.1,184.9,228.1,190.4,228.1z M147,242.9c-0.3,0-0.5,0-0.8,0c-0.6-0.1-0.9,0.2-1.1,0.7
		c-0.9,2.2-1.8,4.3-2.7,6.5c-0.7,1.6-1.4,3.2-2.1,5c-0.1-0.3-0.2-0.5-0.3-0.7c-1.5-3.6-3.1-7.3-4.7-10.9c-0.1-0.2-0.3-0.5-0.4-0.5
		c-0.4-0.1-0.9,0-1.3,0c0,5.1,0,10,0,15c0.5,0,1,0,1.5,0c0-3.8,0-7.5,0-11.2c0.2,0.2,0.3,0.4,0.4,0.6c1.3,3,2.6,5.9,3.8,8.9
		c0.2,0.6,0.6,0.5,1.1,0.6c0.5,0,0.7-0.1,0.9-0.6c1.3-3,2.6-6,3.9-9c0.1-0.2,0.2-0.4,0.3-0.6c0,0,0.1,0,0.1,0c0,3.7,0,7.5,0,11.2
		c0.5,0,0.9,0,1.4,0C147,252.9,147,247.9,147,242.9z M294.1,257.9c0-5,0-10,0-15c-0.5,0-1.1,0-1.6,0c0,4,0,8,0,12
		c-0.3-0.2-0.4-0.4-0.6-0.6c-2.3-3.6-4.7-7.3-7-10.9c-0.1-0.2-0.3-0.4-0.5-0.4c-0.4-0.1-0.9,0-1.3,0c0,5,0,10,0,15c0.5,0,1,0,1.6,0
		c0-4,0-8,0-11.9c0.3,0.2,0.4,0.4,0.5,0.6c2.3,3.6,4.7,7.3,7,10.9c0.1,0.2,0.3,0.4,0.5,0.5C293.2,258,293.6,257.9,294.1,257.9z
		 M175.2,245.9c0,0,0.1,0,0.1-0.1c0.1,0.2,0.2,0.3,0.3,0.5c2.4,3.7,4.7,7.4,7.1,11.1c0.1,0.2,0.4,0.5,0.6,0.5c0.4,0.1,0.9,0,1.3,0
		c0-5,0-10,0-15c-0.5,0-1,0-1.6,0c0,4,0,8,0,12c-0.2-0.1-0.3-0.3-0.4-0.5c-2.4-3.7-4.7-7.4-7.1-11.1c-0.1-0.2-0.3-0.4-0.5-0.5
		c-0.4-0.1-0.9,0-1.4,0c0,5.1,0,10,0,15c0.5,0,1,0,1.6,0C175.2,253.8,175.2,249.9,175.2,245.9z M409.7,257.9
		c-1.1-2.2-2.1-4.3-3.1-6.4c0.1-0.1,0.1-0.1,0.2-0.1c2-1,2.9-2.7,2.5-5c-0.3-1.9-1.7-3.2-3.9-3.4c-1.7-0.1-3.4-0.1-5.1-0.1
		c-0.3,0-0.6,0-0.9,0c0,5.1,0,10,0,15c0.6,0,1.1,0,1.7,0c0-2,0-4,0-6.1c1.1,0,2.2,0,3.2,0c0.5,0,0.7,0.2,0.9,0.6
		c0.8,1.7,1.6,3.4,2.4,5.1c0.1,0.2,0.3,0.4,0.5,0.5C408.6,258,409.1,257.9,409.7,257.9z M354.1,251.5c0.1-0.1,0.2-0.1,0.2-0.1
		c1.9-0.9,2.9-2.6,2.5-4.9c-0.3-1.9-1.7-3.3-3.8-3.5c-1.9-0.1-3.8-0.1-5.6-0.1c-0.2,0-0.3,0-0.5,0c0,5,0,10,0,15c0.5,0,1,0,1.6,0
		c0-2,0-4,0-6.1c1.2,0,2.3,0,3.3,0c0.4,0,0.6,0.1,0.8,0.5c0.8,1.7,1.6,3.4,2.4,5.1c0.1,0.2,0.3,0.4,0.4,0.5c0.5,0.1,1.1,0,1.7,0
		c-0.6-1.1-1.1-2.2-1.6-3.2C355.2,253.6,354.6,252.6,354.1,251.5z M380.2,250.4c0,0,0.1,0,0.1,0c0,0.8,0,1.6,0,2.4
		c0,0.4,0.1,0.8,0.2,1.2c0.7,2.6,2.6,4.2,5.4,4.3c2.9,0.1,5-1.3,5.7-4c0.7-2.3,0.6-4.7,0.1-7c-0.6-3-2.6-4.6-5.6-4.6
		c-3,0-5.1,1.6-5.7,4.6C380.3,248.2,380.3,249.3,380.2,250.4z M275.7,250.8c-0.1-1.3-0.1-2.2-0.2-3.1c-0.3-2.9-2.4-5-5.1-5.1
		c-3.4-0.2-5.6,1.3-6.3,4.5c-0.5,2.2-0.5,4.5,0,6.7c0.6,2.9,2.6,4.5,5.5,4.5c2.9,0,5-1.5,5.7-4.3
		C275.7,252.8,275.7,251.6,275.7,250.8z M327.8,250.1c0.1,1.2,0.1,2.1,0.2,3.1c0.4,3,2.5,4.9,5.4,5c3.2,0.1,5.3-1.5,6-4.6
		c0.4-2.1,0.4-4.2,0.1-6.3c-0.5-2.9-2.6-4.7-5.4-4.8c-3.2-0.1-5.3,1.5-5.9,4.5C327.9,248.2,327.9,249.3,327.8,250.1z M114.3,250
		c0.1,1.4,0.1,2.5,0.2,3.5c0.3,1.7,1.1,3,2.6,4c1.2,0.7,2.5,0.8,3.8,0.7c1.2-0.1,2.3-0.6,3.2-1.4c1.4-1.3,1.9-2.9,1.9-4.7
		c0-1.5,0-2.9-0.1-4.4c-0.1-1.2-0.6-2.3-1.4-3.3c-1.2-1.4-2.8-1.8-4.5-1.8c-2.8,0-4.6,1.5-5.3,4C114.4,247.8,114.4,249.1,114.3,250z
		 M164.3,242.9c0,3.1,0,6.2,0,9.2c0,0.4,0,0.9-0.1,1.3c-0.2,2-1.6,3.1-3.7,3.2c-2,0.1-3.6-1-4-2.9c-0.1-0.5-0.1-1-0.1-1.5
		c0-2.9,0-5.8,0-8.7c0-0.2,0-0.4,0-0.7c-0.6,0-1.1,0-1.6,0c0,0.1,0,0.2,0,0.3c0,3.3,0,6.5,0,9.8c0,2.4,1.4,4.2,3.5,4.9
		c0.9,0.3,2,0.4,2.9,0.3c2-0.2,3.6-1.2,4.3-3.2c0.3-0.8,0.4-1.6,0.4-2.5c0.1-3,0-6,0-9c0-0.2,0-0.4,0-0.6
		C165.4,242.9,164.9,242.9,164.3,242.9z M365.9,252.1c0.4,0,0.7,0,1,0c1.2,0,2.5,0,3.7-0.1c2.3-0.3,3.7-2.1,3.7-4.6
		c0-2.3-1.5-4.2-3.7-4.4c-2-0.2-4.1-0.1-6.1-0.1c0,0-0.1,0-0.1,0.1c0,5,0,10,0,14.9c0.5,0,1,0,1.6,0
		C365.9,256,365.9,254.1,365.9,252.1z M486.9,257.9c-0.1-0.2-0.1-0.4-0.2-0.5c-1.7-4.6-3.3-9.2-5-13.9c-0.2-0.6-0.5-0.6-1-0.6
		c-0.5,0-0.8,0-1,0.6c-1.4,3.9-2.8,7.8-4.2,11.7c-0.3,0.9-0.6,1.8-1,2.7c0.4,0,0.7,0,1,0c0.5,0.1,0.8-0.1,0.9-0.6
		c0.4-1.2,0.8-2.4,1.2-3.6c0.1-0.2,0.4-0.4,0.5-0.4c1.6,0,3.3,0,4.9,0c0.2,0,0.4,0.2,0.5,0.4c0.4,0.9,0.7,1.9,1,2.9
		C485.2,258,485.2,258,486.9,257.9z M427.5,257.9c-0.1-0.2-0.1-0.4-0.2-0.5c-1.7-4.7-3.4-9.3-5-14c-0.3-0.7-0.8-0.4-1.2-0.5
		c-0.4-0.1-0.6,0.1-0.8,0.5c-1.7,4.7-3.3,9.3-5,14c-0.1,0.2-0.1,0.3-0.2,0.6c0.4,0,0.7,0,1,0c0.5,0.1,0.8-0.1,0.9-0.7
		c0.4-1.3,0.9-2.7,1.4-4c1.8,0,3.6,0,5.4,0c0.2,0,0.4,0.3,0.5,0.4c0.5,1.2,0.9,2.5,1.3,3.8c0.1,0.2,0.2,0.4,0.4,0.4
		C426.5,258,427,257.9,427.5,257.9z M230.8,257.9c-0.1-0.2-0.1-0.4-0.2-0.6c-1.7-4.6-3.3-9.2-5-13.9c-0.2-0.5-0.5-0.6-1-0.5
		c-0.4,0-0.8-0.1-1.1,0.5c-1.2,3.4-2.4,6.9-3.7,10.3c-0.5,1.4-1,2.8-1.5,4.2c0.6,0,1.2,0,1.7,0c0.5-1.4,1-2.8,1.4-4.2
		c0.1-0.4,0.3-0.5,0.7-0.5c1.6,0,3.1,0,4.7,0c0.5,0,0.6,0.2,0.7,0.6c0.3,1,0.6,1.9,1,2.9c0.5,1.3,0.5,1.3,1.9,1.3
		C230.6,257.9,230.6,257.9,230.8,257.9z M212.7,247.1c0-0.9-0.3-1.7-0.8-2.4c-1.4-2-3.5-2.4-5.7-2.1c-2.4,0.4-3.8,2-4.3,4.3
		c-0.5,2.2-0.4,4.4-0.1,6.6c0.3,2.1,1.4,3.7,3.6,4.4c1.4,0.4,2.7,0.4,4.1,0c1.9-0.6,3.2-2.1,3.3-4c-0.5,0-1,0-1.6,0
		c-0.2,1.1-0.8,2-1.9,2.4c-2.5,1.1-5.1-0.1-5.8-2.7c-0.5-1.8-0.3-3.6-0.2-5.4c0-0.7,0.3-1.4,0.6-2c0.7-1.5,2-2.2,3.6-2.2
		c1.6,0,2.9,0.7,3.4,2.2c0.3,0.8,0.7,1,1.4,0.9C212.4,247.1,212.5,247.1,212.7,247.1z M319.7,253.9c-0.3,1.2-0.9,2.1-2.1,2.5
		c-2.8,1-5.4-0.5-5.7-3.5c-0.2-1.4-0.2-2.8-0.1-4.2c0-0.8,0.2-1.5,0.5-2.3c0.6-1.6,2.1-2.5,3.8-2.4c1.8,0.1,2.9,1,3.5,2.7
		c0,0.1,0.2,0.3,0.4,0.3c0.4,0,0.9,0,1.5,0c-0.3-0.8-0.4-1.5-0.8-2.1c-1.3-2.1-3.3-2.7-5.7-2.5c-2.2,0.2-3.9,1.7-4.5,4
		c-0.6,2.5-0.6,5-0.1,7.5c0.4,2,1.7,3.5,3.8,3.9c0.8,0.2,1.7,0.2,2.6,0.2c2.5-0.2,4.3-2,4.6-4.3
		C320.8,253.9,320.3,253.9,319.7,253.9z M247.7,247.1c-0.1-1.3-0.6-2.3-1.5-3.1c-2.3-2.2-8.1-2.2-9.3,2.7c-0.6,2.3-0.5,4.7-0.1,7.1
		c0.3,1.6,1.1,3.1,2.7,3.8c1.8,0.8,3.6,0.9,5.3,0.1c1.7-0.7,2.7-1.9,2.9-3.8c-0.6,0-1.1,0-1.6,0c-0.7,2.4-2.2,2.7-3.8,2.9
		c-1.7,0.1-3.3-1.1-3.8-2.8c-0.2-0.6-0.2-1.3-0.3-2c-0.2-1.9-0.2-3.8,0.5-5.6c0.5-1.3,1.5-2.1,2.9-2.3c1.5-0.2,2.9,0.1,3.8,1.5
		c0.3,0.5,0.5,1,0.7,1.5C246.7,247.1,247.2,247.1,247.7,247.1z M457.3,242.9c0.1,0.3,0.2,0.6,0.3,0.8c1.7,4.5,3.3,9.1,5,13.6
		c0.2,0.5,0.4,0.7,0.9,0.6c0.5-0.1,0.9,0.1,1.2-0.6c1.6-4.6,3.3-9.1,5-13.7c0.1-0.2,0.1-0.5,0.2-0.8c-0.4,0-0.7,0-1,0
		c-0.6-0.1-0.9,0.1-1.1,0.7c-1.3,3.9-2.6,7.8-3.9,11.7c-0.1,0.2-0.1,0.3-0.3,0.6c-0.4-1.3-0.8-2.4-1.2-3.6c-1-3-2-5.9-3-8.9
		c-0.1-0.2-0.3-0.5-0.4-0.5C458.4,242.8,457.9,242.9,457.3,242.9z M436.9,244.4c0,4.5,0,9,0,13.5c0.6,0,1.1,0,1.7,0
		c0-4.5,0-9,0-13.5c1.6,0,3.1,0,4.6,0c0-0.5,0-1,0-1.4c-3.6,0-7.3,0-10.9,0c0,0.5,0,1,0,1.5C433.8,244.4,435.3,244.4,436.9,244.4z
		 M255,242.9c0,5,0,10,0,15c0.5,0,1.1,0,1.6,0c0-5,0-10,0-15C256,242.9,255.5,242.9,255,242.9z M451,257.9c0-5,0-10,0-15
		c-0.5,0-1.1,0-1.6,0c0,5,0,10,0,15C450,257.9,450.5,257.9,451,257.9z M194.2,257.9c0-5,0-10,0-15c-0.5,0-1.1,0-1.6,0c0,5,0,10,0,15
		C193.2,257.9,193.7,257.9,194.2,257.9z M269.2,241.2c0,0.1,0.1,0.1,0.1,0.2c0.4-0.1,1,0,1.2-0.2c1-1,1.9-2.2,3-3.4
		c-0.5,0-0.8,0-1.2,0c-0.2,0-0.5,0-0.6,0.2C270.8,239,270,240.1,269.2,241.2z"/>
	<path class="st1" d="M96.5,248.1c0,0,0.1,0,0.1,0c0,1.6,0,3.2,0,4.8c0,0-0.1,0-0.1,0C96.5,251.3,96.5,249.7,96.5,248.1z"/>
	<path class="st2" d="M113.5,228.1c-5.5,0-10.9,0-16.4,0c0-23.7,0-47.4,0-71.2c11.6,9.9,23.1,19.7,34.6,29.5
		c11.5-9.8,23-19.7,34.5-29.6c0,23.8,0,47.5,0,71.2c-5.4,0-10.8,0-16.2,0c0-12,0-24,0-36.3c-6.2,5.6-12.2,11.1-18.3,16.7
		c-6.1-5.5-12.1-11-18.3-16.6C113.5,204,113.5,216,113.5,228.1z"/>
	<path class="st2" d="M358.4,198.1c4.6,10,9.3,20,13.9,30c-0.3,0-0.5,0-0.7,0c-5.4,0-10.7,0-16.1,0c-0.5,0-0.8-0.2-1-0.6
		c-4-8.6-8-17.1-11.9-25.7c-0.2-0.5-0.5-0.7-1.1-0.7c-1.7,0-3.3,0-5.1,0c0,9,0,18,0,27c-5.5,0-10.9,0-16.3,0c0-23.7,0-47.5,0-71.2
		c0.3,0,0.5,0,0.8,0c9.2,0,18.3,0,27.5,0c10.1,0,19.1,7.4,21.1,17.3c2,9.7-2.2,18.8-10.8,23.8C358.6,197.9,358.5,198,358.4,198.1z
		 M336.3,185.5c0.3,0,0.5,0,0.7,0c2.8,0,5.7,0,8.5,0c0.7,0,1.4,0,2.1-0.1c3.5-0.5,6.1-3.6,6-7.2c-0.1-3.5-3-6.6-6.6-6.8
		c-3.6-0.1-7.1,0-10.7-0.1c-0.1,0-0.1,0-0.2,0.1C336.3,176.1,336.3,180.7,336.3,185.5z"/>
	<path class="st2" d="M198.1,156.8c14.1,11.9,28,23.7,42,35.6c0-11.9,0-23.7,0-35.5c5.5,0,10.9,0,16.4,0c0,23.7,0,47.4,0,71.2
		c-14-12.3-28-24.5-42.1-36.8c0,12.3,0,24.5,0,36.8c-5.5,0-10.9,0-16.3,0C198.1,204.4,198.1,180.7,198.1,156.8z"/>
	<path class="st2" d="M377.7,228.1c0-23.8,0-47.5,0-71.2c0.1,0,0.3,0,0.4,0c6.7,0,13.4-0.2,20.1,0.1c8.3,0.3,14.6,4.2,18.4,11.5
		c3.6,6.8,3.3,13.7-0.4,20.5c-0.1,0.1-0.1,0.2-0.1,0.3c0.9,0.9,1.8,1.8,2.6,2.8c6.8,8.1,6.7,20.3-0.2,28.2
		c-4.5,5.3-10.3,7.9-17.3,7.9c-7.5,0-15.1,0-22.6,0C378.3,228.1,378,228.1,377.7,228.1z M392.5,200.1c0,4.7,0,9.2,0,13.8
		c0.1,0,0.2,0,0.3,0c3,0,5.9,0,8.9,0c1.1,0,2.1-0.3,3.1-0.8c2.5-1.4,3.8-4.3,3.3-7.3c-0.5-2.8-2.8-5.2-5.6-5.5
		c-1.7-0.2-3.5-0.1-5.3-0.2C395.7,200.1,394.1,200.1,392.5,200.1z M392.7,185.5c1.7,0,3.4,0,5,0c0.4,0,0.8-0.1,1.3-0.1
		c3.4-0.6,5.9-3.8,5.8-7.3c-0.1-3.3-2.9-6.2-6.3-6.5c-1.8-0.1-3.7-0.1-5.6-0.1c-0.1,0-0.1,0-0.2,0.1
		C392.7,176.2,392.7,180.8,392.7,185.5z"/>
	<path class="st3" d="M312.2,228.1c-16,0-31.9,0-47.9,0c0-23.7,0-47.4,0-71.2c16,0,32.1,0,48.1,0c0,4.9,0,9.8,0,14.8
		c-10.6,0-21.2,0-31.8,0c0,4.7,0,9.3,0,14c8,0,16,0,24,0c0,5.2,0,10.3,0,15.5c-8,0-16,0-24,0c0,4.3,0,8.5,0,12.9c10.5,0,21,0,31.5,0
		C312.2,218.7,312.2,223.4,312.2,228.1z"/>
	<path class="st3" d="M453.6,193.3c-1.2,2.9-2.3,5.7-3.5,8.5c-3.5,8.6-7,17.2-10.5,25.8c-0.1,0.3-0.3,0.6-0.7,0.6
		c-5.8,0-11.6,0-17.4,0c-0.1,0-0.2,0-0.5,0c10.9-23.7,21.7-47.4,32.6-71.3c11,23.8,22,47.5,33.1,71.3c-0.3,0-0.5,0-0.7,0
		c-5.6,0-11.1,0-16.7,0c-0.5,0-0.7-0.2-0.9-0.6c-4.8-11.2-9.6-22.3-14.4-33.5C453.9,193.8,453.8,193.6,453.6,193.3z"/>
	<path class="st3" d="M190.4,228.1c-5.4,0-10.8,0-16.2,0c0-23.7,0-47.5,0-71.2c5.4,0,10.8,0,16.2,0
		C190.4,180.6,190.4,204.3,190.4,228.1z"/>
	<path class="st4" d="M147,242.9c0,5,0,10,0,15c-0.5,0-0.9,0-1.4,0c0-3.7,0-7.5,0-11.2c0,0-0.1,0-0.1,0c-0.1,0.2-0.2,0.4-0.3,0.6
		c-1.3,3-2.6,6-3.9,9c-0.2,0.5-0.5,0.6-0.9,0.6c-0.5,0-0.8,0-1.1-0.6c-1.2-3-2.6-6-3.8-8.9c-0.1-0.2-0.2-0.4-0.4-0.6
		c0,3.7,0,7.5,0,11.2c-0.5,0-1,0-1.5,0c0-5,0-9.9,0-15c0.4,0,0.9,0,1.3,0c0.2,0,0.3,0.3,0.4,0.5c1.6,3.6,3.1,7.3,4.7,10.9
		c0.1,0.2,0.2,0.4,0.3,0.7c0.7-1.7,1.4-3.3,2.1-5c0.9-2.2,1.9-4.3,2.7-6.5c0.2-0.6,0.5-0.8,1.1-0.7
		C146.5,242.9,146.7,242.9,147,242.9z"/>
	<path class="st5" d="M294.1,257.9c-0.5,0-1,0-1.4,0c-0.2,0-0.4-0.3-0.5-0.5c-2.3-3.6-4.7-7.3-7-10.9c-0.1-0.2-0.3-0.4-0.5-0.6
		c0,4,0,7.9,0,11.9c-0.6,0-1.1,0-1.6,0c0-5,0-10,0-15c0.5,0,0.9,0,1.3,0c0.2,0,0.4,0.2,0.5,0.4c2.3,3.6,4.7,7.3,7,10.9
		c0.1,0.2,0.3,0.4,0.6,0.6c0-4,0-7.9,0-12c0.6,0,1.1,0,1.6,0C294.1,247.9,294.1,252.9,294.1,257.9z"/>
	<path class="st6" d="M175.2,245.9c0,4,0,8,0,12c-0.5,0-1,0-1.6,0c0-5,0-9.9,0-15c0.5,0,0.9,0,1.4,0c0.2,0,0.4,0.3,0.5,0.5
		c2.4,3.7,4.7,7.4,7.1,11.1c0.1,0.2,0.2,0.3,0.4,0.5c0-4,0-8,0-12c0.6,0,1.1,0,1.6,0c0,5,0,10,0,15c-0.5,0-0.9,0.1-1.3,0
		c-0.2,0-0.4-0.3-0.6-0.5c-2.4-3.7-4.7-7.4-7.1-11.1c-0.1-0.2-0.2-0.3-0.3-0.5C175.3,245.8,175.3,245.9,175.2,245.9z"/>
	<path class="st7" d="M409.7,257.9c-0.6,0-1.1,0-1.6,0c-0.2,0-0.4-0.3-0.5-0.5c-0.8-1.7-1.6-3.4-2.4-5.1c-0.2-0.4-0.4-0.6-0.9-0.6
		c-1.1,0-2.1,0-3.2,0c0,2,0,4,0,6.1c-0.6,0-1.1,0-1.7,0c0-5,0-9.9,0-15c0.3,0,0.6,0,0.9,0c1.7,0,3.4,0,5.1,0.1
		c2.1,0.2,3.5,1.5,3.9,3.4c0.4,2.3-0.5,4-2.5,5c-0.1,0-0.1,0.1-0.2,0.1C407.6,253.6,408.6,255.7,409.7,257.9z M401.1,250.2
		c1.4,0,2.8,0.1,4.1,0c1.5-0.1,2.5-1.1,2.5-2.6c0.1-1.7-0.7-2.9-2.3-3.1c-1.4-0.2-2.8,0-4.3,0C401.1,246.4,401.1,248.3,401.1,250.2z
		"/>
	<path class="st6" d="M354.1,251.5c0.5,1.1,1,2.1,1.5,3.2c0.5,1,1,2.1,1.6,3.2c-0.6,0-1.2,0-1.7,0c-0.2,0-0.3-0.3-0.4-0.5
		c-0.8-1.7-1.6-3.4-2.4-5.1c-0.2-0.4-0.4-0.5-0.8-0.5c-1.1,0-2.2,0-3.3,0c0,2.1,0,4,0,6.1c-0.6,0-1.1,0-1.6,0c0-5,0-10,0-15
		c0.2,0,0.3,0,0.5,0c1.9,0,3.8,0,5.6,0.1c2.1,0.2,3.5,1.6,3.8,3.5c0.3,2.2-0.6,4-2.5,4.9C354.3,251.4,354.2,251.4,354.1,251.5z
		 M348.6,250.4c1.5-0.1,3,0,4.5-0.2c1.4-0.2,2.2-1.3,2.2-2.8c0-1.5-0.8-2.7-2.2-2.8c-1.5-0.2-3,0-4.5,0
		C348.6,246.4,348.6,248.3,348.6,250.4z"/>
	<path class="st8" d="M380.2,250.4c0.1-1.1,0.1-2.2,0.3-3.2c0.6-3,2.7-4.6,5.7-4.6c3,0,5,1.6,5.6,4.6c0.4,2.3,0.5,4.7-0.1,7
		c-0.8,2.7-2.8,4.1-5.7,4c-2.8-0.1-4.7-1.6-5.4-4.3c-0.1-0.4-0.2-0.8-0.2-1.2c0-0.8,0-1.6,0-2.4
		C380.3,250.4,380.3,250.4,380.2,250.4z M390.6,250.6c-0.1-1.1-0.1-2-0.2-2.9c-0.4-2.2-1.9-3.6-4-3.6c-2.1-0.1-3.8,1.2-4.1,3.4
		c-0.2,1.9-0.2,3.9,0,5.8c0.2,2.1,1.9,3.3,3.9,3.4c2,0.1,3.6-1.1,4.1-3.2C390.5,252.5,390.5,251.5,390.6,250.6z"/>
	<path class="st8" d="M275.7,250.8c-0.1,0.8-0.1,2-0.4,3.1c-0.7,2.8-2.8,4.3-5.7,4.3c-2.9,0-4.9-1.6-5.5-4.5c-0.5-2.2-0.5-4.5,0-6.7
		c0.7-3.1,2.9-4.7,6.3-4.5c2.7,0.2,4.8,2.2,5.1,5.1C275.7,248.6,275.7,249.5,275.7,250.8z M265.4,250.3c0,0,0.1,0,0.1,0
		c0,0.7,0,1.4,0,2.1c0.1,1.3,0.5,2.5,1.5,3.4c2.3,2,5.9,0.8,6.7-2.2c0.5-2.1,0.5-4.2,0-6.3c-0.5-2.1-2-3.2-4-3.3c-2,0-3.5,1.1-4,3.2
		C265.5,248.3,265.5,249.3,265.4,250.3z"/>
	<path class="st8" d="M327.8,250.1c0.1-0.9,0.1-2,0.3-3c0.7-3.1,2.7-4.6,5.9-4.5c2.8,0.1,4.9,1.8,5.4,4.8c0.3,2.1,0.4,4.2-0.1,6.3
		c-0.6,3.1-2.8,4.7-6,4.6c-2.9-0.1-5-2-5.4-5C327.9,252.3,327.9,251.3,327.8,250.1z M338.1,250.4c-0.1-0.9-0.1-1.8-0.2-2.8
		c-0.4-2.2-1.9-3.5-4-3.6c-2-0.1-3.6,1.1-4.1,3.3c-0.4,2-0.4,4.1,0,6.1c0.5,2.2,2.1,3.3,4.1,3.3c2.1-0.1,3.6-1.4,4-3.6
		C338,252.2,338,251.3,338.1,250.4z"/>
	<path class="st9" d="M114.3,250c0.1-0.9,0.1-2.2,0.4-3.4c0.7-2.5,2.5-4,5.3-4c1.8,0,3.3,0.4,4.5,1.8c0.8,0.9,1.3,2,1.4,3.3
		c0.1,1.5,0.2,2.9,0.1,4.4c-0.1,1.8-0.5,3.5-1.9,4.7c-0.9,0.8-2,1.3-3.2,1.4c-1.3,0.1-2.6,0-3.8-0.7c-1.5-0.9-2.4-2.3-2.6-4
		C114.4,252.5,114.4,251.4,114.3,250z M116,250.4c0.1,0.9,0,1.9,0.2,2.8c0.5,2.4,1.6,3.4,3.8,3.6c1.8,0.2,3.7-0.7,4.3-3.1
		c0.5-1.9,0.4-3.8,0.2-5.7c-0.3-2.3-1.8-4-4.6-3.8c-1.4,0.1-2.4,0.8-3.1,1.9C116,247.4,116,248.9,116,250.4z"/>
	<path class="st4" d="M164.3,242.9c0.6,0,1.1,0,1.6,0c0,0.2,0,0.4,0,0.6c0,3,0,6,0,9c0,0.8-0.1,1.7-0.4,2.5c-0.7,2-2.3,3-4.3,3.2
		c-1,0.1-2,0-2.9-0.3c-2.1-0.6-3.4-2.5-3.5-4.9c-0.1-3.3,0-6.5,0-9.8c0-0.1,0-0.2,0-0.3c0.5,0,1,0,1.6,0c0,0.2,0,0.5,0,0.7
		c0,2.9,0,5.8,0,8.7c0,0.5,0,1,0.1,1.5c0.4,1.9,2,3,4,2.9c2.1-0.1,3.5-1.3,3.7-3.2c0.1-0.4,0.1-0.9,0.1-1.3
		C164.3,249.1,164.3,246,164.3,242.9z"/>
	<path class="st10" d="M365.9,252.1c0,2,0,3.9,0,5.8c-0.5,0-1,0-1.6,0c0-5,0-9.9,0-14.9c0,0,0-0.1,0.1-0.1c2,0,4.1-0.1,6.1,0.1
		c2.2,0.2,3.7,2,3.7,4.4c0,2.5-1.4,4.3-3.7,4.6c-1.2,0.1-2.4,0.1-3.7,0.1C366.6,252.1,366.3,252.1,365.9,252.1z M365.9,250.6
		c1.3,0,2.5,0,3.7,0c2-0.1,3.2-1.5,2.9-3.5c-0.2-1.6-1-2.5-2.5-2.6c-1.4-0.1-2.7,0-4.1,0C365.9,246.5,365.9,248.5,365.9,250.6z"/>
	<path class="st8" d="M486.9,257.9c-1.7,0.1-1.7,0.1-2.2-1.4c-0.3-1-0.6-1.9-1-2.9c-0.1-0.2-0.3-0.4-0.5-0.4c-1.6,0-3.3,0-4.9,0
		c-0.2,0-0.5,0.2-0.5,0.4c-0.4,1.2-0.9,2.4-1.2,3.6c-0.2,0.5-0.4,0.7-0.9,0.6c-0.3,0-0.6,0-1,0c0.3-1,0.7-1.9,1-2.7
		c1.4-3.9,2.8-7.8,4.2-11.7c0.2-0.6,0.6-0.6,1-0.6c0.5,0,0.8,0,1,0.6c1.6,4.6,3.3,9.2,5,13.9C486.8,257.5,486.8,257.7,486.9,257.9z
		 M480.7,244.9c-0.8,2.4-1.6,4.7-2.4,7c1.6,0,3.2,0,4.8,0C482.3,249.5,481.6,247.3,480.7,244.9z"/>
	<path class="st8" d="M427.5,257.9c-0.5,0-1,0-1.4,0c-0.2,0-0.3-0.3-0.4-0.4c-0.4-1.2-0.9-2.5-1.3-3.8c-0.1-0.2-0.3-0.4-0.5-0.4
		c-1.8,0-3.6,0-5.4,0c-0.5,1.4-1,2.7-1.4,4c-0.2,0.5-0.4,0.7-0.9,0.7c-0.3,0-0.6,0-1,0c0.1-0.2,0.1-0.4,0.2-0.6
		c1.7-4.7,3.4-9.3,5-14c0.2-0.4,0.4-0.6,0.8-0.5c0.4,0.1,0.9-0.3,1.2,0.5c1.7,4.7,3.3,9.4,5,14C427.4,257.5,427.5,257.7,427.5,257.9
		z M423.7,251.8c-0.8-2.3-1.6-4.6-2.4-7c-0.8,2.4-1.6,4.7-2.4,7C420.6,251.8,422.1,251.8,423.7,251.8z"/>
	<path class="st8" d="M230.8,257.9c-0.1,0-0.2,0-0.3,0c-1.4,0.1-1.4,0.1-1.9-1.3c-0.3-1-0.7-1.9-1-2.9c-0.1-0.4-0.3-0.6-0.7-0.6
		c-1.6,0-3.1,0-4.7,0c-0.4,0-0.5,0.1-0.7,0.5c-0.5,1.4-0.9,2.8-1.4,4.2c-0.6,0-1.1,0-1.7,0c0.5-1.4,1-2.8,1.5-4.2
		c1.2-3.4,2.5-6.8,3.7-10.3c0.2-0.7,0.6-0.5,1.1-0.5c0.4,0,0.8,0,1,0.5c1.6,4.6,3.3,9.2,5,13.9C230.6,257.4,230.7,257.6,230.8,257.9
		z M227,251.8c-0.8-2.3-1.6-4.6-2.4-7c-0.8,2.4-1.6,4.7-2.4,7C223.8,251.8,225.4,251.8,227,251.8z"/>
	<path class="st8" d="M212.7,247.1c-0.2,0-0.4,0-0.5,0c-0.7,0.1-1.1-0.1-1.4-0.9c-0.5-1.5-1.8-2.1-3.4-2.2c-1.6,0-2.9,0.6-3.6,2.2
		c-0.3,0.6-0.5,1.3-0.6,2c-0.1,1.8-0.3,3.6,0.2,5.4c0.7,2.6,3.3,3.8,5.8,2.7c1.1-0.5,1.7-1.3,1.9-2.4c0.5,0,1.1,0,1.6,0
		c-0.1,1.9-1.4,3.4-3.3,4c-1.4,0.4-2.8,0.4-4.1,0c-2.1-0.7-3.2-2.3-3.6-4.4c-0.4-2.2-0.4-4.4,0.1-6.6c0.5-2.3,1.9-3.9,4.3-4.3
		c2.3-0.4,4.3,0.1,5.7,2.1C212.4,245.4,212.7,246.2,212.7,247.1z"/>
	<path class="st8" d="M319.7,253.9c0.6,0,1.1,0,1.6,0c-0.2,2.3-2.1,4.1-4.6,4.3c-0.9,0.1-1.7,0-2.6-0.2c-2.1-0.5-3.3-1.9-3.8-3.9
		c-0.5-2.5-0.6-5,0.1-7.5c0.6-2.2,2.3-3.7,4.5-4c2.3-0.2,4.4,0.3,5.7,2.5c0.3,0.6,0.5,1.3,0.8,2.1c-0.6,0-1.1,0-1.5,0
		c-0.1,0-0.3-0.2-0.4-0.3c-0.6-1.8-1.7-2.6-3.5-2.7c-1.7-0.1-3.2,0.8-3.8,2.4c-0.3,0.7-0.5,1.5-0.5,2.3c-0.1,1.4-0.1,2.8,0.1,4.2
		c0.3,2.9,2.9,4.5,5.7,3.5C318.7,256,319.4,255.1,319.7,253.9z"/>
	<path class="st8" d="M96.7,252.9c0-1.6,0-3.2,0-4.8c0.2-2.2,1.1-4.1,3.3-5c2.2-0.9,4.3-0.7,6.2,0.8c1,0.8,1.5,2,1.6,3.3
		c-0.4,0-0.9,0-1.3,0c-0.1,0-0.3-0.2-0.3-0.3c-0.5-1.7-1.6-2.6-3.4-2.7c-1.7-0.1-3.2,0.7-3.8,2.2c-0.3,0.7-0.5,1.5-0.6,2.2
		c0,1.6-0.1,3.3,0.2,4.9c0.5,2.7,3.1,4,5.7,2.9c1.1-0.5,1.8-1.3,2-2.5c0.6,0,1.1,0,1.6,0c-0.3,2.6-2.5,4.3-5.5,4.3
		C99.1,258.2,96.9,256.2,96.7,252.9z"/>
	<path class="st10" d="M247.7,247.1c-0.5,0-1,0-1.5,0c-0.2-0.5-0.4-1-0.7-1.5c-0.9-1.4-2.3-1.7-3.8-1.5c-1.4,0.2-2.4,1-2.9,2.3
		c-0.7,1.8-0.7,3.7-0.5,5.6c0.1,0.7,0.1,1.3,0.3,2c0.5,1.7,2.2,3,3.8,2.8c1.6-0.1,3.2-0.5,3.8-2.9c0.5,0,1,0,1.6,0
		c-0.2,1.9-1.3,3.1-2.9,3.8c-1.8,0.7-3.6,0.7-5.3-0.1c-1.6-0.8-2.5-2.2-2.7-3.8c-0.4-2.3-0.5-4.7,0.1-7.1c1.2-4.9,7-5,9.3-2.7
		C247,244.8,247.6,245.8,247.7,247.1z"/>
	<path class="st8" d="M457.3,242.9c0.6,0,1.1,0,1.6,0c0.2,0,0.4,0.3,0.4,0.5c1,3,2,5.9,3,8.9c0.4,1.2,0.8,2.3,1.2,3.6
		c0.1-0.3,0.2-0.4,0.3-0.6c1.3-3.9,2.7-7.8,3.9-11.7c0.2-0.6,0.5-0.8,1.1-0.7c0.3,0,0.6,0,1,0c-0.1,0.3-0.2,0.5-0.2,0.8
		c-1.7,4.6-3.4,9.1-5,13.7c-0.3,0.7-0.7,0.5-1.2,0.6c-0.5,0.1-0.7-0.1-0.9-0.6c-1.6-4.6-3.3-9.1-5-13.6
		C457.5,243.4,457.4,243.2,457.3,242.9z"/>
	<path class="st4" d="M436.9,244.4c-1.6,0-3.1,0-4.6,0c0-0.5,0-0.9,0-1.5c3.6,0,7.2,0,10.9,0c0,0.5,0,0.9,0,1.4c-1.5,0-3,0-4.6,0
		c0,4.5,0,9,0,13.5c-0.6,0-1.1,0-1.7,0C436.9,253.4,436.9,248.9,436.9,244.4z"/>
	<path class="st8" d="M255,242.9c0.5,0,1,0,1.6,0c0,5,0,9.9,0,15c-0.5,0-1,0-1.6,0C255,252.9,255,247.9,255,242.9z"/>
	<path class="st8" d="M451,257.9c-0.5,0-1,0-1.6,0c0-5,0-9.9,0-15c0.5,0,1,0,1.6,0C451,247.9,451,252.9,451,257.9z"/>
	<path class="st8" d="M194.2,257.9c-0.5,0-1,0-1.6,0c0-5,0-9.9,0-15c0.5,0,1,0,1.6,0C194.2,247.9,194.2,252.9,194.2,257.9z"/>
	<path class="st4" d="M269.2,241.2c0.8-1.1,1.6-2.2,2.5-3.3c0.1-0.1,0.4-0.1,0.6-0.2c0.3,0,0.7,0,1.2,0c-1,1.2-1.9,2.3-3,3.4
		c-0.2,0.2-0.8,0.2-1.2,0.2C269.2,241.3,269.2,241.3,269.2,241.2z"/>
	<path class="st11" d="M336.3,185.5c0-4.7,0-9.4,0-14c0.1,0,0.1-0.1,0.2-0.1c3.6,0,7.1-0.1,10.7,0.1c3.5,0.1,6.4,3.3,6.6,6.8
		c0.1,3.5-2.5,6.7-6,7.2c-0.7,0.1-1.4,0.1-2.1,0.1c-2.8,0-5.7,0-8.5,0C336.8,185.5,336.6,185.5,336.3,185.5z"/>
	<path class="st0" d="M392.5,200.1c1.6,0,3.1,0,4.6,0c1.8,0,3.6-0.1,5.3,0.2c2.8,0.4,5.1,2.8,5.6,5.5c0.5,3-0.8,5.9-3.3,7.3
		c-1,0.5-2,0.8-3.1,0.8c-3,0-5.9,0-8.9,0c-0.1,0-0.2,0-0.3,0C392.5,209.4,392.5,204.8,392.5,200.1z"/>
	<path class="st12" d="M392.7,185.5c0-4.7,0-9.3,0-13.9c0.1,0,0.1-0.1,0.2-0.1c1.9,0,3.7-0.1,5.6,0.1c3.4,0.3,6.2,3.2,6.3,6.5
		c0.1,3.5-2.4,6.7-5.8,7.3c-0.4,0.1-0.8,0.1-1.3,0.1C396.1,185.5,394.4,185.5,392.7,185.5z"/>
	<path class="st13" d="M401.1,250.2c0-1.9,0-3.9,0-5.7c1.5,0,2.9-0.1,4.3,0c1.6,0.2,2.4,1.4,2.3,3.1c-0.1,1.5-1,2.5-2.5,2.6
		C403.9,250.3,402.5,250.2,401.1,250.2z"/>
	<path class="st14" d="M348.6,250.4c0-2.1,0-4,0-5.9c1.5,0,3-0.1,4.5,0c1.4,0.1,2.2,1.4,2.2,2.8c0,1.5-0.8,2.6-2.2,2.8
		C351.6,250.3,350.1,250.3,348.6,250.4z"/>
	<path class="st13" d="M390.6,250.6c-0.1,0.8-0.1,1.9-0.3,2.9c-0.5,2.1-2.1,3.3-4.1,3.2c-2.1-0.1-3.7-1.3-3.9-3.4
		c-0.2-1.9-0.2-3.9,0-5.8c0.3-2.2,2-3.5,4.1-3.4c2.1,0.1,3.7,1.4,4,3.6C390.5,248.6,390.5,249.5,390.6,250.6z"/>
	<path class="st13" d="M265.4,250.3c0.1-1,0.1-2.1,0.4-3.1c0.5-2.1,2-3.2,4-3.2c2,0,3.6,1.2,4,3.3c0.5,2.1,0.5,4.2,0,6.3
		c-0.8,3-4.3,4.2-6.7,2.2c-1-0.9-1.4-2.1-1.5-3.4c-0.1-0.7,0-1.4,0-2.1C265.5,250.3,265.5,250.3,265.4,250.3z"/>
	<path class="st13" d="M338.1,250.4c-0.1,0.9-0.1,1.8-0.2,2.7c-0.4,2.2-1.9,3.5-4,3.6c-2,0.1-3.7-1.1-4.1-3.3c-0.4-2-0.4-4.1,0-6.1
		c0.5-2.2,2.1-3.4,4.1-3.3c2.1,0.1,3.6,1.4,4,3.6C338,248.6,338,249.5,338.1,250.4z"/>
	<path class="st13" d="M116,250.4c0-1.5,0-3,0.8-4.3c0.7-1.2,1.7-1.9,3.1-1.9c2.7-0.2,4.3,1.5,4.6,3.8c0.2,1.9,0.3,3.8-0.2,5.7
		c-0.6,2.4-2.5,3.3-4.3,3.1c-2.2-0.2-3.3-1.2-3.8-3.6C116,252.2,116,251.3,116,250.4z"/>
	<path class="st13" d="M365.9,250.6c0-2.1,0-4.1,0-6.2c1.4,0,2.8-0.1,4.1,0c1.5,0.1,2.3,1,2.5,2.6c0.3,2-0.9,3.5-2.9,3.5
		C368.4,250.6,367.2,250.6,365.9,250.6z"/>
	<path class="st14" d="M480.7,244.9c0.8,2.4,1.6,4.7,2.4,7c-1.6,0-3.1,0-4.8,0C479.1,249.5,479.9,247.3,480.7,244.9z"/>
	<path class="st14" d="M423.7,251.8c-1.6,0-3.2,0-4.8,0c0.8-2.3,1.6-4.5,2.4-7C422.2,247.3,422.9,249.5,423.7,251.8z"/>
	<path class="st14" d="M227,251.8c-1.6,0-3.2,0-4.8,0c0.8-2.3,1.6-4.5,2.4-7C225.4,247.3,226.2,249.5,227,251.8z"/>
</g>
</svg>
