<svg id="Logo" xmlns="http://www.w3.org/2000/svg" xmlns:xlink="http://www.w3.org/1999/xlink" viewBox="0 0 409.89 134.54"><defs><style>.cls-1{fill:#8790a6;}.cls-2{fill:#00314e;}.cls-3{fill:url(#New_Gradient_Swatch_1);}</style><radialGradient id="New_Gradient_Swatch_1" cx="81.53" cy="73.07" r="47.65" gradientUnits="userSpaceOnUse"><stop offset="0.15" stop-color="#fff"/><stop offset="0.43" stop-color="#abb1c0"/><stop offset="0.56" stop-color="#8790a6"/><stop offset="0.69" stop-color="#586f87"/><stop offset="0.83" stop-color="#284d68"/><stop offset="0.94" stop-color="#0b3955"/><stop offset="1" stop-color="#00314e"/></radialGradient></defs><title>PRWorldAlliance_Logo_FNL</title><g id="Text"><g id="World_Alliance" data-name="World Alliance"><path id="Alliance" class="cls-1" d="M287.68,99.05a230.3,230.3,0,0,0-10.39-28h-6a240.5,240.5,0,0,0-10.34,28h5.06c.52-2,1.06-3.93,1.6-5.75l.13-.46h12.85l.14.46c.55,1.89,1.13,3.83,1.63,5.75Zm-9.12-10H269l.28-.84c1.39-4.14,2.83-7.87,4.39-11.42l.59-1.34.58,1.35c1.56,3.6,3,7.45,4.35,11.41l.29.84ZM291,71h4.4v28H291Zm9.33,0h4.4v28h-4.4Zm9.35,7.77h4.41V99.05H309.7Zm-.41-5.91c0-1.85.36-2.43,2.6-2.43s2.62.61,2.62,2.43-.36,2.38-2.62,2.38S309.29,74.61,309.29,72.88Zm17.85,5.38c-5.76,0-8.16,1.58-8.59,5.79h4.14c.43-1.9,1.5-2.49,4.2-2.49s4.32.54,4.32,3.21v1.85l-.54.09-7.11,1.11c-2.61.4-5.72,1.85-5.72,6.43,0,3.69,2,5.33,6.35,5.33,3.71,0,5.46-1.23,6.17-2l1.09-1.14v2.58h4.16V83.91C335.61,79.9,333.16,78.26,327.14,78.26Zm4.07,11.5v1.71c0,2.23-.52,5.18-5,5.18-2.69,0-4-1-4-3.17,0-3.06,2.56-3.44,4.26-3.7l4-.65.74-.12Zm26.34-3.23V99.05h-4.4V87.31c0-3.17,0-5.67-4.32-5.67-4.79,0-5.13,3-5.13,7.83v9.58h-4.41V78.79h4.12v4.06l.77-1.29c1.47-2,3.36-3.3,7.06-3.3C356.2,78.26,357.55,80,357.55,86.53Zm21.3,6.15c-.46,3.52-2.08,6.9-9,6.9-7.95,0-9.58-4.17-9.58-10.44,0-7.73,2.86-10.88,9.87-10.88,5.43,0,8,1.9,8.71,6.52h-4.45c-.53-2-1.55-3.14-4.55-3.14-3.75,0-5,1.84-5,7.3s1.19,7.26,4.72,7.26c2.91,0,4.51-1.15,4.9-3.52Zm16.23,1.47c-.86,1.79-2.65,2-4.47,2-3.62,0-4.84-1.38-5.06-5.68l0-.67h14.54c-.11-8.76-2.39-11.59-9.17-11.59-8.22,0-9.91,4.17-9.91,10.43,0,9.11,3.55,10.89,9.66,10.89,5.57,0,8.25-1.58,9.06-5.43Zm-9.49-7.29c.21-3.46,1-5.22,5-5.22,2.83,0,4.78.89,5,5.22l.05.67H385.55Z"/><path id="World" class="cls-1" d="M297.12,35a223.26,223.26,0,0,1-7.53,28h-5.44l-4.47-20.79-.62-2.89-.63,2.89L273.92,63h-5.4A222.81,222.81,0,0,1,261,35H266a177.19,177.19,0,0,0,4.59,20.51l.71,2.45.53-2.49L276.26,35h5.63l4.55,20.59L287,58l.7-2.37A151,151,0,0,0,292.31,35ZM318,52.87c0,7.19-3.43,10.68-10.48,10.68s-10.36-3.49-10.36-10.68,3.4-10.68,10.4-10.68S318,45.68,318,52.87Zm-4.57,0c0-4.36-1-7.26-5.87-7.26-4.2,0-5.83,2-5.83,7.3s1.65,7.3,5.87,7.3S313.43,58.11,313.43,52.83Zm13.38-7.69-1.19,2V42.76h-4.08V63h4.4V55.69c0-3.89,0-9.22,5.55-9.22.46,0,.85,0,1.16,0V42.34c-.21,0-.48,0-.83,0C329.3,42.31,328,43,326.81,45.14ZM336.28,63h4.41V35h-4.41Zm28.08-28.09V63h-4.21v-4a10.44,10.44,0,0,1-1.35,2.31c-1.13,1.35-3.05,2.16-5.8,2.16-5.79,0-8.37-3.27-8.37-10.62V52.8c0-7.34,2.58-10.62,8.37-10.62,2.75,0,4.68.81,5.8,2.17A12.11,12.11,0,0,1,360,46.21V34.93h4.41Zm-4.42,18.26c0-.11,0-.87,0-.88h0c-.11-4.31-1.58-6.74-5.3-6.74-4.51,0-5.53,2.57-5.59,6.74v.88h0c0,4.31,1,7,5.59,7,3.78,0,5.24-2.51,5.31-7Z"/></g><g id="PR"><path class="cls-2" d="M138.23,35h24.25c13.33,0,25,1.25,25,20.13,0,18.17-10.83,20.58-23.53,20.58H151.47V99.11H138.23Zm13.24,11v18.7h8.32c10.65,0,14.23-1.07,14.23-10.1,0-7.25-2.33-8.6-13.42-8.6Z"/><path class="cls-2" d="M195.38,35h27.83c13.33,0,25,.36,25,19.24,0,12.52-5.19,17.18-12.53,18.88l16.74,26H236.27L220.52,73.88h-11.9V99.11H195.38Zm13.24,11V62.88h11.9c10.65,0,14.23-1.08,14.23-9.13,0-6.44-2.24-7.79-13.42-7.79Z"/></g></g><path id="Globe" class="cls-3" d="M119.86,63.53A126.79,126.79,0,0,0,125,45.73c-.45-1.17-.94-2.33-1.46-3.46a116.43,116.43,0,0,1-7.3,20.91q-3.33-.36-6.69-.89A96.59,96.59,0,0,0,87,25.67,97.59,97.59,0,0,1,98.48,15.14c-.55-.31-1.1-.6-1.66-.89a94.31,94.31,0,0,0-11.88,9.43A81.8,81.8,0,0,0,71.81,13.42,89.15,89.15,0,0,1,86.42,10c-1.49-.44-3-.83-4.53-1.16a90,90,0,0,0-13.21,2.7,57.85,57.85,0,0,0-7.47-3.46c-1,.13-2,.3-3.05.49a46,46,0,0,1,7.41,3.94A82.77,82.77,0,0,0,37.32,28.33Q34,25.12,30.88,21.6A60.08,60.08,0,0,0,24.35,28a86.28,86.28,0,0,0-6.05,23.2A93.7,93.7,0,0,0,9.73,70.68a59.57,59.57,0,0,0,4,18.36,69.7,69.7,0,0,0,11.92,7.81,98,98,0,0,0,13.64,22,59.68,59.68,0,0,0,9.13,4.34c-.33-.34-.67-.67-1-1q3.06-.51,6-1.14c.22,1.35.47,2.67.74,4,1.21.32,2.45.6,3.69.84-.27-1.84-.51-3.73-.69-5.69a91.32,91.32,0,0,0,33-15.44,104.27,104.27,0,0,0,18.15-5.07,85.61,85.61,0,0,1-2.47,14.87,62.3,62.3,0,0,0,5.35-4.65,79.15,79.15,0,0,0,2.4-12.43,72,72,0,0,0,10.25-5.72,58.84,58.84,0,0,0,2.4-6.25A73.43,73.43,0,0,1,114,92a80.32,80.32,0,0,0-.71-14.09,102.71,102.71,0,0,0,5.28-11c3.56.24,7.07.33,10.51.29q0-1.6-.09-3.18C126,64,123,63.8,119.86,63.53ZM102.61,61A148.13,148.13,0,0,1,70,50.29,105.76,105.76,0,0,1,83.91,29.1,107.84,107.84,0,0,1,102.61,61ZM68.51,14.56A87.43,87.43,0,0,1,81.83,26.71,98.18,98.18,0,0,0,66,48.35,121.65,121.65,0,0,1,40.83,31.53,83.37,83.37,0,0,1,68.51,14.56ZM28.89,23.43q2.91,3.64,6.12,7A89,89,0,0,0,23,44.06,97.75,97.75,0,0,1,28.89,23.43ZM11.52,81.66a110.39,110.39,0,0,1,6.3-17.8,87.65,87.65,0,0,0,4.71,25.07A81.46,81.46,0,0,1,11.52,81.66ZM45.36,120a95.61,95.61,0,0,1-13.93-20.4,89.93,89.93,0,0,0,20.69,5.81,107.78,107.78,0,0,0,.87,12.7C50.53,118.77,48,119.39,45.36,120Zm6.86-21a94.49,94.49,0,0,1-24.36-7.37,88.35,88.35,0,0,1-6.15-35.51,98.3,98.3,0,0,1,16.73-22.3,113.63,113.63,0,0,0,25.69,18A118.06,118.06,0,0,0,52.22,99Zm4.67,17.84c-.23-3.48-.3-7.12-.23-10.85a112.74,112.74,0,0,0,22.71.23A99.86,99.86,0,0,1,56.89,116.84ZM89.36,98.9a116.84,116.84,0,0,1-32.44.77A132.05,132.05,0,0,1,68.24,53.89a140,140,0,0,0,35.81,11.28,94.4,94.4,0,0,1,3.33,13.77A98.89,98.89,0,0,1,89.36,98.9Zm9.71-2a85,85,0,0,0,9.17-11c.22,2.69.33,5.41.3,8.17Q104,95.66,99.07,96.9Zm13-25.56c-.39-1.74-.82-3.47-1.31-5.17q1.92.24,3.84.42C113.84,68.18,113,69.77,112.11,71.34Z"/></svg>